<svg id="svg" version="1.1" width="500" height="500" xmlns="http://www.w3.org/2000/svg" xmlns:xlink="http://www.w3.org/1999/xlink" style="display: block;"><g id="svgg"><path id="path0" d="M107.392 63.189 C 106.672 64.343,106.400 70.229,106.400 84.691 C 106.400 99.676,106.153 104.795,105.400 105.377 C 104.801 105.841,94.506 106.120,79.724 106.075 C 65.040 106.030,54.858 106.306,54.581 106.754 C 54.324 107.169,54.207 111.238,54.321 115.796 C 54.609 127.408,57.234 126.400,26.702 126.400 L 0.800 126.400 0.800 168.000 L 0.800 209.600 9.800 209.600 L 18.800 209.599 18.523 220.326 L 18.247 231.052 26.523 230.926 L 34.800 230.800 35.200 220.400 L 35.600 210.000 44.335 209.772 C 50.782 209.603,53.244 209.813,53.732 210.572 C 54.097 211.137,54.380 234.820,54.362 263.200 L 54.329 314.800 62.764 315.027 C 67.404 315.152,71.286 315.152,71.392 315.027 C 71.497 314.902,71.767 272.379,71.992 220.530 L 72.400 126.261 79.800 126.296 C 83.870 126.315,87.559 126.346,87.997 126.365 C 88.520 126.388,88.863 158.758,88.997 220.600 L 89.200 314.800 97.800 315.027 L 106.400 315.254 106.400 273.227 L 106.400 231.200 114.800 231.200 L 123.200 231.200 123.200 158.000 L 123.200 84.800 140.800 84.800 L 158.400 84.800 158.400 95.200 L 158.400 105.600 166.400 105.600 C 172.227 105.600,174.420 105.872,174.475 106.600 C 174.516 107.150,174.487 110.948,174.409 115.039 C 174.301 120.705,174.574 122.946,175.552 124.439 L 176.837 126.400 201.600 126.400 L 226.363 126.400 227.648 124.439 C 228.626 122.946,228.899 120.705,228.791 115.039 C 228.713 110.948,228.684 107.150,228.725 106.600 C 228.780 105.872,230.973 105.600,236.800 105.600 L 244.800 105.600 244.800 95.200 L 244.800 84.800 262.400 84.800 L 280.000 84.800 280.000 158.000 L 280.000 231.200 288.400 231.200 L 296.800 231.200 296.800 273.227 L 296.800 315.254 305.400 315.027 L 314.000 314.800 314.203 220.600 C 314.337 158.758,314.680 126.388,315.203 126.365 C 315.641 126.346,319.330 126.315,323.400 126.296 L 330.800 126.261 331.208 220.530 C 331.433 272.379,331.703 314.902,331.808 315.027 C 331.914 315.152,335.796 315.152,340.436 315.027 L 348.871 314.800 348.838 263.200 C 348.820 234.820,349.103 211.137,349.468 210.572 C 349.956 209.813,352.418 209.603,358.865 209.772 L 367.600 210.000 368.000 220.400 L 368.400 230.800 376.677 230.926 L 384.953 231.052 384.677 220.326 L 384.400 209.599 392.200 209.600 L 400.000 209.600 400.000 168.000 L 400.000 126.400 375.298 126.400 C 346.138 126.400,348.591 127.385,348.879 115.796 C 348.993 111.238,348.876 107.169,348.619 106.754 C 348.342 106.306,338.160 106.030,323.476 106.075 C 308.694 106.120,298.399 105.841,297.800 105.377 C 297.048 104.796,296.794 99.613,296.775 84.502 C 296.755 69.055,296.503 64.076,295.686 63.000 C 294.569 61.528,293.149 61.023,294.000 62.400 C 294.326 62.928,283.742 63.200,262.847 63.200 C 242.282 63.200,231.200 62.920,231.200 62.400 C 231.200 60.753,229.760 61.683,228.828 63.933 C 228.136 65.603,227.938 71.793,228.131 85.733 L 228.400 105.200 201.600 105.200 L 174.800 105.200 175.069 85.733 C 175.262 71.793,175.064 65.603,174.372 63.933 C 173.440 61.683,172.000 60.753,172.000 62.400 C 172.000 62.920,160.918 63.200,140.353 63.200 C 119.458 63.200,108.874 62.928,109.200 62.400 C 109.472 61.960,109.400 61.600,109.040 61.600 C 108.680 61.600,107.938 62.315,107.392 63.189 M52.941 148.521 C 53.084 149.247,53.020 158.877,52.800 169.921 L 52.400 190.000 37.381 190.218 C 17.117 190.511,19.200 193.061,19.200 167.972 L 19.200 147.200 35.941 147.200 C 50.865 147.200,52.711 147.343,52.941 148.521 M384.000 167.972 C 384.000 193.061,386.083 190.511,365.819 190.218 L 350.800 190.000 350.400 169.921 C 350.180 158.877,350.116 149.247,350.259 148.521 C 350.489 147.343,352.335 147.200,367.259 147.200 L 384.000 147.200 384.000 167.972 M159.800 190.259 C 158.560 190.488,158.400 191.602,158.400 200.032 L 158.400 209.546 149.800 209.773 L 141.200 210.000 140.977 220.600 L 140.754 231.200 149.177 231.200 L 157.600 231.200 157.600 262.325 L 157.600 293.450 165.800 293.766 C 170.310 293.940,174.198 293.997,174.440 293.893 C 174.681 293.789,174.861 270.384,174.840 241.883 L 174.800 190.062 168.000 190.031 C 164.260 190.014,160.570 190.116,159.800 190.259 M228.309 190.547 C 227.807 191.360,228.260 293.680,228.767 293.897 C 229.005 293.999,232.890 293.940,237.400 293.766 L 245.600 293.450 245.600 262.325 L 245.600 231.200 254.023 231.200 L 262.446 231.200 262.223 220.600 L 262.000 210.000 253.400 209.773 L 244.800 209.546 244.800 199.973 C 244.800 192.857,244.543 190.396,243.800 190.383 C 243.250 190.374,239.616 190.283,235.724 190.182 C 231.833 190.080,228.496 190.245,228.309 190.547 M122.958 231.709 C 122.651 232.016,122.400 241.567,122.400 252.933 L 122.400 273.600 132.013 273.600 L 141.627 273.600 141.413 252.600 L 141.200 231.600 132.358 231.375 C 127.495 231.252,123.265 231.402,122.958 231.709 M262.158 231.709 C 261.851 232.016,261.600 241.567,261.600 252.933 L 261.600 273.600 271.213 273.600 L 280.827 273.600 280.613 252.600 L 280.400 231.600 271.558 231.375 C 266.695 231.252,262.465 231.402,262.158 231.709 M176.000 304.800 L 176.000 315.200 183.953 315.200 C 188.327 315.200,192.120 315.546,192.381 315.969 C 192.642 316.392,192.838 334.887,192.815 357.069 C 192.792 379.250,192.998 397.984,193.272 398.700 C 194.013 400.630,209.187 400.630,209.928 398.700 C 210.202 397.984,210.408 379.250,210.385 357.069 C 210.362 334.887,210.558 316.392,210.819 315.969 C 211.080 315.546,214.873 315.200,219.247 315.200 L 227.200 315.200 227.200 304.800 L 227.200 294.400 201.600 294.400 L 176.000 294.400 176.000 304.800 M72.000 336.400 L 72.000 357.600 80.000 357.600 L 88.000 357.600 88.000 336.400 L 88.000 315.200 80.000 315.200 L 72.000 315.200 72.000 336.400 M315.200 336.400 L 315.200 357.600 323.200 357.600 L 331.200 357.600 331.200 336.400 L 331.200 315.200 323.200 315.200 L 315.200 315.200 315.200 336.400 " stroke="none" fill="#000000" fill-rule="evenodd"></path><path id="path1" d="M158.400 31.267 C 158.400 55.924,158.611 62.463,159.400 62.200 C 161.047 61.652,161.255 -0.000,159.609 -0.000 C 158.551 -0.000,158.400 3.899,158.400 31.267 M242.591 30.934 C 242.752 54.818,243.028 61.943,243.800 62.200 C 244.589 62.463,244.800 55.924,244.800 31.267 C 244.800 3.899,244.649 -0.000,243.591 -0.000 C 242.529 -0.000,242.407 3.771,242.591 30.934 M124.800 20.800 C 124.800 21.277,127.867 21.600,132.400 21.600 C 136.933 21.600,140.000 21.277,140.000 20.800 C 140.000 20.323,136.933 20.000,132.400 20.000 C 127.867 20.000,124.800 20.323,124.800 20.800 M191.200 21.600 C 191.200 23.413,192.030 23.650,193.440 22.240 C 194.850 20.830,194.613 20.000,192.800 20.000 C 191.733 20.000,191.200 20.533,191.200 21.600 M195.200 20.800 C 195.200 21.267,197.867 21.600,201.600 21.600 C 205.333 21.600,208.000 21.267,208.000 20.800 C 208.000 20.333,205.333 20.000,201.600 20.000 C 197.867 20.000,195.200 20.333,195.200 20.800 M208.800 20.640 C 208.800 21.468,210.532 23.200,211.360 23.200 C 211.712 23.200,212.000 22.480,212.000 21.600 C 212.000 20.533,211.467 20.000,210.400 20.000 C 209.520 20.000,208.800 20.288,208.800 20.640 M263.200 20.800 C 263.200 21.277,266.267 21.600,270.800 21.600 C 275.333 21.600,278.400 21.277,278.400 20.800 C 278.400 20.323,275.333 20.000,270.800 20.000 C 266.267 20.000,263.200 20.323,263.200 20.800 M69.600 62.400 C 69.600 77.333,69.885 85.600,70.400 85.600 C 70.913 85.600,71.200 78.053,71.200 64.560 C 71.200 39.956,70.565 41.600,80.062 41.600 C 89.502 41.600,88.747 38.821,88.990 74.470 L 89.200 105.200 97.400 105.428 L 105.600 105.656 105.600 84.893 C 105.600 73.474,105.819 63.561,106.086 62.865 C 106.434 61.958,106.094 61.600,104.886 61.600 C 103.215 61.600,103.200 61.781,103.200 82.400 L 103.200 103.200 96.800 103.200 L 90.400 103.200 90.400 71.200 L 90.400 39.200 80.000 39.200 L 69.600 39.200 69.600 62.400 M173.600 50.400 C 173.600 57.333,173.905 61.600,174.400 61.600 C 174.886 61.600,175.200 58.033,175.200 52.498 C 175.200 41.366,175.137 41.442,184.239 41.661 C 187.953 41.750,191.404 41.568,191.909 41.256 C 194.168 39.860,191.230 39.200,182.753 39.200 L 173.600 39.200 173.600 50.400 M210.834 39.945 C 209.967 41.348,212.215 41.823,218.961 41.661 C 228.063 41.442,228.000 41.366,228.000 52.498 C 228.000 58.033,228.314 61.600,228.800 61.600 C 229.295 61.600,229.600 57.333,229.600 50.400 L 229.600 39.200 220.447 39.200 C 215.413 39.200,211.087 39.535,210.834 39.945 M312.800 71.200 L 312.800 103.200 306.400 103.200 L 300.000 103.200 300.000 82.400 C 300.000 61.781,299.985 61.600,298.314 61.600 C 297.106 61.600,296.766 61.958,297.114 62.865 C 297.381 63.561,297.600 73.474,297.600 84.893 L 297.600 105.656 305.800 105.428 L 314.000 105.200 314.210 74.470 C 314.453 38.821,313.698 41.600,323.138 41.600 C 332.635 41.600,332.000 39.956,332.000 64.560 C 332.000 78.053,332.287 85.600,332.800 85.600 C 333.315 85.600,333.600 77.333,333.600 62.400 L 333.600 39.200 323.200 39.200 L 312.800 39.200 312.800 71.200 M70.493 101.800 C 70.410 103.047,69.393 103.200,61.200 103.200 C 53.556 103.200,52.000 103.403,52.000 104.400 C 52.000 105.397,53.558 105.600,61.225 105.600 C 70.915 105.600,71.841 105.243,70.960 101.847 C 70.617 100.520,70.578 100.516,70.493 101.800 M332.257 102.800 L 332.400 105.200 341.800 105.425 C 349.807 105.617,351.200 105.469,351.200 104.425 C 351.200 103.396,349.735 103.200,342.059 103.200 C 334.039 103.200,332.868 103.028,332.515 101.800 C 332.294 101.030,332.178 101.480,332.257 102.800 M0.800 124.800 C 0.800 125.314,9.680 125.643,25.600 125.720 C 39.240 125.786,50.820 125.876,51.333 125.920 C 51.847 125.964,52.417 125.550,52.600 125.000 C 52.862 124.214,47.364 124.000,26.867 124.000 C 10.022 124.000,0.800 124.283,0.800 124.800 M350.600 125.000 C 350.783 125.550,351.353 125.964,351.867 125.920 C 352.380 125.876,363.420 125.786,376.400 125.720 C 391.520 125.643,400.000 125.313,400.000 124.800 C 400.000 124.284,391.178 124.000,375.133 124.000 C 355.596 124.000,350.338 124.214,350.600 125.000 M0.800 210.800 C 0.800 211.876,2.070 212.020,9.800 211.826 C 15.116 211.693,18.800 211.273,18.800 210.800 C 18.800 210.327,15.116 209.907,9.800 209.774 C 2.070 209.580,0.800 209.724,0.800 210.800 M36.962 210.267 C 35.492 211.222,35.146 232.801,36.600 232.800 C 37.349 232.800,37.600 230.186,37.600 222.400 L 37.600 212.000 45.267 212.000 C 51.043 212.000,52.852 211.753,52.602 211.000 C 52.213 209.825,38.622 209.188,36.962 210.267 M350.933 210.133 C 349.478 211.589,351.034 212.000,358.000 212.000 L 365.600 212.000 365.600 222.400 C 365.600 230.186,365.851 232.800,366.600 232.800 C 368.055 232.801,367.708 211.215,366.238 210.283 C 365.000 209.498,351.699 209.368,350.933 210.133 M384.555 210.112 C 383.218 211.449,385.521 212.000,392.447 212.000 C 398.627 212.000,400.000 211.782,400.000 210.800 C 400.000 209.559,385.743 208.923,384.555 210.112 M122.400 275.200 C 122.400 275.689,126.133 276.000,132.000 276.000 C 137.867 276.000,141.600 275.689,141.600 275.200 C 141.600 274.711,137.867 274.400,132.000 274.400 C 126.133 274.400,122.400 274.711,122.400 275.200 M261.600 275.200 C 261.600 275.689,265.333 276.000,271.200 276.000 C 277.067 276.000,280.800 275.689,280.800 275.200 C 280.800 274.711,277.067 274.400,271.200 274.400 C 265.333 274.400,261.600 274.711,261.600 275.200 M157.600 295.571 C 157.600 296.595,158.945 296.800,165.667 296.800 C 171.763 296.800,173.652 296.556,173.402 295.800 C 172.863 294.176,157.600 293.955,157.600 295.571 M230.133 294.933 C 228.668 296.399,230.271 296.800,237.600 296.800 C 244.178 296.800,245.600 296.587,245.600 295.600 C 245.600 294.345,231.337 293.730,230.133 294.933 M173.599 316.200 C 173.600 317.452,174.572 317.600,182.800 317.600 C 191.059 317.600,194.461 316.776,191.000 315.614 C 187.386 314.401,173.598 314.865,173.599 316.200 M220.064 315.157 C 207.730 315.813,207.927 317.600,220.333 317.600 C 229.067 317.600,229.600 317.508,229.600 316.000 C 229.600 315.120,229.330 314.470,229.000 314.557 C 228.670 314.643,224.649 314.913,220.064 315.157 M52.000 316.375 C 52.000 317.401,53.430 317.600,60.800 317.600 L 69.600 317.600 69.707 335.800 C 69.767 345.810,69.734 355.530,69.635 357.400 L 69.456 360.800 79.928 360.800 L 90.400 360.800 90.400 358.847 C 90.400 356.535,89.167 355.489,88.498 357.233 C 88.111 358.242,86.592 358.416,79.814 358.228 L 71.600 358.000 71.200 336.800 L 70.800 315.600 61.400 315.375 C 53.393 315.183,52.000 315.331,52.000 316.375 M89.355 315.712 C 87.991 317.076,90.405 317.600,98.047 317.600 C 104.939 317.600,106.400 317.390,106.400 316.400 C 106.400 315.158,90.549 314.518,89.355 315.712 M296.800 316.400 C 296.800 317.475,298.027 317.622,305.400 317.427 C 310.449 317.294,314.000 316.870,314.000 316.400 C 314.000 315.930,310.449 315.506,305.400 315.373 C 298.027 315.178,296.800 315.325,296.800 316.400 M332.378 316.200 C 332.174 316.750,331.915 326.380,331.803 337.600 L 331.600 358.000 323.386 358.228 C 316.608 358.416,315.089 358.242,314.702 357.233 C 314.033 355.489,312.800 356.535,312.800 358.847 L 312.800 360.800 323.272 360.800 L 333.744 360.800 333.565 357.400 C 333.466 355.530,333.433 345.810,333.493 335.800 L 333.600 317.600 342.400 317.600 C 349.689 317.600,351.200 317.394,351.200 316.400 C 351.200 314.792,332.973 314.598,332.378 316.200 " stroke="none" fill="#e1e1e1" fill-rule="evenodd"></path><path id="path2" d="M122.400 21.600 C 122.400 23.103,122.933 23.200,131.200 23.200 C 136.533 23.200,140.000 22.885,140.000 22.400 C 140.000 21.923,136.933 21.600,132.400 21.600 C 127.867 21.600,124.800 21.277,124.800 20.800 C 124.800 20.360,124.260 20.000,123.600 20.000 C 122.933 20.000,122.400 20.711,122.400 21.600 M278.400 20.800 C 278.400 21.277,275.333 21.600,270.800 21.600 C 266.267 21.600,263.200 21.923,263.200 22.400 C 263.200 22.885,266.667 23.200,272.000 23.200 C 280.267 23.200,280.800 23.103,280.800 21.600 C 280.800 20.711,280.267 20.000,279.600 20.000 C 278.940 20.000,278.400 20.360,278.400 20.800 M157.353 22.999 C 156.997 23.549,156.777 27.509,156.864 31.799 L 157.022 39.600 139.711 39.816 L 122.400 40.031 122.400 50.816 L 122.400 61.600 116.047 61.600 C 112.553 61.600,109.472 61.960,109.200 62.400 C 108.874 62.928,119.458 63.200,140.353 63.200 C 162.881 63.200,172.000 62.946,172.000 62.318 C 172.000 61.722,169.796 61.527,165.213 61.718 L 158.426 62.000 158.213 42.000 C 158.096 31.000,157.709 22.450,157.353 22.999 M244.800 42.153 L 244.800 62.000 238.000 61.718 C 233.408 61.527,231.200 61.722,231.200 62.318 C 231.200 62.946,240.319 63.200,262.847 63.200 C 283.742 63.200,294.326 62.928,294.000 62.400 C 293.728 61.960,290.647 61.600,287.153 61.600 L 280.800 61.600 280.800 50.816 L 280.800 40.031 263.493 39.816 L 246.186 39.600 246.337 31.475 C 246.430 26.474,246.164 23.149,245.644 22.827 C 245.061 22.467,244.800 28.431,244.800 42.153 M105.990 63.400 C 105.748 64.390,105.658 74.200,105.789 85.200 L 106.029 105.200 106.215 84.647 C 106.329 72.014,106.708 63.904,107.200 63.600 C 108.228 62.965,108.238 61.600,107.215 61.600 C 106.784 61.600,106.232 62.410,105.990 63.400 M174.086 62.800 C 174.479 63.680,174.800 73.580,174.800 84.800 L 174.800 105.200 201.600 105.200 L 228.400 105.200 228.400 84.800 C 228.400 73.580,228.721 63.680,229.114 62.800 C 229.785 61.294,229.744 61.279,228.405 62.537 C 227.209 63.662,226.968 65.380,226.891 73.337 L 226.800 82.800 201.600 82.800 L 176.400 82.800 176.309 73.337 C 176.232 65.380,175.991 63.662,174.795 62.537 C 173.456 61.279,173.415 61.294,174.086 62.800 M295.200 62.353 C 295.200 62.767,295.560 63.328,296.000 63.600 C 296.492 63.904,296.871 72.014,296.985 84.647 L 297.171 105.200 297.411 85.200 C 297.542 74.200,297.452 64.390,297.210 63.400 C 296.783 61.656,295.200 60.831,295.200 62.353 M71.200 74.753 C 71.200 81.451,70.894 85.600,70.400 85.600 C 69.911 85.600,69.622 89.096,69.656 94.600 C 69.695 100.840,69.942 103.109,70.462 102.000 C 71.072 100.698,71.162 100.884,70.945 103.000 L 70.677 105.600 79.939 105.601 L 89.200 105.602 88.962 94.201 L 88.724 82.800 80.617 82.800 L 72.510 82.800 72.714 73.884 C 72.844 68.180,72.608 64.776,72.059 64.436 C 71.463 64.068,71.200 67.228,71.200 74.753 M87.847 64.600 C 87.711 64.930,87.800 68.980,88.043 73.600 L 88.487 82.000 88.643 73.000 C 88.784 64.892,88.587 62.805,87.847 64.600 M314.400 72.800 C 314.400 77.787,314.558 81.709,314.751 81.516 C 315.315 80.952,315.458 64.791,314.904 64.237 C 314.627 63.960,314.400 67.813,314.400 72.800 M330.938 64.623 C 330.574 65.186,330.372 69.506,330.488 74.223 L 330.699 82.800 322.588 82.800 L 314.476 82.800 314.238 94.201 L 314.000 105.602 323.261 105.601 L 332.523 105.600 332.255 103.000 C 332.038 100.884,332.128 100.698,332.738 102.000 C 333.258 103.109,333.505 100.840,333.544 94.600 C 333.577 89.269,333.283 85.600,332.823 85.600 C 332.368 85.600,331.953 81.034,331.823 74.600 C 331.698 68.422,331.310 64.049,330.938 64.623 M52.073 115.997 C 52.219 124.873,52.410 126.255,53.380 125.451 C 54.255 124.725,54.470 122.557,54.319 116.002 C 54.211 111.324,54.386 107.070,54.708 106.548 C 55.090 105.931,54.702 105.600,53.598 105.600 C 51.947 105.600,51.906 105.882,52.073 115.997 M59.424 106.189 C 61.527 106.354,64.767 106.352,66.624 106.185 C 68.481 106.017,66.760 105.882,62.800 105.884 C 58.840 105.886,57.321 106.024,59.424 106.189 M93.800 106.188 C 95.890 106.353,99.310 106.353,101.400 106.188 C 103.490 106.023,101.780 105.888,97.600 105.888 C 93.420 105.888,91.710 106.023,93.800 106.188 M301.800 106.188 C 303.890 106.353,307.310 106.353,309.400 106.188 C 311.490 106.023,309.780 105.888,305.600 105.888 C 301.420 105.888,299.710 106.023,301.800 106.188 M337.024 106.189 C 339.127 106.354,342.367 106.352,344.224 106.185 C 346.081 106.017,344.360 105.882,340.400 105.884 C 336.440 105.886,334.921 106.024,337.024 106.189 M348.492 106.548 C 348.814 107.070,348.989 111.324,348.881 116.002 C 348.730 122.557,348.945 124.725,349.820 125.451 C 350.790 126.255,350.981 124.873,351.127 115.997 C 351.294 105.882,351.253 105.600,349.602 105.600 C 348.498 105.600,348.110 105.931,348.492 106.548 M13.000 126.198 C 19.930 126.332,31.270 126.332,38.200 126.198 C 45.130 126.065,39.460 125.956,25.600 125.956 C 11.740 125.956,6.070 126.065,13.000 126.198 M364.649 126.199 C 371.387 126.333,382.187 126.332,388.649 126.198 C 395.112 126.064,389.600 125.954,376.400 125.954 C 363.200 125.955,357.912 126.065,364.649 126.199 M36.800 189.600 L 21.200 190.052 36.553 190.226 C 46.117 190.334,52.092 190.098,52.400 189.600 C 52.672 189.160,52.783 188.878,52.647 188.974 C 52.511 189.069,45.380 189.351,36.800 189.600 M351.096 189.818 C 351.437 190.158,358.530 190.337,366.858 190.216 L 382.000 189.997 366.238 189.598 C 357.569 189.379,350.756 189.478,351.096 189.818 M163.782 190.177 C 165.202 190.354,167.722 190.357,169.382 190.184 C 171.042 190.011,169.880 189.866,166.800 189.863 C 163.720 189.859,162.362 190.001,163.782 190.177 M233.382 190.177 C 234.802 190.354,237.322 190.357,238.982 190.184 C 240.642 190.011,239.480 189.866,236.400 189.863 C 233.320 189.859,231.962 190.001,233.382 190.177 M52.017 262.400 C 51.974 308.469,52.119 315.200,53.150 315.200 C 54.381 315.200,55.138 214.053,53.931 210.908 C 52.349 206.786,52.061 214.529,52.017 262.400 M349.269 210.908 C 348.062 214.053,348.819 315.200,350.050 315.200 C 351.081 315.200,351.226 308.469,351.183 262.400 C 351.139 214.529,350.851 206.786,349.269 210.908 M35.496 221.600 C 35.496 226.220,35.628 228.110,35.790 225.800 C 35.951 223.490,35.951 219.710,35.790 217.400 C 35.628 215.090,35.496 216.980,35.496 221.600 M367.496 221.600 C 367.496 226.220,367.628 228.110,367.790 225.800 C 367.951 223.490,367.951 219.710,367.790 217.400 C 367.628 215.090,367.496 216.980,367.496 221.600 M18.733 231.133 C 17.473 232.393,19.441 232.800,26.800 232.800 C 32.987 232.800,35.200 232.537,35.200 231.800 C 35.200 230.855,19.642 230.225,18.733 231.133 M115.000 230.997 C 104.106 231.323,103.534 232.800,114.302 232.800 C 120.350 232.800,122.438 232.518,123.200 231.600 C 123.748 230.940,124.062 230.476,123.898 230.570 C 123.734 230.663,119.730 230.856,115.000 230.997 M140.400 231.467 C 142.252 232.951,157.600 233.427,157.600 232.000 C 157.600 231.520,154.422 231.200,149.665 231.200 C 145.301 231.200,141.071 230.972,140.265 230.692 C 138.978 230.246,138.994 230.340,140.400 231.467 M254.200 230.997 C 243.361 231.321,242.691 232.809,253.400 232.775 C 258.987 232.756,261.640 232.416,262.753 231.575 C 263.607 230.929,263.967 230.476,263.553 230.570 C 263.139 230.663,258.930 230.856,254.200 230.997 M280.163 231.800 C 281.157 232.994,296.800 233.229,296.800 232.050 C 296.800 231.637,292.869 231.187,288.065 231.050 C 281.146 230.852,279.504 231.008,280.163 231.800 M368.000 231.800 C 368.000 232.537,370.227 232.800,376.467 232.800 C 382.150 232.800,384.839 232.517,384.647 231.940 C 384.213 230.638,368.000 230.502,368.000 231.800 M127.000 274.192 C 129.750 274.349,134.250 274.349,137.000 274.192 C 139.750 274.036,137.500 273.908,132.000 273.908 C 126.500 273.908,124.250 274.036,127.000 274.192 M266.200 274.192 C 268.950 274.349,273.450 274.349,276.200 274.192 C 278.950 274.036,276.700 273.908,271.200 273.908 C 265.700 273.908,263.450 274.036,266.200 274.192 M161.000 294.188 C 163.090 294.353,166.510 294.353,168.600 294.188 C 170.690 294.023,168.980 293.888,164.800 293.888 C 160.620 293.888,158.910 294.023,161.000 294.188 M174.000 294.062 C 172.644 294.630,173.443 314.169,174.845 314.706 C 175.817 315.079,176.000 313.439,176.000 304.375 C 176.000 298.449,175.730 293.628,175.400 293.663 C 175.070 293.698,174.440 293.877,174.000 294.062 M227.200 304.375 C 227.200 313.439,227.383 315.079,228.355 314.706 C 229.257 314.360,229.564 312.087,229.755 304.339 C 229.992 294.748,229.754 293.600,227.535 293.600 C 227.351 293.600,227.200 298.449,227.200 304.375 M234.600 294.188 C 236.690 294.353,240.110 294.353,242.200 294.188 C 244.290 294.023,242.580 293.888,238.400 293.888 C 234.220 293.888,232.510 294.023,234.600 294.188 M71.083 314.343 C 70.927 314.806,70.980 324.819,71.200 336.593 L 71.600 358.000 79.814 358.228 C 86.592 358.416,88.111 358.242,88.498 357.233 C 88.756 356.560,89.290 356.208,89.684 356.452 C 90.098 356.708,90.400 348.628,90.400 337.294 C 90.400 325.687,90.088 317.502,89.635 317.222 C 89.214 316.962,89.073 316.220,89.321 315.574 C 89.568 314.928,89.373 314.400,88.886 314.400 C 88.260 314.400,88.000 320.742,88.000 336.000 L 88.000 357.600 79.976 357.600 L 71.953 357.600 72.026 335.916 C 72.092 316.174,71.905 311.898,71.083 314.343 M331.188 314.000 C 331.168 314.440,331.173 324.430,331.199 336.200 L 331.247 357.600 323.224 357.600 L 315.200 357.600 315.200 336.000 C 315.200 320.742,314.940 314.400,314.314 314.400 C 313.827 314.400,313.632 314.928,313.879 315.574 C 314.127 316.220,313.986 316.962,313.565 317.222 C 313.112 317.502,312.800 325.687,312.800 337.294 C 312.800 348.628,313.102 356.708,313.516 356.452 C 313.910 356.208,314.444 356.560,314.702 357.233 C 315.089 358.242,316.608 358.416,323.386 358.228 L 331.600 358.000 332.000 336.521 C 332.220 324.707,332.136 314.627,331.812 314.121 C 331.489 313.614,331.208 313.560,331.188 314.000 M191.221 357.480 C 191.174 391.422,191.367 400.000,192.181 400.000 C 193.447 400.000,193.316 316.996,192.048 315.728 C 191.558 315.238,191.259 330.342,191.221 357.480 M210.766 316.200 C 209.770 318.799,210.015 400.000,211.019 400.000 C 211.833 400.000,212.026 391.444,211.979 357.600 C 211.924 318.135,211.789 313.533,210.766 316.200 " stroke="none" fill="#ff3333" fill-rule="evenodd"></path><path id="path3" d="M140.000 11.600 L 140.000 23.200 131.200 23.200 L 122.400 23.200 122.400 31.616 L 122.400 40.031 139.707 39.816 L 157.014 39.600 156.863 31.475 C 156.770 26.474,157.036 23.149,157.556 22.827 C 158.083 22.502,158.400 18.115,158.400 11.153 L 158.400 0.000 149.200 0.000 L 140.000 0.000 140.000 11.600 M244.800 11.153 C 244.800 18.115,245.117 22.502,245.644 22.827 C 246.164 23.149,246.430 26.474,246.337 31.475 L 246.186 39.600 263.493 39.816 L 280.800 40.031 280.800 31.616 L 280.800 23.200 272.000 23.200 L 263.200 23.200 263.200 11.600 L 263.200 0.000 254.000 0.000 L 244.800 0.000 244.800 11.153 M193.000 22.228 C 190.986 24.273,190.261 37.941,192.070 39.750 C 193.604 41.284,191.340 41.823,184.037 41.663 C 179.033 41.553,176.820 41.812,176.180 42.583 C 175.167 43.804,174.722 61.163,175.644 63.482 C 175.969 64.297,176.271 68.977,176.317 73.882 L 176.400 82.800 201.600 82.800 L 226.800 82.800 226.883 73.882 C 226.929 68.977,227.231 64.297,227.556 63.482 C 228.478 61.163,228.033 43.804,227.020 42.583 C 226.377 41.809,224.146 41.553,219.016 41.666 C 212.333 41.813,209.002 40.958,211.130 39.643 C 213.108 38.421,212.197 24.270,210.000 22.073 C 208.900 20.973,208.000 20.416,208.000 20.836 C 208.000 21.730,195.461 21.888,195.067 21.000 C 194.920 20.670,193.990 21.223,193.000 22.228 M72.160 42.560 C 70.906 43.814,70.814 63.667,72.059 64.436 C 72.609 64.776,72.843 68.176,72.710 73.884 L 72.503 82.800 79.588 83.033 C 89.079 83.345,88.464 84.033,88.000 73.625 C 87.780 68.685,87.870 64.477,88.200 64.274 C 89.242 63.634,88.910 43.630,87.840 42.560 C 87.242 41.962,84.284 41.600,80.000 41.600 C 75.716 41.600,72.758 41.962,72.160 42.560 M315.360 42.560 C 314.290 43.630,313.958 63.634,315.000 64.274 C 315.330 64.477,315.420 68.685,315.200 73.625 C 314.736 84.033,314.121 83.345,323.612 83.033 L 330.697 82.800 330.490 73.884 C 330.357 68.176,330.591 64.776,331.141 64.436 C 332.386 63.667,332.294 43.814,331.040 42.560 C 330.442 41.962,327.484 41.600,323.200 41.600 C 318.916 41.600,315.958 41.962,315.360 42.560 " stroke="none" fill="#ffff00" fill-rule="evenodd"></path><path id="path4" d="M140.800 126.400 L 140.800 147.200 149.600 147.200 L 158.400 147.200 158.400 157.573 L 158.400 167.946 149.800 168.173 L 141.200 168.400 140.977 179.400 L 140.755 190.400 149.777 190.401 L 158.800 190.402 158.536 180.001 L 158.273 169.600 166.238 169.600 C 176.824 169.600,176.068 171.440,175.813 146.302 L 175.600 125.200 166.934 124.972 L 158.267 124.745 158.534 115.171 L 158.800 105.598 149.800 105.599 L 140.800 105.600 140.800 126.400 M244.666 115.171 L 244.933 124.745 236.266 124.972 L 227.600 125.200 227.387 146.302 C 227.132 171.440,226.376 169.600,236.962 169.600 L 244.927 169.600 244.664 180.001 L 244.400 190.402 253.423 190.401 L 262.445 190.400 262.223 179.400 L 262.000 168.400 253.400 168.173 L 244.800 167.946 244.800 157.573 L 244.800 147.200 253.600 147.200 L 262.400 147.200 262.400 126.400 L 262.400 105.600 253.400 105.599 L 244.400 105.598 244.666 115.171 M174.944 253.323 C 174.273 253.994,174.240 270.920,174.904 273.400 L 175.387 275.200 201.657 275.200 L 227.927 275.200 228.404 272.600 C 228.667 271.170,228.773 266.220,228.641 261.600 L 228.400 253.200 201.944 252.989 C 187.393 252.874,175.243 253.024,174.944 253.323 " stroke="none" fill="#00ffcc" fill-rule="evenodd"></path><path id="path5" d="M123.396 157.800 L 123.600 230.800 130.400 231.036 C 141.385 231.417,140.714 232.105,140.976 220.191 L 141.200 210.000 149.800 209.773 L 158.400 209.546 158.400 199.973 L 158.400 190.400 149.577 190.400 L 140.755 190.400 140.977 179.400 L 141.200 168.400 149.800 168.173 L 158.400 167.946 158.400 157.573 L 158.400 147.200 149.600 147.200 L 140.800 147.200 140.800 126.400 L 140.800 105.600 149.600 105.600 L 158.400 105.600 158.400 95.200 L 158.400 84.800 140.796 84.800 L 123.192 84.800 123.396 157.800 M244.800 95.200 L 244.800 105.600 253.600 105.600 L 262.400 105.600 262.400 126.400 L 262.400 147.200 253.600 147.200 L 244.800 147.200 244.800 157.573 L 244.800 167.946 253.400 168.173 L 262.000 168.400 262.223 179.400 L 262.445 190.400 253.623 190.400 L 244.800 190.400 244.800 199.973 L 244.800 209.546 253.400 209.773 L 262.000 210.000 262.224 220.191 C 262.486 232.105,261.815 231.417,272.800 231.036 L 279.600 230.800 279.804 157.800 L 280.008 84.800 262.404 84.800 L 244.800 84.800 244.800 95.200 M159.360 106.560 C 158.732 107.188,158.400 110.507,158.400 116.160 L 158.400 124.800 165.400 124.788 C 174.841 124.771,174.524 125.137,174.316 114.525 L 174.142 105.600 167.231 105.600 C 162.922 105.600,159.958 105.962,159.360 106.560 M228.884 114.525 C 228.676 125.137,228.359 124.771,237.800 124.788 L 244.800 124.800 244.800 116.160 C 244.800 105.534,244.855 105.600,235.969 105.600 L 229.058 105.600 228.884 114.525 M72.333 126.333 C 71.280 127.388,72.060 313.454,73.121 314.334 C 73.838 314.930,76.789 315.181,81.321 315.032 L 88.400 314.800 88.603 221.243 C 88.720 167.678,88.504 127.384,88.098 126.978 C 87.398 126.278,72.977 125.688,72.333 126.333 M176.000 146.840 C 176.000 171.407,176.777 169.600,166.215 169.600 L 158.351 169.600 158.575 179.400 L 158.800 189.200 166.800 189.600 L 174.800 190.000 175.009 221.400 L 175.219 252.800 201.600 252.800 L 227.981 252.800 228.191 221.400 L 228.400 190.000 236.400 189.600 L 244.400 189.200 244.625 179.400 L 244.849 169.600 236.985 169.600 C 226.423 169.600,227.200 171.407,227.200 146.840 L 227.200 126.000 201.600 126.000 L 176.000 126.000 176.000 146.840 M315.128 126.886 C 314.688 127.416,314.475 165.317,314.597 221.286 L 314.800 314.800 322.078 315.028 C 327.543 315.200,329.587 314.979,330.282 314.142 C 330.973 313.310,331.155 289.391,331.003 219.649 L 330.800 126.270 323.332 126.135 C 318.684 126.051,315.585 126.335,315.128 126.886 M19.387 168.200 L 19.600 189.200 34.400 189.427 C 42.540 189.552,50.010 189.456,51.000 189.212 L 52.800 188.770 52.800 167.985 L 52.800 147.200 35.987 147.200 L 19.173 147.200 19.387 168.200 M350.400 167.985 L 350.400 188.770 352.200 189.212 C 353.190 189.456,360.660 189.552,368.800 189.427 L 383.600 189.200 383.813 168.200 L 384.027 147.200 367.213 147.200 L 350.400 147.200 350.400 167.985 M175.375 284.600 L 175.600 294.000 201.600 294.000 L 227.600 294.000 227.825 284.600 L 228.051 275.200 201.600 275.200 L 175.149 275.200 175.375 284.600 " stroke="none" fill="#0012ff" fill-rule="evenodd"></path></g></svg>