<svg id="svg" version="1.1" width="500" height="500" xmlns="http://www.w3.org/2000/svg" xmlns:xlink="http://www.w3.org/1999/xlink" style="display: block;"><g id="svgg"><path id="path0" d="M191.200 15.600 L 191.200 31.200 183.200 31.200 L 175.200 31.200 175.200 55.200 L 175.200 79.200 167.200 79.200 L 159.200 79.200 159.200 127.200 L 159.200 175.200 151.200 175.200 L 143.200 175.200 143.200 199.200 L 143.200 223.200 119.200 223.200 L 95.200 223.200 95.200 231.200 L 95.200 239.200 64.000 239.200 L 32.800 239.200 32.800 231.200 L 32.800 223.200 24.800 223.200 L 16.800 223.200 16.800 215.200 L 16.800 207.200 8.400 207.200 L 0.000 207.200 0.000 256.000 L 0.000 304.800 16.400 304.800 L 32.800 304.800 32.800 296.800 L 32.800 288.800 88.000 288.800 L 143.200 288.800 143.200 296.000 L 143.200 303.200 127.200 303.200 L 111.200 303.200 111.200 336.000 L 111.200 368.800 120.000 368.800 L 128.800 368.800 128.800 360.800 L 128.800 352.800 136.000 352.800 L 143.200 352.800 143.200 360.800 L 143.200 368.800 151.200 368.800 L 159.200 368.800 159.200 376.800 L 159.200 384.800 200.000 384.800 L 240.800 384.800 240.800 376.800 L 240.800 368.800 248.800 368.800 L 256.800 368.800 256.800 360.800 L 256.800 352.800 264.000 352.800 L 271.200 352.800 271.200 360.800 L 271.200 368.800 280.000 368.800 L 288.800 368.800 288.800 336.000 L 288.800 303.200 272.800 303.200 L 256.800 303.200 256.800 296.000 L 256.800 288.800 312.000 288.800 L 367.200 288.800 367.200 296.800 L 367.200 304.800 383.600 304.800 L 400.000 304.800 400.000 256.000 L 400.000 207.200 391.600 207.200 L 383.200 207.200 383.200 215.200 L 383.200 223.200 375.200 223.200 L 367.200 223.200 367.200 231.200 L 367.200 239.200 336.000 239.200 L 304.800 239.200 304.800 231.200 L 304.800 223.200 280.800 223.200 L 256.800 223.200 256.800 199.200 L 256.800 175.200 248.800 175.200 L 240.800 175.200 240.800 127.200 L 240.800 79.200 232.800 79.200 L 224.800 79.200 224.800 55.200 L 224.800 31.200 216.800 31.200 L 208.800 31.200 208.800 15.600 L 208.800 0.000 200.000 0.000 L 191.200 0.000 191.200 15.600 M208.612 55.371 L 208.824 79.142 216.612 79.371 L 224.400 79.600 224.606 127.371 L 224.813 175.142 232.606 175.371 L 240.400 175.600 240.612 199.800 L 240.823 224.000 248.383 224.000 L 255.942 224.000 256.171 231.800 L 256.400 239.600 280.171 239.812 L 303.942 240.024 304.171 247.812 L 304.400 255.600 336.200 255.809 L 368.000 256.018 368.000 263.880 L 368.000 271.742 316.892 272.299 C 288.783 272.606,259.983 272.609,252.892 272.306 L 240.000 271.755 240.003 276.077 C 240.005 278.455,240.240 285.518,240.526 291.773 L 241.046 303.145 248.723 303.373 L 256.400 303.600 256.400 320.000 L 256.400 336.400 248.157 336.628 L 239.914 336.857 240.052 352.519 L 240.190 368.180 232.095 368.290 C 227.187 368.357,223.979 368.085,223.949 367.600 C 223.921 367.160,223.942 363.457,223.996 359.370 L 224.095 351.941 216.247 352.170 L 208.400 352.400 208.331 360.290 L 208.262 368.180 200.131 368.290 C 195.199 368.357,191.980 368.085,191.949 367.600 C 191.921 367.160,191.942 363.457,191.996 359.370 L 192.095 351.941 184.247 352.170 L 176.400 352.400 176.331 360.296 L 176.263 368.192 168.036 368.192 L 159.810 368.192 159.948 352.496 L 160.087 336.800 152.059 336.800 C 142.307 336.800,143.065 338.406,143.373 318.400 L 143.600 303.600 151.277 303.373 L 158.955 303.145 159.477 292.246 C 159.765 286.252,160.000 279.189,160.000 276.551 L 160.000 271.755 147.108 272.306 C 140.017 272.609,111.205 272.606,83.080 272.299 L 31.945 271.741 32.173 264.071 L 32.400 256.400 64.200 256.191 L 96.000 255.982 96.000 247.991 L 96.000 240.000 120.000 240.000 L 144.000 240.000 144.000 232.000 L 144.000 224.000 151.588 224.000 L 159.177 224.000 159.388 199.800 L 159.600 175.600 167.394 175.371 L 175.187 175.142 175.394 127.371 L 175.600 79.600 183.400 79.371 L 191.200 79.142 191.200 55.704 C 191.200 42.814,191.452 32.015,191.760 31.707 C 192.067 31.399,195.937 31.249,200.360 31.374 L 208.400 31.600 208.612 55.371 " stroke="none" fill="#000000" fill-rule="evenodd"></path><path id="path1" d="M191.760 31.707 C 191.452 32.015,191.200 42.814,191.200 55.704 L 191.200 79.142 183.400 79.371 L 175.600 79.600 175.394 127.371 L 175.187 175.142 167.394 175.371 L 159.600 175.600 159.391 207.400 L 159.182 239.200 152.151 239.200 C 143.313 239.200,143.200 239.314,143.200 248.160 L 143.200 255.200 120.160 255.200 C 93.178 255.200,95.144 254.474,95.353 264.360 L 95.506 271.600 95.953 264.000 L 96.400 256.400 120.171 256.188 L 143.942 255.976 144.171 248.188 L 144.400 240.400 152.200 240.171 L 160.000 239.942 160.166 247.771 L 160.332 255.600 160.596 248.230 L 160.859 240.859 168.230 240.596 L 175.600 240.332 167.791 240.166 L 159.982 240.000 160.191 208.200 L 160.400 176.400 168.194 176.171 L 175.987 175.942 176.194 128.171 L 176.400 80.400 184.188 80.171 L 191.976 79.942 192.188 56.171 L 192.400 32.400 200.200 32.171 L 208.000 31.942 208.000 55.971 L 208.000 80.000 216.000 80.000 L 224.000 80.000 224.000 128.000 L 224.000 176.000 232.000 176.000 L 240.000 176.000 240.000 208.000 L 240.000 240.000 232.200 240.166 L 224.400 240.332 231.770 240.596 L 239.141 240.859 239.404 248.230 L 239.668 255.600 239.834 247.800 L 240.000 240.000 247.800 239.834 L 255.600 239.668 248.209 239.404 L 240.818 239.140 240.609 207.370 L 240.400 175.600 232.606 175.371 L 224.813 175.142 224.606 127.371 L 224.400 79.600 216.612 79.371 L 208.824 79.142 208.612 55.371 L 208.400 31.600 200.360 31.374 C 195.937 31.249,192.067 31.399,191.760 31.707 M192.561 96.505 C 192.253 96.814,192.000 118.414,192.000 144.504 L 192.000 191.942 184.200 192.171 L 176.400 192.400 176.382 215.800 L 176.363 239.201 176.594 216.000 L 176.824 192.800 184.382 192.800 L 191.940 192.800 192.170 200.200 L 192.400 207.600 200.000 207.600 L 207.600 207.600 207.830 200.200 L 208.060 192.800 215.618 192.800 L 223.176 192.800 223.406 215.800 L 223.636 238.800 223.618 215.600 L 223.600 192.400 215.806 192.171 L 208.013 191.942 207.806 144.171 L 207.600 96.400 200.361 96.172 C 196.380 96.047,192.870 96.197,192.561 96.505 M207.200 136.400 L 207.200 176.000 200.000 176.000 L 192.800 176.000 192.800 136.400 L 192.800 96.800 200.000 96.800 L 207.200 96.800 207.200 136.400 M207.823 248.076 L 208.046 272.000 200.023 272.000 L 192.000 272.000 192.002 263.800 L 192.004 255.600 184.202 256.000 L 176.400 256.400 176.171 264.171 L 175.943 271.943 168.171 272.171 L 160.400 272.400 159.707 287.772 L 159.014 303.144 151.307 303.372 L 143.600 303.600 143.373 318.400 C 143.066 338.386,142.328 336.800,151.930 336.800 C 161.198 336.800,160.800 337.216,160.800 327.535 L 160.800 320.800 167.840 320.800 C 176.688 320.800,176.800 320.688,176.800 311.840 L 176.800 304.800 183.840 304.800 C 193.267 304.800,192.800 305.678,192.800 287.964 L 192.800 273.049 204.200 272.527 C 210.470 272.241,217.477 272.005,219.771 272.003 L 223.942 272.000 224.171 279.800 L 224.400 287.600 232.000 288.000 L 239.600 288.400 239.829 296.171 L 240.057 303.943 247.829 304.171 L 255.600 304.400 255.600 320.000 L 255.600 335.600 247.838 335.600 C 243.569 335.600,240.361 335.884,240.710 336.232 C 241.058 336.579,244.731 336.759,248.872 336.632 L 256.400 336.400 256.400 320.000 L 256.400 303.600 248.686 303.372 L 240.973 303.144 240.390 287.600 L 239.807 272.056 232.104 271.828 L 224.400 271.600 224.000 264.000 L 223.600 256.400 216.200 256.170 L 208.800 255.940 208.800 240.417 C 208.800 231.880,208.530 224.727,208.200 224.523 C 207.870 224.319,207.700 234.917,207.823 248.076 M256.167 247.800 L 256.000 256.000 279.800 255.813 L 303.600 255.625 280.229 255.401 L 256.858 255.176 256.596 247.388 L 256.335 239.600 256.167 247.800 M144.960 256.960 C 144.359 257.561,144.000 260.549,144.000 264.948 L 144.000 271.977 119.800 272.206 L 95.600 272.436 120.000 272.418 L 144.400 272.400 144.800 264.800 L 145.200 257.200 152.400 256.751 L 159.600 256.302 152.760 256.151 C 148.319 256.053,145.583 256.337,144.960 256.960 M247.600 256.751 L 254.800 257.200 255.249 264.400 L 255.698 271.600 255.849 264.286 C 256.027 255.662,256.325 255.934,246.935 256.151 L 240.400 256.302 247.600 256.751 M304.166 263.788 L 304.000 271.977 279.800 272.200 L 255.600 272.424 279.825 272.612 C 299.331 272.763,304.129 272.594,304.457 271.740 C 304.681 271.157,304.744 267.287,304.598 263.140 L 304.332 255.600 304.166 263.788 M191.817 287.800 L 191.600 303.600 183.829 303.829 L 176.057 304.057 175.829 311.829 L 175.600 319.600 167.829 319.829 L 160.057 320.057 159.829 327.829 L 159.600 335.600 152.000 335.600 L 144.400 335.600 144.400 320.000 L 144.400 304.400 152.171 304.171 L 159.943 303.943 160.171 296.171 L 160.400 288.400 168.200 288.171 L 176.000 287.942 176.000 279.971 L 176.000 272.000 184.017 272.000 L 192.034 272.000 191.817 287.800 M208.708 304.232 C 209.058 304.579,212.731 304.757,216.872 304.627 L 224.400 304.390 216.236 303.995 C 211.747 303.778,208.359 303.884,208.708 304.232 M224.708 320.232 C 225.058 320.579,228.731 320.757,232.872 320.627 L 240.400 320.390 232.236 319.995 C 227.747 319.778,224.359 319.884,224.708 320.232 M159.691 366.270 C 158.883 367.556,160.285 369.212,161.530 368.443 C 162.009 368.147,162.394 367.477,162.388 366.953 C 162.380 366.335,162.127 366.392,161.669 367.116 C 161.104 368.009,160.902 367.929,160.662 366.716 C 160.432 365.551,160.207 365.448,159.691 366.270 M175.718 366.226 C 175.865 366.461,175.585 367.136,175.095 367.726 C 174.487 368.460,174.474 368.800,175.055 368.800 C 176.302 368.800,177.104 367.162,176.215 366.430 C 175.794 366.084,175.571 365.992,175.718 366.226 M191.834 366.038 C 191.097 367.207,192.428 369.125,193.511 368.455 C 194.000 368.153,194.394 367.477,194.388 366.953 C 194.380 366.335,194.127 366.392,193.669 367.116 C 193.104 368.009,192.902 367.929,192.662 366.716 C 192.491 365.852,192.135 365.560,191.834 366.038 M207.718 366.226 C 207.865 366.461,207.585 367.136,207.095 367.726 C 206.487 368.460,206.474 368.800,207.055 368.800 C 208.302 368.800,209.104 367.162,208.215 366.430 C 207.794 366.084,207.571 365.992,207.718 366.226 M223.834 366.038 C 223.097 367.207,224.428 369.125,225.511 368.455 C 226.000 368.153,226.394 367.477,226.388 366.953 C 226.380 366.335,226.127 366.392,225.669 367.116 C 225.104 368.009,224.902 367.929,224.662 366.716 C 224.491 365.852,224.135 365.560,223.834 366.038 M239.718 366.226 C 239.865 366.461,239.585 367.136,239.095 367.726 C 238.487 368.460,238.474 368.800,239.055 368.800 C 240.302 368.800,241.104 367.162,240.215 366.430 C 239.794 366.084,239.571 365.992,239.718 366.226 " stroke="none" fill="#3a3a3a" fill-rule="evenodd"></path><path id="path2" d="M192.533 32.533 C 192.240 32.827,192.000 43.614,192.000 56.504 L 192.000 79.942 184.200 80.171 L 176.400 80.400 176.194 128.171 L 175.987 175.942 168.194 176.171 L 160.400 176.400 160.191 208.171 L 159.982 239.942 152.191 240.171 L 144.400 240.400 144.171 248.188 L 143.942 255.976 120.171 256.188 L 96.400 256.400 96.171 264.200 L 95.942 272.000 119.971 272.000 L 144.000 272.000 144.000 264.960 C 144.000 256.112,144.112 256.000,152.960 256.000 L 160.000 256.000 160.000 248.000 L 160.000 240.000 167.988 240.000 L 175.976 240.000 176.188 216.200 L 176.400 192.400 184.194 192.171 L 191.987 191.942 192.194 144.171 L 192.400 96.400 200.000 96.400 L 207.600 96.400 207.806 144.171 L 208.013 191.942 215.806 192.171 L 223.600 192.400 223.812 216.200 L 224.024 240.000 232.012 240.000 L 240.000 240.000 240.000 248.000 L 240.000 256.000 246.735 256.000 C 256.377 256.000,256.000 255.654,256.000 264.486 L 256.000 272.000 280.000 272.000 L 304.000 272.000 304.000 264.000 L 304.000 256.000 280.000 256.000 L 256.000 256.000 256.000 248.000 L 256.000 240.000 248.000 240.000 L 240.000 240.000 240.000 208.000 L 240.000 176.000 232.000 176.000 L 224.000 176.000 224.000 128.000 L 224.000 80.000 216.000 80.000 L 208.000 80.000 208.000 56.000 L 208.000 32.000 200.533 32.000 C 196.427 32.000,192.827 32.240,192.533 32.533 M207.388 56.600 L 207.600 80.400 215.394 80.629 L 223.187 80.858 223.394 128.629 L 223.600 176.400 231.400 176.629 L 239.200 176.858 239.200 208.029 L 239.200 239.200 232.012 239.200 L 224.824 239.200 224.612 215.400 L 224.400 191.600 216.606 191.371 L 208.813 191.142 208.606 143.371 L 208.400 95.600 200.919 95.369 C 190.123 95.035,191.200 89.639,191.200 144.069 L 191.200 191.142 183.400 191.371 L 175.600 191.600 175.388 215.400 L 175.176 239.200 167.988 239.200 L 160.800 239.200 160.800 208.029 L 160.800 176.858 168.600 176.629 L 176.400 176.400 176.606 128.629 L 176.813 80.858 184.606 80.629 L 192.400 80.400 192.612 56.600 L 192.824 32.800 200.000 32.800 L 207.176 32.800 207.388 56.600 M192.561 224.505 C 192.253 224.814,192.000 235.627,192.000 248.533 L 192.000 272.000 184.000 272.000 L 176.000 272.000 176.000 279.971 L 176.000 287.942 168.200 288.171 L 160.400 288.400 160.171 296.171 L 159.943 303.943 152.171 304.171 L 144.400 304.400 144.400 320.000 L 144.400 335.600 152.000 335.600 L 159.600 335.600 159.829 327.829 L 160.057 320.057 167.829 319.829 L 175.600 319.600 175.829 311.829 L 176.057 304.057 183.829 303.829 L 191.600 303.600 191.817 287.800 L 192.034 272.000 200.000 272.000 L 207.966 272.000 208.183 287.800 L 208.400 303.600 216.171 303.829 L 223.943 304.057 224.171 311.829 L 224.400 319.600 232.171 319.829 L 239.943 320.057 240.171 327.829 L 240.400 335.600 248.000 335.600 L 255.600 335.600 255.600 320.000 L 255.600 304.400 247.829 304.171 L 240.057 303.943 239.829 296.171 L 239.600 288.400 232.000 288.000 L 224.400 287.600 224.171 279.800 L 223.942 272.000 215.983 272.000 L 208.024 272.000 207.812 248.200 L 207.600 224.400 200.361 224.172 C 196.380 224.047,192.870 224.197,192.561 224.505 M159.200 248.000 L 159.200 255.200 152.000 255.200 L 144.800 255.200 144.800 248.000 L 144.800 240.800 152.000 240.800 L 159.200 240.800 159.200 248.000 M255.200 248.000 L 255.200 255.200 248.000 255.200 L 240.800 255.200 240.800 248.000 L 240.800 240.800 248.000 240.800 L 255.200 240.800 255.200 248.000 M207.198 263.200 L 207.200 270.000 200.000 270.000 L 192.800 270.000 192.799 263.200 L 192.799 256.400 199.998 256.400 L 207.197 256.400 207.198 263.200 M143.200 264.000 L 143.200 271.200 120.000 271.200 L 96.800 271.200 96.800 264.000 L 96.800 256.800 120.000 256.800 L 143.200 256.800 143.200 264.000 M303.200 264.000 L 303.200 271.200 280.000 271.200 L 256.800 271.200 256.800 264.000 L 256.800 256.800 280.000 256.800 L 303.200 256.800 303.200 264.000 M189.765 287.199 L 189.530 301.600 182.708 301.600 C 173.881 301.600,173.600 301.882,173.600 310.743 L 173.600 317.600 166.743 317.600 C 161.867 317.600,159.556 317.930,158.743 318.743 C 157.278 320.208,157.129 332.809,158.560 334.240 C 159.307 334.987,157.884 335.200,152.160 335.200 L 144.800 335.200 144.800 320.000 L 144.800 304.800 152.800 304.800 L 160.800 304.800 160.800 296.800 L 160.800 288.800 168.800 288.800 L 176.800 288.800 176.800 280.800 L 176.800 272.800 183.400 272.799 L 190.000 272.798 189.765 287.199 M223.200 280.800 L 223.200 288.800 231.200 288.800 L 239.200 288.800 239.200 296.800 L 239.200 304.800 247.200 304.800 L 255.200 304.800 255.200 320.000 L 255.200 335.200 248.600 335.202 L 242.000 335.204 242.255 327.600 C 242.583 317.817,242.388 317.600,233.257 317.600 L 226.400 317.600 226.400 310.743 C 226.400 301.882,226.119 301.600,217.292 301.600 L 210.470 301.600 210.235 287.199 L 210.000 272.798 216.600 272.799 L 223.200 272.800 223.200 280.800 " stroke="none" fill="#6f6f6f" fill-rule="evenodd"></path><path id="path3" d="M192.612 56.600 L 192.400 80.400 184.606 80.629 L 176.813 80.858 176.606 128.629 L 176.400 176.400 168.600 176.629 L 160.800 176.858 160.800 208.029 L 160.800 239.200 167.988 239.200 L 175.176 239.200 175.388 215.400 L 175.600 191.600 183.400 191.371 L 191.200 191.142 191.200 144.069 C 191.200 89.639,190.123 95.035,200.919 95.369 L 208.400 95.600 208.606 143.371 L 208.813 191.142 216.606 191.371 L 224.400 191.600 224.612 215.400 L 224.824 239.200 232.012 239.200 L 239.200 239.200 239.200 208.029 L 239.200 176.858 231.400 176.629 L 223.600 176.400 223.394 128.629 L 223.187 80.858 215.394 80.629 L 207.600 80.400 207.388 56.600 L 207.176 32.800 200.000 32.800 L 192.824 32.800 192.612 56.600 M144.800 248.000 L 144.800 255.200 152.000 255.200 L 159.200 255.200 159.200 248.000 L 159.200 240.800 152.000 240.800 L 144.800 240.800 144.800 248.000 M240.800 248.000 L 240.800 255.200 248.000 255.200 L 255.200 255.200 255.200 248.000 L 255.200 240.800 248.000 240.800 L 240.800 240.800 240.800 248.000 M192.799 263.200 L 192.800 270.000 200.000 270.000 L 207.200 270.000 207.198 263.200 L 207.197 256.400 199.998 256.400 L 192.799 256.400 192.799 263.200 M96.800 264.000 L 96.800 271.200 120.000 271.200 L 143.200 271.200 143.200 264.000 L 143.200 256.800 120.000 256.800 L 96.800 256.800 96.800 264.000 M256.800 264.000 L 256.800 271.200 280.000 271.200 L 303.200 271.200 303.200 264.000 L 303.200 256.800 280.000 256.800 L 256.800 256.800 256.800 264.000 M176.800 280.800 L 176.800 288.800 168.800 288.800 L 160.800 288.800 160.800 296.800 L 160.800 304.800 152.800 304.800 L 144.800 304.800 144.800 320.000 L 144.800 335.200 152.160 335.200 C 157.884 335.200,159.307 334.987,158.560 334.240 C 157.129 332.809,157.278 320.208,158.743 318.743 C 159.556 317.930,161.867 317.600,166.743 317.600 L 173.600 317.600 173.600 310.743 C 173.600 301.882,173.881 301.600,182.708 301.600 L 189.530 301.600 189.765 287.199 L 190.000 272.798 183.400 272.799 L 176.800 272.800 176.800 280.800 M210.235 287.199 L 210.470 301.600 217.292 301.600 C 226.119 301.600,226.400 301.882,226.400 310.743 L 226.400 317.600 233.257 317.600 C 242.388 317.600,242.583 317.817,242.255 327.600 L 242.000 335.204 248.600 335.202 L 255.200 335.200 255.200 320.000 L 255.200 304.800 247.200 304.800 L 239.200 304.800 239.200 296.800 L 239.200 288.800 231.200 288.800 L 223.200 288.800 223.200 280.800 L 223.200 272.800 216.600 272.799 L 210.000 272.798 210.235 287.199 " stroke="none" fill="#8e8e8e" fill-rule="evenodd"></path><path id="path4" d="M192.800 136.400 L 192.800 176.000 200.000 176.000 L 207.200 176.000 207.200 136.400 L 207.200 96.800 200.000 96.800 L 192.800 96.800 192.800 136.400 M176.800 215.840 C 176.800 242.725,177.491 240.800,167.840 240.800 L 160.800 240.800 160.800 247.902 C 160.800 256.569,160.710 256.661,151.960 256.965 L 145.200 257.200 144.971 264.546 L 144.741 271.892 152.916 272.146 C 157.412 272.286,164.432 272.297,168.517 272.171 L 175.943 271.943 176.171 264.171 L 176.400 256.400 184.000 256.000 L 191.600 255.600 191.817 239.772 L 192.034 223.944 200.217 224.172 L 208.400 224.400 208.617 240.170 L 208.834 255.940 216.217 256.170 L 223.600 256.400 224.000 264.000 L 224.400 271.600 240.000 271.818 L 255.600 272.036 255.200 264.618 L 254.800 257.200 248.040 256.965 C 239.290 256.661,239.200 256.569,239.200 247.902 L 239.200 240.800 232.160 240.800 C 222.509 240.800,223.200 242.725,223.200 215.840 L 223.200 192.800 215.630 192.800 L 208.060 192.800 207.830 200.200 L 207.600 207.600 200.000 207.600 L 192.400 207.600 192.170 200.200 L 191.940 192.800 184.370 192.800 L 176.800 192.800 176.800 215.840 M144.000 232.000 L 144.000 240.000 120.000 240.000 L 96.000 240.000 96.000 247.991 L 96.000 255.982 64.200 256.191 L 32.400 256.400 32.171 264.200 L 31.942 272.000 63.771 272.002 L 95.600 272.004 95.342 264.754 C 94.974 254.417,92.946 255.200,120.098 255.200 L 143.200 255.200 143.200 248.160 C 143.200 239.312,143.312 239.200,152.160 239.200 L 159.200 239.200 159.200 231.600 L 159.200 224.000 151.600 224.000 L 144.000 224.000 144.000 232.000 M240.800 231.600 L 240.800 239.200 247.535 239.200 C 257.177 239.200,256.800 238.854,256.800 247.686 L 256.800 255.200 279.535 255.200 C 307.379 255.200,304.800 254.293,304.800 264.086 L 304.800 272.000 336.400 272.000 L 368.000 272.000 368.000 264.009 L 368.000 256.018 336.200 255.809 L 304.400 255.600 304.171 247.812 L 303.942 240.024 280.171 239.812 L 256.400 239.600 256.171 231.800 L 255.942 224.000 248.371 224.000 L 240.800 224.000 240.800 231.600 M192.800 287.840 C 192.800 305.694,193.272 304.800,183.840 304.800 L 176.800 304.800 176.800 311.840 C 176.800 320.671,176.673 320.800,167.964 320.800 L 161.048 320.800 160.524 331.726 C 158.873 366.150,159.289 368.000,168.674 368.000 C 175.316 368.000,175.880 367.280,176.190 358.400 L 176.400 352.400 184.200 352.171 L 192.000 351.942 192.000 358.593 C 192.000 367.101,192.829 368.000,200.674 368.000 C 207.316 368.000,207.880 367.280,208.190 358.400 L 208.400 352.400 216.200 352.171 L 224.000 351.942 224.000 358.593 C 224.000 367.088,224.836 368.000,232.617 368.000 C 240.570 368.000,240.210 369.912,240.033 328.629 L 240.000 320.858 232.200 320.629 L 224.400 320.400 224.171 312.629 L 223.943 304.857 216.171 304.629 L 208.400 304.400 208.183 288.600 L 207.966 272.800 200.383 272.800 L 192.800 272.800 192.800 287.840 " stroke="none" fill="#0024ff" fill-rule="evenodd"></path></g></svg>