<svg id="svg" version="1.1" width="500" height="500" xmlns="http://www.w3.org/2000/svg" xmlns:xlink="http://www.w3.org/1999/xlink" style="display: block;"><g id="svgg"><path id="path0" d="M191.200 15.600 L 191.200 31.200 183.200 31.200 L 175.200 31.200 175.200 55.200 L 175.200 79.200 167.200 79.200 L 159.200 79.200 159.200 127.200 L 159.200 175.200 151.200 175.200 L 143.200 175.200 143.200 199.200 L 143.200 223.200 119.200 223.200 L 95.200 223.200 95.200 231.200 L 95.200 239.200 64.000 239.200 L 32.800 239.200 32.800 231.200 L 32.800 223.200 24.800 223.200 L 16.800 223.200 16.800 215.200 L 16.800 207.200 8.400 207.200 L 0.000 207.200 0.000 256.000 L 0.000 304.800 16.400 304.800 L 32.800 304.800 32.800 296.800 L 32.800 288.800 88.000 288.800 L 143.200 288.800 143.200 296.000 L 143.200 303.200 127.200 303.200 L 111.200 303.200 111.200 336.000 L 111.200 368.800 120.000 368.800 L 128.800 368.800 128.800 360.800 L 128.800 352.800 136.000 352.800 L 143.200 352.800 143.200 360.800 L 143.200 368.800 151.200 368.800 L 159.200 368.800 159.200 376.800 L 159.200 384.800 200.000 384.800 L 240.800 384.800 240.800 376.800 L 240.800 368.800 248.800 368.800 L 256.800 368.800 256.800 360.800 L 256.800 352.800 264.000 352.800 L 271.200 352.800 271.200 360.800 L 271.200 368.800 280.000 368.800 L 288.800 368.800 288.800 336.000 L 288.800 303.200 272.800 303.200 L 256.800 303.200 256.800 296.000 L 256.800 288.800 312.000 288.800 L 367.200 288.800 367.200 296.800 L 367.200 304.800 383.600 304.800 L 400.000 304.800 400.000 256.000 L 400.000 207.200 391.600 207.200 L 383.200 207.200 383.200 215.200 L 383.200 223.200 375.200 223.200 L 367.200 223.200 367.200 231.200 L 367.200 239.200 336.000 239.200 L 304.800 239.200 304.800 231.200 L 304.800 223.200 280.800 223.200 L 256.800 223.200 256.800 199.200 L 256.800 175.200 248.800 175.200 L 240.800 175.200 240.800 127.200 L 240.800 79.200 232.800 79.200 L 224.800 79.200 224.800 55.200 L 224.800 31.200 216.800 31.200 L 208.800 31.200 208.800 15.600 L 208.800 0.000 200.000 0.000 L 191.200 0.000 191.200 15.600 M208.612 55.371 L 208.824 79.142 216.612 79.371 L 224.400 79.600 224.606 127.371 L 224.813 175.142 232.606 175.371 L 240.400 175.600 240.612 199.800 L 240.823 224.000 248.383 224.000 L 255.942 224.000 256.171 231.800 L 256.400 239.600 280.171 239.812 L 303.942 240.024 304.171 247.812 L 304.400 255.600 336.200 255.809 L 368.000 256.018 368.000 263.882 L 368.000 271.746 316.200 272.311 C 287.710 272.621,259.143 272.626,252.719 272.322 C 238.504 271.649,239.688 270.099,240.412 288.432 L 240.993 303.144 248.696 303.372 L 256.400 303.600 256.400 320.000 L 256.400 336.400 248.145 336.629 L 239.889 336.857 240.070 352.548 L 240.251 368.239 232.125 368.320 C 227.212 368.368,223.983 368.084,223.958 367.600 C 223.936 367.160,223.846 363.560,223.759 359.600 L 223.600 352.400 216.000 352.400 L 208.400 352.400 208.378 360.319 L 208.356 368.239 200.178 368.319 C 195.230 368.368,191.983 368.084,191.958 367.600 C 191.936 367.160,191.846 363.560,191.759 359.600 L 191.600 352.400 184.000 352.400 L 176.400 352.400 176.378 360.328 L 176.356 368.256 168.083 368.256 L 159.809 368.256 159.948 352.528 L 160.087 336.800 152.059 336.800 C 142.307 336.800,143.065 338.406,143.373 318.400 L 143.600 303.600 151.314 303.372 L 159.029 303.144 159.609 288.448 C 160.333 270.110,161.508 271.648,147.281 272.322 C 140.857 272.626,112.290 272.621,83.800 272.311 L 32.000 271.746 32.000 263.882 L 32.000 256.018 63.800 255.809 L 95.600 255.600 95.829 247.812 L 96.058 240.024 119.829 239.812 L 143.600 239.600 143.829 231.800 L 144.058 224.000 151.617 224.000 L 159.177 224.000 159.388 199.800 L 159.600 175.600 167.394 175.371 L 175.187 175.142 175.394 127.371 L 175.600 79.600 183.400 79.371 L 191.200 79.142 191.200 55.704 C 191.200 42.814,191.452 32.015,191.760 31.707 C 192.067 31.399,195.937 31.249,200.360 31.374 L 208.400 31.600 208.612 55.371 " stroke="none" fill="#000000" fill-rule="evenodd"></path><path id="path1" d="M191.760 31.707 C 191.452 32.015,191.200 42.814,191.200 55.704 L 191.200 79.142 183.400 79.371 L 175.600 79.600 175.394 127.371 L 175.187 175.142 167.394 175.371 L 159.600 175.600 159.576 200.000 L 159.552 224.400 159.976 200.400 L 160.400 176.400 168.194 176.171 L 175.987 175.942 176.194 128.171 L 176.400 80.400 184.188 80.171 L 191.976 79.942 192.188 56.171 L 192.400 32.400 200.200 32.171 L 208.000 31.942 208.000 55.971 L 208.000 80.000 216.000 80.000 L 224.000 80.000 224.000 128.000 L 224.000 176.000 231.988 176.000 L 239.977 176.000 240.206 199.800 L 240.435 223.600 240.418 199.600 L 240.400 175.600 232.606 175.371 L 224.813 175.142 224.606 127.371 L 224.400 79.600 216.612 79.371 L 208.824 79.142 208.612 55.371 L 208.400 31.600 200.360 31.374 C 195.937 31.249,192.067 31.399,191.760 31.707 M192.533 176.533 C 192.240 176.827,192.000 184.027,192.000 192.533 L 192.000 208.000 200.000 208.000 L 208.000 208.000 208.000 192.000 L 208.000 176.000 200.533 176.000 C 196.427 176.000,192.827 176.240,192.533 176.533 M176.533 256.533 C 176.240 256.827,176.000 260.427,176.000 264.533 L 176.000 272.000 167.553 272.000 C 161.635 272.000,159.268 272.262,159.647 272.876 C 159.945 273.358,159.928 280.366,159.609 288.448 L 159.029 303.144 151.314 303.372 L 143.600 303.600 143.373 318.400 C 143.064 338.460,142.276 336.833,152.215 336.645 L 160.400 336.490 152.400 336.045 L 144.400 335.600 144.400 320.000 L 144.400 304.400 152.171 304.171 L 159.943 303.943 160.171 296.171 L 160.400 288.400 168.200 288.171 L 176.000 287.942 176.000 279.971 L 176.000 272.000 184.000 272.000 L 192.000 272.000 192.000 264.000 L 192.000 256.000 184.533 256.000 C 180.427 256.000,176.827 256.240,176.533 256.533 M208.000 264.000 L 208.000 272.000 215.971 272.000 L 223.942 272.000 224.171 279.800 L 224.400 287.600 232.000 288.000 L 239.600 288.400 239.829 296.171 L 240.057 303.943 247.829 304.171 L 255.600 304.400 255.600 320.000 L 255.600 335.600 247.600 336.060 L 239.600 336.520 248.000 336.460 L 256.400 336.400 256.400 320.000 L 256.400 303.600 248.696 303.372 L 240.993 303.144 240.412 288.432 C 240.093 280.341,240.070 273.333,240.363 272.860 C 240.729 272.267,238.269 272.000,232.447 272.000 L 224.000 272.000 224.000 264.000 L 224.000 256.000 216.000 256.000 L 208.000 256.000 208.000 264.000 M107.400 272.598 C 114.330 272.732,125.670 272.732,132.600 272.598 C 139.530 272.465,133.860 272.356,120.000 272.356 C 106.140 272.356,100.470 272.465,107.400 272.598 M267.400 272.598 C 274.330 272.732,285.670 272.732,292.600 272.598 C 299.530 272.465,293.860 272.356,280.000 272.356 C 266.140 272.356,260.470 272.465,267.400 272.598 M159.600 366.400 C 158.891 367.548,159.867 368.804,161.447 368.776 C 162.678 368.754,162.672 368.677,161.383 367.927 C 160.604 367.473,160.175 366.764,160.430 366.351 C 160.686 365.938,160.714 365.600,160.494 365.600 C 160.274 365.600,159.872 365.960,159.600 366.400 M175.400 366.600 C 175.510 367.150,175.150 367.510,174.600 367.400 C 174.050 367.290,173.600 367.586,173.600 368.059 C 173.600 368.531,174.226 368.797,174.991 368.649 C 176.500 368.359,177.466 365.600,176.059 365.600 C 175.586 365.600,175.290 366.050,175.400 366.600 M191.788 366.078 C 190.945 366.922,192.127 368.801,193.486 368.776 C 194.642 368.754,194.629 368.652,193.383 367.927 C 192.604 367.473,192.175 366.764,192.430 366.351 C 192.947 365.514,192.530 365.337,191.788 366.078 M207.400 366.600 C 207.510 367.150,207.150 367.510,206.600 367.400 C 206.050 367.290,205.600 367.586,205.600 368.059 C 205.600 368.531,206.226 368.797,206.991 368.649 C 208.500 368.359,209.466 365.600,208.059 365.600 C 207.586 365.600,207.290 366.050,207.400 366.600 M223.788 366.078 C 222.945 366.922,224.127 368.801,225.486 368.776 C 226.642 368.754,226.629 368.652,225.383 367.927 C 224.604 367.473,224.175 366.764,224.430 366.351 C 224.947 365.514,224.530 365.337,223.788 366.078 M239.400 366.600 C 239.510 367.150,239.150 367.510,238.600 367.400 C 238.050 367.290,237.600 367.586,237.600 368.059 C 237.600 368.531,238.226 368.797,238.991 368.649 C 240.500 368.359,241.466 365.600,240.059 365.600 C 239.586 365.600,239.290 366.050,239.400 366.600 " stroke="none" fill="#3a3a3a" fill-rule="evenodd"></path><path id="path2" d="M192.533 32.533 C 192.240 32.827,192.000 43.614,192.000 56.504 L 192.000 79.942 184.200 80.171 L 176.400 80.400 176.194 128.171 L 175.987 175.942 168.194 176.171 L 160.400 176.400 160.382 200.400 L 160.365 224.400 160.594 200.629 L 160.823 176.858 168.612 176.629 L 176.400 176.400 176.606 128.629 L 176.813 80.858 184.606 80.629 L 192.400 80.400 192.612 56.600 L 192.824 32.800 200.000 32.800 L 207.176 32.800 207.388 56.600 L 207.600 80.400 215.394 80.629 L 223.187 80.858 223.394 128.629 L 223.600 176.400 231.400 176.629 L 239.200 176.858 239.200 200.829 C 239.200 214.013,239.470 224.800,239.800 224.800 C 240.130 224.801,240.300 213.821,240.177 200.400 L 239.955 176.000 231.977 176.000 L 224.000 176.000 224.000 128.000 L 224.000 80.000 216.000 80.000 L 208.000 80.000 208.000 56.000 L 208.000 32.000 200.533 32.000 C 196.427 32.000,192.827 32.240,192.533 32.533 M208.303 184.000 C 208.303 189.060,208.432 191.130,208.591 188.600 C 208.750 186.070,208.750 181.930,208.591 179.400 C 208.432 176.870,208.303 178.940,208.303 184.000 M191.334 184.600 C 191.471 193.336,191.786 192.294,192.181 181.798 C 192.302 178.607,192.130 175.997,191.800 175.998 C 191.470 175.999,191.261 179.870,191.334 184.600 M192.533 224.533 C 192.240 224.827,192.000 235.627,192.000 248.533 L 192.000 272.000 184.000 272.000 L 176.000 272.000 176.000 279.971 L 176.000 287.942 168.200 288.171 L 160.400 288.400 160.171 296.171 L 159.943 303.943 152.171 304.171 L 144.400 304.400 144.400 320.000 L 144.400 335.600 152.171 335.829 L 159.941 336.057 160.171 328.229 L 160.400 320.400 168.171 320.171 L 175.943 319.943 176.171 312.171 L 176.400 304.400 184.183 304.171 L 191.966 303.942 192.183 288.171 L 192.400 272.400 200.200 272.171 L 208.000 271.942 208.000 287.971 L 208.000 304.000 216.000 304.000 L 224.000 304.000 224.000 312.000 L 224.000 320.000 232.000 320.000 L 240.000 320.000 240.000 328.029 L 240.000 336.058 247.800 335.829 L 255.600 335.600 255.600 320.000 L 255.600 304.400 247.829 304.171 L 240.057 303.943 239.829 296.171 L 239.600 288.400 232.000 288.000 L 224.400 287.600 224.171 279.800 L 223.942 272.000 215.995 272.000 L 208.048 272.000 208.026 248.727 C 208.014 235.926,207.802 225.126,207.555 224.727 C 207.042 223.897,193.346 223.721,192.533 224.533 M143.678 255.873 C 142.908 257.120,144.369 258.256,145.364 257.183 C 146.121 256.368,146.084 256.050,145.190 255.707 C 144.564 255.467,143.883 255.541,143.678 255.873 M254.362 256.041 C 253.406 256.645,253.457 256.778,254.647 256.788 C 255.443 256.794,255.872 257.160,255.600 257.600 C 255.328 258.040,255.487 258.400,255.953 258.400 C 256.938 258.400,257.102 256.281,256.162 255.700 C 255.811 255.483,255.001 255.636,254.362 256.041 M207.198 263.200 L 207.200 270.000 200.000 270.000 L 192.800 270.000 192.799 263.200 L 192.799 256.400 199.998 256.400 L 207.197 256.400 207.198 263.200 M107.800 271.798 C 114.510 271.932,125.490 271.932,132.200 271.798 C 138.910 271.665,133.420 271.555,120.000 271.555 C 106.580 271.555,101.090 271.665,107.800 271.798 M267.800 271.798 C 274.510 271.932,285.490 271.932,292.200 271.798 C 298.910 271.665,293.420 271.555,280.000 271.555 C 266.580 271.555,261.090 271.665,267.800 271.798 M189.765 287.199 L 189.530 301.600 182.708 301.600 C 173.881 301.600,173.600 301.882,173.600 310.743 L 173.600 317.600 166.743 317.600 C 161.867 317.600,159.556 317.930,158.743 318.743 C 157.278 320.208,157.129 332.809,158.560 334.240 C 159.307 334.987,157.884 335.200,152.160 335.200 L 144.800 335.200 144.800 320.000 L 144.800 304.800 152.800 304.800 L 160.800 304.800 160.800 296.800 L 160.800 288.800 168.800 288.800 L 176.800 288.800 176.800 280.800 L 176.800 272.800 183.400 272.799 L 190.000 272.798 189.765 287.199 M223.200 280.800 L 223.200 288.800 231.200 288.800 L 239.200 288.800 239.200 296.800 L 239.200 304.800 247.200 304.800 L 255.200 304.800 255.200 320.000 L 255.200 335.200 248.600 335.202 L 242.000 335.204 242.255 327.600 C 242.583 317.817,242.388 317.600,233.257 317.600 L 226.400 317.600 226.400 310.743 C 226.400 301.882,226.119 301.600,217.292 301.600 L 210.470 301.600 210.235 287.199 L 210.000 272.798 216.600 272.799 L 223.200 272.800 223.200 280.800 " stroke="none" fill="#6f6f6f" fill-rule="evenodd"></path><path id="path3" d="M192.612 56.600 L 192.400 80.400 184.606 80.629 L 176.813 80.858 176.606 128.629 L 176.400 176.400 168.600 176.629 L 160.800 176.858 160.797 197.029 C 160.795 208.123,160.560 222.318,160.274 228.573 L 159.754 239.945 152.077 240.173 L 144.400 240.400 144.400 248.000 L 144.400 255.600 152.200 255.829 L 160.000 256.058 160.000 248.029 L 160.000 240.000 167.988 240.000 L 175.976 240.000 176.188 216.200 L 176.400 192.400 183.800 192.170 L 191.200 191.940 191.315 188.970 C 191.378 187.336,191.648 165.840,191.915 141.200 L 192.400 96.400 200.000 96.400 L 207.600 96.400 208.086 140.800 C 208.353 165.220,208.623 186.730,208.686 188.600 L 208.800 192.000 216.400 192.000 L 224.000 192.000 224.000 216.000 L 224.000 240.000 232.000 240.000 L 240.000 240.000 240.000 248.029 L 240.000 256.058 247.800 255.829 L 255.600 255.600 255.600 248.000 L 255.600 240.400 247.923 240.173 L 240.246 239.945 239.726 228.573 C 239.440 222.318,239.205 208.123,239.203 197.029 L 239.200 176.858 231.400 176.629 L 223.600 176.400 223.394 128.629 L 223.187 80.858 215.394 80.629 L 207.600 80.400 207.388 56.600 L 207.176 32.800 200.000 32.800 L 192.824 32.800 192.612 56.600 M96.545 256.521 C 96.245 256.821,96.000 260.247,96.000 264.133 L 96.000 271.200 120.030 271.200 L 144.060 271.200 143.830 263.800 L 143.600 256.400 120.345 256.188 C 107.555 256.072,96.845 256.222,96.545 256.521 M192.799 263.200 L 192.800 270.000 200.000 270.000 L 207.200 270.000 207.198 263.200 L 207.197 256.400 199.998 256.400 L 192.799 256.400 192.799 263.200 M256.507 257.788 C 256.240 258.785,256.017 262.210,256.011 265.400 L 256.000 271.200 280.030 271.200 L 304.060 271.200 303.830 263.800 L 303.600 256.400 280.296 256.188 L 256.993 255.976 256.507 257.788 M176.800 280.800 L 176.800 288.800 168.800 288.800 L 160.800 288.800 160.800 296.800 L 160.800 304.800 152.800 304.800 L 144.800 304.800 144.800 320.000 L 144.800 335.200 152.160 335.200 C 157.884 335.200,159.307 334.987,158.560 334.240 C 157.129 332.809,157.278 320.208,158.743 318.743 C 159.556 317.930,161.867 317.600,166.743 317.600 L 173.600 317.600 173.600 310.743 C 173.600 301.882,173.881 301.600,182.708 301.600 L 189.530 301.600 189.765 287.199 L 190.000 272.798 183.400 272.799 L 176.800 272.800 176.800 280.800 M210.235 287.199 L 210.470 301.600 217.292 301.600 C 226.119 301.600,226.400 301.882,226.400 310.743 L 226.400 317.600 233.257 317.600 C 242.388 317.600,242.583 317.817,242.255 327.600 L 242.000 335.204 248.600 335.202 L 255.200 335.200 255.200 320.000 L 255.200 304.800 247.200 304.800 L 239.200 304.800 239.200 296.800 L 239.200 288.800 231.200 288.800 L 223.200 288.800 223.200 280.800 L 223.200 272.800 216.600 272.799 L 210.000 272.798 210.235 287.199 " stroke="none" fill="#8e8e8e" fill-rule="evenodd"></path><path id="path4" d="M192.561 96.505 C 192.253 96.814,192.000 114.827,192.000 136.533 L 192.000 176.000 200.007 176.000 L 208.015 176.000 207.807 136.200 L 207.600 96.400 200.361 96.172 C 196.380 96.047,192.870 96.197,192.561 96.505 M176.561 192.505 C 176.253 192.814,176.000 203.627,176.000 216.533 L 176.000 240.000 168.000 240.000 L 160.000 240.000 160.000 231.971 L 160.000 223.942 152.200 224.171 L 144.400 224.400 144.171 232.188 L 143.942 239.976 120.171 240.188 L 96.400 240.400 96.171 248.191 L 95.942 255.982 64.171 256.191 L 32.400 256.400 32.400 264.000 L 32.400 271.600 64.200 271.809 L 96.000 272.018 96.000 264.009 L 96.000 256.000 120.000 256.000 L 144.000 256.000 144.000 248.000 L 144.000 240.000 152.000 240.000 L 160.000 240.000 160.000 248.000 L 160.000 256.000 153.324 256.000 C 144.571 256.000,144.000 256.580,144.000 265.463 L 144.000 272.000 159.971 272.000 L 175.942 272.000 176.171 264.200 L 176.400 256.400 184.183 256.171 L 191.966 255.942 192.183 240.171 L 192.400 224.400 200.000 224.400 L 207.600 224.400 208.000 240.000 L 208.400 255.600 216.200 255.829 L 224.000 256.058 224.000 264.029 L 224.000 272.000 240.000 272.000 L 256.000 272.000 256.000 265.324 C 256.000 256.571,255.420 256.000,246.537 256.000 L 240.000 256.000 240.000 248.000 L 240.000 240.000 248.000 240.000 L 256.000 240.000 256.000 248.000 L 256.000 256.000 280.000 256.000 L 304.000 256.000 304.000 264.009 L 304.000 272.018 335.800 271.809 L 367.600 271.600 367.600 264.000 L 367.600 256.400 335.829 256.191 L 304.058 255.982 303.829 248.191 L 303.600 240.400 279.829 240.188 L 256.058 239.976 255.829 232.188 L 255.600 224.400 248.000 224.400 L 240.400 224.400 240.171 232.200 L 239.942 240.000 231.971 240.000 L 224.000 240.000 224.000 215.971 L 224.000 191.942 216.200 192.171 L 208.400 192.400 208.171 200.200 L 207.942 208.000 200.000 208.000 L 192.058 208.000 191.829 200.200 L 191.600 192.400 184.361 192.172 C 180.380 192.047,176.870 192.197,176.561 192.505 M192.533 272.533 C 192.240 272.827,192.000 280.014,192.000 288.504 L 192.000 303.942 184.200 304.171 L 176.400 304.400 176.171 312.171 L 175.943 319.943 168.171 320.171 L 160.400 320.400 160.187 342.723 C 159.935 369.138,159.583 368.000,168.000 368.000 C 175.262 368.000,176.000 367.127,176.000 358.537 L 176.000 352.000 184.000 352.000 L 192.000 352.000 192.000 358.676 C 192.000 367.149,192.743 368.000,200.139 368.000 C 207.245 368.000,208.000 367.091,208.000 358.537 L 208.000 352.000 216.000 352.000 L 224.000 352.000 224.000 358.676 C 224.000 367.149,224.743 368.000,232.139 368.000 C 240.342 368.000,240.000 369.107,240.000 342.537 L 240.000 320.000 232.000 320.000 L 224.000 320.000 224.000 312.000 L 224.000 304.000 216.000 304.000 L 208.000 304.000 208.000 288.000 L 208.000 272.000 200.533 272.000 C 196.427 272.000,192.827 272.240,192.533 272.533 " stroke="none" fill="#108500" fill-rule="evenodd"></path></g></svg>