<svg id="svg" version="1.1" width="500" height="500" xmlns="http://www.w3.org/2000/svg" xmlns:xlink="http://www.w3.org/1999/xlink" style="display: block;"><g id="svgg"><path id="path0" d="M114.800 63.955 L 106.800 64.400 106.400 85.200 L 106.000 106.000 89.200 106.000 C 79.960 106.000,68.350 106.090,63.400 106.200 L 54.400 106.400 54.400 115.840 C 54.400 128.331,57.163 127.200,26.640 127.200 L 0.800 127.200 0.800 168.400 L 0.800 209.600 9.800 209.600 L 18.800 209.599 18.519 220.029 L 18.238 230.458 26.519 230.229 L 34.800 230.000 35.024 219.800 L 35.248 209.600 44.818 209.600 L 54.388 209.600 54.594 262.200 L 54.800 314.800 62.400 314.800 L 70.000 314.800 70.400 220.800 C 70.620 169.100,71.091 126.350,71.447 125.800 C 72.388 124.346,87.484 124.414,88.699 125.878 C 89.344 126.656,89.650 153.087,89.797 220.878 L 90.000 314.800 95.600 315.046 C 98.680 315.182,102.382 315.073,103.827 314.805 L 106.454 314.317 106.227 272.358 L 106.000 230.399 114.596 230.400 L 123.192 230.400 123.396 157.400 L 123.600 84.400 140.800 84.400 L 158.000 84.400 158.224 94.600 L 158.448 104.800 166.424 104.800 L 174.400 104.800 174.400 84.524 L 174.400 64.249 163.000 63.727 C 150.444 63.153,127.247 63.262,114.800 63.955 M236.600 63.796 L 228.800 64.058 228.800 84.429 L 228.800 104.800 236.776 104.800 L 244.752 104.800 244.976 94.600 L 245.200 84.400 262.400 84.400 L 279.600 84.400 279.804 157.400 L 280.008 230.400 288.604 230.400 L 297.200 230.399 296.973 272.358 L 296.746 314.317 299.373 314.805 C 300.818 315.073,304.520 315.182,307.600 315.046 L 313.200 314.800 313.403 220.878 C 313.550 153.087,313.856 126.656,314.501 125.878 C 315.716 124.414,330.812 124.346,331.753 125.800 C 332.109 126.350,332.580 169.100,332.800 220.800 L 333.200 314.800 340.800 314.800 L 348.400 314.800 348.606 262.200 L 348.812 209.600 358.382 209.600 L 367.952 209.600 368.176 219.800 L 368.400 230.000 376.681 230.229 L 384.962 230.458 384.681 220.029 L 384.400 209.599 392.200 209.600 L 400.000 209.600 400.000 168.400 L 400.000 127.200 375.360 127.200 C 346.206 127.200,348.800 128.309,348.800 115.840 L 348.800 106.400 339.800 106.200 C 334.850 106.090,323.240 106.000,314.000 106.000 L 297.200 106.000 296.800 85.200 L 296.400 64.400 287.600 63.902 C 278.558 63.390,250.456 63.332,236.600 63.796 M176.494 106.247 C 176.274 106.603,176.027 110.833,175.944 115.647 L 175.794 124.400 201.600 124.400 L 227.406 124.400 227.256 115.647 C 227.173 110.833,226.926 106.603,226.706 106.247 C 226.183 105.401,177.017 105.401,176.494 106.247 M54.225 167.200 C 54.349 177.980,54.252 187.610,54.010 188.600 C 53.570 190.397,53.542 190.400,36.385 190.400 L 19.200 190.400 19.200 168.784 L 19.200 147.169 36.600 147.384 L 54.000 147.600 54.225 167.200 M384.000 168.800 L 384.000 190.400 366.886 190.400 C 352.017 190.400,349.707 190.234,349.286 189.135 C 348.622 187.405,348.667 148.400,349.333 147.733 C 349.627 147.440,357.547 147.200,366.933 147.200 L 384.000 147.200 384.000 168.800 M158.933 190.933 C 158.640 191.227,158.400 195.714,158.400 200.906 L 158.400 210.346 149.800 210.573 L 141.200 210.800 140.975 220.600 L 140.751 230.400 149.375 230.400 L 158.000 230.399 157.764 261.330 C 157.492 296.950,156.524 293.570,167.000 293.588 L 174.400 293.600 174.400 242.000 L 174.400 190.400 166.933 190.400 C 162.827 190.400,159.227 190.640,158.933 190.933 M228.800 241.971 L 228.800 293.600 236.200 293.588 C 246.676 293.570,245.708 296.950,245.436 261.330 L 245.200 230.399 253.825 230.400 L 262.449 230.400 262.225 220.600 L 262.000 210.800 253.424 210.573 L 244.849 210.346 244.624 200.573 L 244.400 190.800 236.600 190.571 L 228.800 190.342 228.800 241.971 M122.958 232.509 C 122.651 232.816,122.400 242.007,122.400 252.933 L 122.400 272.800 132.014 272.800 L 141.627 272.800 141.414 252.600 L 141.200 232.400 132.358 232.175 C 127.495 232.052,123.265 232.202,122.958 232.509 M262.158 232.509 C 261.851 232.816,261.600 242.007,261.600 252.933 L 261.600 272.800 271.214 272.800 L 280.827 272.800 280.614 252.600 L 280.400 232.400 271.558 232.175 C 266.695 232.052,262.465 232.202,262.158 232.509 M176.332 296.400 C 176.113 297.280,176.038 301.780,176.167 306.400 L 176.400 314.800 184.800 315.200 L 193.200 315.600 193.407 357.800 L 193.614 400.000 201.600 400.000 L 209.586 400.000 209.793 357.800 L 210.000 315.600 218.400 315.200 L 226.800 314.800 227.033 306.400 C 227.395 293.364,230.543 294.800,201.600 294.800 C 177.396 294.800,176.719 294.843,176.332 296.400 M72.000 336.238 C 72.000 347.400,72.148 356.683,72.330 356.867 C 72.511 357.050,76.021 357.020,80.130 356.800 L 87.600 356.400 87.600 336.400 L 87.600 316.400 79.800 316.171 L 72.000 315.942 72.000 336.238 M315.733 316.533 C 314.970 317.296,315.071 355.826,315.837 356.299 C 316.188 356.516,319.698 356.771,323.637 356.866 L 330.800 357.038 331.014 336.519 L 331.227 316.000 323.747 316.000 C 319.633 316.000,316.027 316.240,315.733 316.533 " stroke="none" fill="#000000" fill-rule="evenodd"></path><path id="path1" d="M105.413 83.587 L 105.200 105.200 96.946 105.321 C 92.406 105.387,88.464 105.669,88.185 105.948 C 87.906 106.227,91.800 106.353,96.839 106.228 L 106.000 106.000 106.213 85.000 C 106.331 73.450,106.691 63.950,107.013 63.888 C 107.336 63.827,122.156 63.718,139.947 63.646 C 159.477 63.567,172.395 63.215,172.547 62.758 C 172.704 62.289,159.996 61.995,139.212 61.987 L 105.625 61.973 105.413 83.587 M173.668 62.400 C 173.693 63.060,174.022 64.320,174.400 65.200 L 175.088 66.800 175.132 65.200 C 175.156 64.320,174.827 63.060,174.400 62.400 C 173.711 61.333,173.629 61.333,173.668 62.400 M228.547 62.706 C 228.246 63.490,228.023 64.731,228.051 65.465 C 228.084 66.349,228.362 66.148,228.874 64.869 C 229.298 63.806,229.521 62.564,229.370 62.109 C 229.218 61.654,228.848 61.922,228.547 62.706 M230.653 62.758 C 230.805 63.215,243.723 63.567,263.253 63.646 C 281.044 63.718,295.864 63.827,296.187 63.888 C 296.509 63.950,296.869 73.450,296.987 85.000 L 297.200 106.000 306.361 106.228 C 311.400 106.353,315.294 106.227,315.015 105.948 C 314.736 105.669,310.794 105.387,306.254 105.321 L 298.000 105.200 297.787 83.587 L 297.575 61.973 263.988 61.987 C 243.204 61.995,230.496 62.289,230.653 62.758 M174.575 95.333 C 174.448 103.834,174.124 107.178,173.400 107.472 C 172.648 107.778,172.697 108.086,173.600 108.719 C 174.534 109.373,174.857 109.209,175.056 107.979 C 175.196 107.111,175.736 106.394,176.256 106.388 C 176.955 106.379,176.947 106.215,176.224 105.756 C 175.558 105.332,175.170 101.727,174.999 94.368 L 174.749 83.600 174.575 95.333 M228.176 94.600 C 228.045 102.765,227.742 105.603,227.000 105.612 C 226.283 105.621,226.257 105.791,226.907 106.212 C 227.407 106.536,227.947 107.421,228.107 108.179 C 228.324 109.200,228.711 109.356,229.600 108.779 C 230.512 108.187,230.565 107.848,229.823 107.367 C 229.148 106.930,228.770 103.159,228.599 95.167 L 228.352 83.600 228.176 94.600 M156.800 104.702 C 156.800 105.725,159.152 107.514,159.733 106.933 C 160.314 106.352,158.525 104.000,157.502 104.000 C 157.116 104.000,156.800 104.316,156.800 104.702 M243.984 105.219 C 243.427 105.890,243.195 106.661,243.467 106.933 C 244.048 107.514,246.400 105.725,246.400 104.702 C 246.400 103.600,245.096 103.879,243.984 105.219 M51.999 114.600 L 52.000 124.000 26.400 124.000 C 1.333 124.000,0.800 124.033,0.800 125.600 C 0.800 127.553,51.510 128.170,53.440 126.240 C 54.078 125.602,54.400 122.116,54.400 115.840 L 54.400 106.400 63.333 106.400 C 75.259 106.400,73.993 105.602,61.710 105.378 L 51.999 105.200 51.999 114.600 M331.478 105.800 C 331.273 106.130,335.087 106.400,339.953 106.400 L 348.800 106.400 348.800 115.840 C 348.800 122.116,349.122 125.602,349.760 126.240 C 351.688 128.168,400.000 127.553,400.000 125.600 C 400.000 124.035,399.467 124.000,375.600 124.000 L 351.200 124.000 351.201 114.600 L 351.201 105.200 341.526 105.200 C 336.204 105.200,331.683 105.470,331.478 105.800 M173.455 123.459 C 172.547 124.367,170.261 124.810,165.491 125.003 L 158.800 125.274 166.040 125.437 C 175.847 125.658,175.200 124.115,175.200 147.262 C 175.200 170.333,175.953 168.636,165.557 169.002 L 158.000 169.268 166.040 169.434 C 176.804 169.656,176.000 171.464,176.000 147.040 L 176.000 126.400 201.600 126.400 L 227.200 126.400 227.200 147.040 C 227.200 171.464,226.396 169.656,237.160 169.434 L 245.200 169.268 237.643 169.002 C 227.247 168.636,228.000 170.333,228.000 147.262 C 228.000 124.115,227.353 125.658,237.160 125.437 L 244.400 125.274 237.709 125.003 C 232.939 124.810,230.653 124.367,229.745 123.459 C 228.701 122.416,228.407 122.386,228.116 123.293 C 227.428 125.435,225.791 125.575,201.600 125.575 C 177.409 125.575,175.772 125.435,175.084 123.293 C 174.793 122.386,174.499 122.416,173.455 123.459 M79.803 126.182 L 88.005 126.456 87.803 241.828 L 87.600 357.200 80.000 357.200 L 72.400 357.200 72.186 336.899 C 72.029 321.983,72.227 316.290,72.935 315.438 C 73.694 314.523,73.657 314.130,72.760 313.575 C 72.010 313.112,71.401 313.269,70.972 314.036 C 70.470 314.933,68.495 315.200,62.366 315.200 L 54.412 315.200 54.206 262.600 L 54.000 210.000 44.600 209.775 L 35.200 209.549 35.200 219.975 L 35.200 230.400 26.800 230.400 C 19.867 230.400,18.400 230.610,18.400 231.600 C 18.400 232.590,19.867 232.800,26.800 232.800 C 31.436 232.800,35.200 232.467,35.200 232.057 C 35.200 231.649,35.766 230.749,36.457 230.057 C 37.149 229.366,37.329 228.800,36.857 228.800 C 35.934 228.800,35.612 213.941,36.486 211.665 C 36.881 210.636,38.371 210.400,44.486 210.400 L 52.000 210.400 52.000 262.714 C 52.000 309.680,52.129 315.078,53.265 315.514 C 53.961 315.781,57.921 316.000,62.065 316.000 L 69.600 316.000 69.600 336.714 C 69.600 360.924,68.297 358.526,81.357 358.345 L 90.400 358.220 90.400 337.110 L 90.400 316.000 98.400 316.000 C 102.800 316.000,106.400 315.721,106.400 315.380 C 106.400 315.039,102.621 314.899,98.003 315.070 L 89.607 315.381 89.403 220.691 L 89.200 126.000 80.400 125.954 L 71.600 125.908 79.803 126.182 M314.133 126.133 C 313.840 126.427,313.600 169.127,313.600 221.024 L 313.600 315.381 305.200 315.071 C 300.580 314.900,296.800 315.039,296.800 315.380 C 296.800 315.721,300.400 316.000,304.800 316.000 L 312.800 316.000 312.800 337.110 L 312.800 358.220 321.843 358.345 C 334.903 358.526,333.600 360.924,333.600 336.714 L 333.600 316.000 341.135 316.000 C 345.279 316.000,349.239 315.781,349.935 315.514 C 351.071 315.078,351.200 309.680,351.200 262.714 L 351.200 210.400 358.714 210.400 C 364.829 210.400,366.319 210.636,366.714 211.665 C 367.588 213.941,367.266 228.800,366.343 228.800 C 365.871 228.800,366.051 229.366,366.743 230.057 C 367.434 230.749,368.000 231.649,368.000 232.057 C 368.000 232.467,371.764 232.800,376.400 232.800 C 383.333 232.800,384.800 232.590,384.800 231.600 C 384.800 230.610,383.333 230.400,376.400 230.400 L 368.000 230.400 368.000 219.975 L 368.000 209.549 358.600 209.775 L 349.200 210.000 348.994 262.600 L 348.788 315.200 340.834 315.200 C 334.705 315.200,332.730 314.933,332.228 314.036 C 331.799 313.269,331.190 313.112,330.440 313.575 C 329.543 314.130,329.506 314.523,330.265 315.438 C 330.973 316.290,331.171 321.983,331.014 336.899 L 330.800 357.200 323.200 357.200 L 315.600 357.200 315.397 241.828 L 315.195 126.456 323.397 126.197 L 331.600 125.937 323.133 125.769 C 318.477 125.676,314.427 125.840,314.133 126.133 M52.433 187.947 C 52.087 188.506,46.272 188.800,35.553 188.800 C 25.184 188.800,19.200 189.093,19.200 189.600 C 19.200 191.072,52.756 190.645,53.324 189.165 C 53.889 187.692,53.185 186.729,52.433 187.947 M349.733 188.400 C 350.060 190.217,384.000 191.421,384.000 189.616 C 384.000 189.088,378.264 188.800,367.760 188.800 C 355.855 188.800,351.243 188.533,350.482 187.800 C 349.643 186.991,349.500 187.106,349.733 188.400 M158.000 189.600 C 157.682 190.114,160.525 190.400,165.953 190.400 L 174.400 190.400 174.400 221.153 C 174.400 240.792,174.689 252.084,175.200 252.400 C 176.604 253.268,176.265 191.350,174.857 189.943 C 173.504 188.590,158.809 188.291,158.000 189.600 M228.200 189.997 C 226.920 191.450,226.722 253.190,228.000 252.400 C 228.511 252.084,228.800 240.792,228.800 221.153 L 228.800 190.400 237.247 190.400 C 242.675 190.400,245.518 190.114,245.200 189.600 C 244.393 188.294,229.391 188.644,228.200 189.997 M9.171 210.199 C 14.922 210.368,18.154 210.792,18.558 211.429 C 18.984 212.098,19.179 211.965,19.188 211.000 C 19.199 209.736,18.288 209.616,9.800 209.770 L 0.400 209.940 9.171 210.199 M384.012 211.000 C 384.021 211.960,384.218 212.096,384.639 211.432 C 385.028 210.821,388.042 210.367,392.827 210.198 L 400.400 209.932 392.200 209.766 C 384.857 209.617,384.001 209.746,384.012 211.000 M122.400 230.400 C 95.790 231.049,102.275 232.400,132.000 232.400 C 148.528 232.400,157.603 232.117,157.607 231.600 C 157.618 230.466,141.807 229.927,122.400 230.400 M254.400 230.400 C 248.860 230.641,245.280 231.118,245.400 231.600 C 245.528 232.113,254.800 232.400,271.200 232.400 C 287.600 232.400,296.872 232.113,297.000 231.600 C 297.241 230.636,267.947 229.811,254.400 230.400 M122.400 274.400 C 122.400 275.911,122.933 276.000,132.000 276.000 C 141.327 276.000,144.616 274.929,140.335 273.286 C 136.691 271.888,122.400 272.776,122.400 274.400 M262.600 273.330 C 258.615 274.938,262.035 276.000,271.200 276.000 C 280.267 276.000,280.800 275.911,280.800 274.400 C 280.800 272.835,265.984 271.964,262.600 273.330 M174.886 274.865 C 174.619 275.561,174.400 280.151,174.401 285.065 L 174.402 294.000 166.201 293.931 C 161.091 293.888,160.262 293.964,164.000 294.133 C 174.387 294.601,173.600 293.699,173.600 305.122 C 173.600 316.702,172.888 315.971,184.200 315.989 L 191.200 316.000 191.200 358.000 C 191.200 394.909,191.346 400.000,192.407 400.000 C 193.471 400.000,193.590 394.979,193.407 357.800 L 193.200 315.600 184.800 315.200 L 176.400 314.800 176.174 305.313 C 176.011 298.489,176.236 295.478,176.974 294.583 C 177.789 293.596,177.794 293.271,177.000 293.003 C 176.282 292.761,176.000 290.207,176.000 283.933 L 176.000 275.200 201.600 275.200 L 227.200 275.200 227.200 283.933 C 227.200 290.207,226.918 292.761,226.200 293.003 C 225.406 293.271,225.411 293.596,226.226 294.583 C 226.964 295.478,227.189 298.489,227.026 305.313 L 226.800 314.800 218.400 315.200 L 210.000 315.600 209.793 357.800 C 209.610 394.979,209.729 400.000,210.793 400.000 C 211.854 400.000,212.000 394.909,212.000 358.000 L 212.000 316.000 219.000 315.989 C 230.312 315.971,229.600 316.702,229.600 305.122 C 229.600 293.699,228.813 294.601,239.200 294.133 C 242.938 293.964,242.109 293.888,236.999 293.931 L 228.798 294.000 228.799 285.065 C 228.800 280.151,228.581 275.561,228.314 274.865 C 227.576 272.942,175.624 272.942,174.886 274.865 " stroke="none" fill="#777777" fill-rule="evenodd"></path><path id="path2" d="M158.400 30.800 C 158.400 57.644,158.554 61.600,159.600 61.600 C 160.646 61.600,160.800 57.644,160.800 30.800 C 160.800 3.956,160.646 0.000,159.600 0.000 C 158.554 0.000,158.400 3.956,158.400 30.800 M242.400 30.800 C 242.400 57.644,242.554 61.600,243.600 61.600 C 244.646 61.600,244.800 57.644,244.800 30.800 C 244.800 3.956,244.646 0.000,243.600 0.000 C 242.554 0.000,242.400 3.956,242.400 30.800 M131.600 20.800 L 124.400 21.298 132.200 21.449 C 136.967 21.541,140.000 21.289,140.000 20.800 C 140.000 20.360,139.730 20.068,139.400 20.151 C 139.070 20.234,135.560 20.526,131.600 20.800 M191.200 21.200 C 191.200 21.860,191.740 22.400,192.400 22.400 C 193.060 22.400,193.600 21.860,193.600 21.200 C 193.600 20.540,193.060 20.000,192.400 20.000 C 191.740 20.000,191.200 20.540,191.200 21.200 M209.600 21.200 C 209.600 21.860,210.140 22.400,210.800 22.400 C 211.460 22.400,212.000 21.860,212.000 21.200 C 212.000 20.540,211.460 20.000,210.800 20.000 C 210.140 20.000,209.600 20.540,209.600 21.200 M263.200 20.984 C 263.200 21.323,266.710 21.551,271.000 21.491 C 279.615 21.371,278.942 21.004,269.400 20.619 C 265.990 20.481,263.200 20.646,263.200 20.984 M69.600 61.600 C 69.600 76.000,69.886 84.000,70.400 84.000 C 70.912 84.000,71.200 76.822,71.200 64.065 C 71.200 53.101,71.419 43.561,71.686 42.865 C 72.374 41.072,86.502 41.017,88.286 42.800 C 90.011 44.526,90.400 44.305,90.400 41.600 L 90.400 39.200 80.000 39.200 L 69.600 39.200 69.600 61.600 M173.600 41.600 C 173.600 44.305,173.989 44.526,175.714 42.800 C 176.611 41.903,178.819 41.600,184.457 41.600 C 190.629 41.600,192.000 41.382,192.000 40.400 C 192.000 39.403,190.444 39.200,182.800 39.200 L 173.600 39.200 173.600 41.600 M211.200 40.400 C 211.200 41.382,212.571 41.600,218.743 41.600 C 224.381 41.600,226.589 41.903,227.486 42.800 C 229.211 44.526,229.600 44.305,229.600 41.600 L 229.600 39.200 220.400 39.200 C 212.756 39.200,211.200 39.403,211.200 40.400 M312.800 41.600 C 312.800 44.305,313.189 44.526,314.914 42.800 C 316.698 41.017,330.826 41.072,331.514 42.865 C 331.781 43.561,332.000 53.101,332.000 64.065 C 332.000 76.822,332.288 84.000,332.800 84.000 C 333.314 84.000,333.600 76.000,333.600 61.600 L 333.600 39.200 323.200 39.200 L 312.800 39.200 312.800 41.600 M174.133 45.333 C 173.274 46.192,173.519 61.455,174.400 62.000 C 174.915 62.318,175.200 59.342,175.200 53.647 C 175.200 44.815,175.138 44.329,174.133 45.333 M228.000 53.600 C 228.000 59.326,228.285 62.318,228.800 62.000 C 229.246 61.724,229.600 58.007,229.600 53.600 C 229.600 49.193,229.246 45.476,228.800 45.200 C 228.285 44.882,228.000 47.874,228.000 53.600 M88.800 72.753 C 88.800 79.718,89.105 84.000,89.600 84.000 C 90.094 84.000,90.400 79.882,90.400 73.247 C 90.400 66.942,90.069 62.290,89.600 62.000 C 89.081 61.679,88.800 65.458,88.800 72.753 M103.200 82.369 L 103.200 103.138 96.200 103.369 C 86.495 103.689,87.485 105.200,97.400 105.200 L 105.200 105.200 105.413 83.400 C 105.599 64.359,105.472 61.600,104.413 61.600 C 103.360 61.600,103.200 64.343,103.200 82.369 M297.787 83.400 L 298.000 105.200 305.800 105.200 C 315.715 105.200,316.705 103.689,307.000 103.369 L 300.000 103.138 300.000 82.369 C 300.000 64.343,299.840 61.600,298.787 61.600 C 297.728 61.600,297.601 64.359,297.787 83.400 M313.333 62.133 C 312.450 63.017,312.706 84.000,313.600 84.000 C 314.095 84.000,314.400 79.733,314.400 72.800 C 314.400 66.640,314.280 61.600,314.133 61.600 C 313.987 61.600,313.627 61.840,313.333 62.133 M53.791 104.172 C 54.040 104.919,56.354 105.200,62.267 105.200 C 73.462 105.200,73.342 103.667,62.124 103.372 C 55.337 103.194,53.523 103.368,53.791 104.172 M332.555 103.712 C 331.206 105.061,333.556 105.600,340.782 105.600 C 348.773 105.600,351.200 105.207,351.200 103.914 C 351.200 103.110,333.351 102.916,332.555 103.712 M0.800 211.200 C 0.800 211.685,4.267 212.000,9.600 212.000 C 14.933 212.000,18.400 211.685,18.400 211.200 C 18.400 210.715,14.933 210.400,9.600 210.400 C 4.267 210.400,0.800 210.715,0.800 211.200 M36.486 211.665 C 35.657 213.825,35.932 228.800,36.800 228.800 C 37.283 228.800,37.600 225.467,37.600 220.400 L 37.600 212.000 44.800 212.000 C 49.067 212.000,52.000 211.674,52.000 211.200 C 52.000 209.738,37.053 210.187,36.486 211.665 M351.200 211.200 C 351.200 211.674,354.133 212.000,358.400 212.000 L 365.600 212.000 365.600 220.400 C 365.600 225.467,365.917 228.800,366.400 228.800 C 367.268 228.800,367.543 213.825,366.714 211.665 C 366.147 210.187,351.200 209.738,351.200 211.200 M384.800 211.200 C 384.800 211.677,387.867 212.000,392.400 212.000 C 396.933 212.000,400.000 211.677,400.000 211.200 C 400.000 210.723,396.933 210.400,392.400 210.400 C 387.867 210.400,384.800 210.723,384.800 211.200 M35.686 230.865 C 34.999 232.653,35.054 232.800,36.400 232.800 C 37.067 232.800,37.600 232.089,37.600 231.200 C 37.600 229.293,36.372 229.078,35.686 230.865 M365.600 231.200 C 365.600 232.089,366.133 232.800,366.800 232.800 C 368.146 232.800,368.201 232.653,367.514 230.865 C 366.828 229.078,365.600 229.293,365.600 231.200 M157.600 295.600 C 157.600 296.587,159.022 296.800,165.600 296.800 C 172.971 296.800,175.471 296.089,172.335 294.886 C 169.446 293.777,157.600 294.351,157.600 295.600 M230.600 294.930 C 227.751 296.080,230.447 296.800,237.600 296.800 C 244.178 296.800,245.600 296.587,245.600 295.600 C 245.600 294.409,233.257 293.858,230.600 294.930 M52.000 316.314 C 52.000 317.417,53.251 317.600,60.800 317.600 C 66.133 317.600,69.600 317.285,69.600 316.800 C 69.600 316.323,66.555 316.000,62.065 316.000 C 57.921 316.000,53.961 315.781,53.265 315.514 C 52.435 315.196,52.000 315.471,52.000 316.314 M173.600 316.307 C 173.600 317.419,174.829 317.600,182.400 317.600 C 187.733 317.600,191.200 317.285,191.200 316.800 C 191.200 316.328,188.326 315.996,184.200 315.989 C 180.350 315.983,176.390 315.761,175.400 315.496 C 174.077 315.141,173.600 315.356,173.600 316.307 M219.800 315.796 C 209.023 316.158,209.823 317.600,220.800 317.600 C 228.089 317.600,229.600 317.394,229.600 316.400 C 229.600 315.740,229.150 315.275,228.600 315.367 C 228.050 315.460,224.090 315.653,219.800 315.796 M341.800 315.797 C 330.699 316.148,331.182 317.600,342.400 317.600 C 349.689 317.600,351.200 317.394,351.200 316.400 C 351.200 315.740,350.930 315.276,350.600 315.369 C 350.270 315.462,346.310 315.654,341.800 315.797 M90.400 316.800 C 90.400 317.280,93.600 317.600,98.400 317.600 C 103.200 317.600,106.400 317.280,106.400 316.800 C 106.400 316.320,103.200 316.000,98.400 316.000 C 93.600 316.000,90.400 316.320,90.400 316.800 M296.800 316.800 C 296.800 317.280,300.000 317.600,304.800 317.600 C 309.600 317.600,312.800 317.280,312.800 316.800 C 312.800 316.320,309.600 316.000,304.800 316.000 C 300.000 316.000,296.800 316.320,296.800 316.800 M69.599 359.400 C 69.600 360.662,70.632 360.800,80.059 360.800 C 89.076 360.800,90.482 360.629,90.259 359.562 C 89.841 357.565,69.598 357.406,69.599 359.400 M313.135 358.333 C 311.180 360.277,313.315 360.800,323.200 360.800 C 332.571 360.800,333.600 360.662,333.601 359.400 C 333.601 358.093,314.385 357.091,313.135 358.333 " stroke="none" fill="#e1e1e1" fill-rule="evenodd"></path><path id="path3" d="M122.576 51.800 L 122.800 62.000 140.400 62.000 L 158.000 62.000 158.233 53.600 C 158.603 40.298,160.586 41.600,139.961 41.600 L 122.352 41.600 122.576 51.800 M245.182 43.400 C 244.935 44.390,244.838 48.980,244.967 53.600 L 245.200 62.000 262.800 62.000 L 280.400 62.000 280.624 51.800 L 280.848 41.600 263.239 41.600 C 245.645 41.600,245.630 41.601,245.182 43.400 M71.557 85.901 C 71.325 86.835,71.239 91.560,71.367 96.400 L 71.600 105.200 78.400 105.436 C 89.174 105.810,88.468 106.605,88.000 94.637 L 87.600 84.400 79.790 84.301 C 72.453 84.208,71.954 84.305,71.557 85.901 M175.707 84.560 C 174.740 85.527,175.148 103.628,176.160 104.640 C 177.665 106.145,225.872 106.000,227.128 104.487 C 227.743 103.746,227.977 100.197,227.826 93.887 L 227.600 84.400 201.907 84.227 C 187.776 84.131,175.986 84.281,175.707 84.560 M315.610 84.971 C 315.410 85.537,315.147 90.246,315.024 95.437 C 314.762 106.475,314.109 105.807,324.800 105.436 L 331.600 105.200 331.833 96.400 C 332.173 83.544,332.672 84.290,323.603 84.101 C 317.989 83.984,315.876 84.214,315.610 84.971 " stroke="none" fill="#ff3333" fill-rule="evenodd"></path><path id="path4" d="M174.520 73.180 C 174.351 80.229,174.557 84.003,175.132 84.358 C 175.740 84.733,176.000 81.653,176.000 74.094 C 176.000 60.070,174.853 59.361,174.520 73.180 M227.733 62.933 C 226.776 63.890,227.105 84.953,228.068 84.358 C 228.722 83.954,228.993 62.400,228.344 62.400 C 228.301 62.400,228.027 62.640,227.733 62.933 " stroke="none" fill="#bd7200" fill-rule="evenodd"></path><path id="path5" d="M122.400 30.800 L 122.400 41.600 139.933 41.600 C 153.211 41.600,157.565 41.843,157.870 42.600 C 158.092 43.150,158.302 38.650,158.337 32.600 L 158.400 21.600 149.400 21.550 C 144.450 21.523,136.800 21.466,132.400 21.424 L 124.400 21.347 131.600 20.825 L 138.800 20.302 130.600 20.151 L 122.400 20.000 122.400 30.800 M271.600 20.825 L 278.800 21.347 270.800 21.424 C 266.400 21.466,258.750 21.523,253.800 21.550 L 244.800 21.600 244.863 32.600 C 244.898 38.650,245.108 43.150,245.330 42.600 C 245.635 41.843,249.989 41.600,263.267 41.600 L 280.800 41.600 280.800 30.800 L 280.800 20.000 272.600 20.151 L 264.400 20.302 271.600 20.825 M71.760 62.907 C 71.452 63.215,71.200 68.087,71.200 73.733 C 71.200 80.044,70.892 84.000,70.400 84.000 C 69.911 84.000,69.600 87.718,69.600 93.553 C 69.600 99.058,69.939 103.315,70.400 103.600 C 70.915 103.918,71.204 100.872,71.212 95.047 C 71.228 83.686,70.810 84.197,80.000 84.308 L 87.600 84.400 87.825 94.258 C 87.992 101.574,88.302 104.033,89.025 103.793 C 90.263 103.382,90.872 84.000,89.648 84.000 C 89.164 84.000,88.758 79.797,88.623 73.400 L 88.400 62.800 80.360 62.574 C 75.937 62.449,72.067 62.599,71.760 62.907 M176.000 73.236 L 176.400 84.076 201.600 84.076 L 226.800 84.076 227.200 73.236 L 227.600 62.397 201.600 62.397 L 175.600 62.397 176.000 73.236 M314.960 62.907 C 314.652 63.215,314.400 68.087,314.400 73.733 C 314.400 80.249,314.099 84.000,313.575 84.000 C 312.330 84.000,312.917 103.375,314.175 103.793 C 314.898 104.033,315.208 101.574,315.375 94.258 L 315.600 84.400 323.200 84.308 C 332.390 84.197,331.972 83.686,331.988 95.047 C 331.996 100.872,332.285 103.918,332.800 103.600 C 333.849 102.952,333.872 84.000,332.823 84.000 C 332.371 84.000,331.953 79.569,331.823 73.400 L 331.600 62.800 323.560 62.574 C 319.137 62.449,315.267 62.599,314.960 62.907 " stroke="none" fill="#ff9900" fill-rule="evenodd"></path><path id="path6" d="M140.177 10.600 L 140.400 21.200 149.400 21.426 L 158.400 21.652 158.400 10.826 L 158.400 0.000 149.177 0.000 L 139.954 0.000 140.177 10.600 M244.800 10.826 L 244.800 21.652 253.800 21.426 L 262.800 21.200 263.023 10.600 L 263.246 0.000 254.023 0.000 L 244.800 0.000 244.800 10.826 M193.600 21.200 C 193.600 21.860,193.022 22.400,192.316 22.400 C 191.192 22.400,191.067 23.602,191.316 32.000 L 191.600 41.600 184.322 41.600 C 178.365 41.600,176.732 41.871,175.322 43.094 C 173.583 44.602,172.921 46.114,174.400 45.200 C 174.915 44.882,175.200 47.858,175.200 53.553 L 175.200 62.400 201.600 62.400 L 228.000 62.400 228.000 53.553 C 228.000 47.858,228.285 44.882,228.800 45.200 C 230.279 46.114,229.617 44.602,227.878 43.094 C 226.468 41.871,224.835 41.600,218.878 41.600 L 211.600 41.600 211.884 32.000 C 212.133 23.602,212.008 22.400,210.884 22.400 C 210.178 22.400,209.600 21.860,209.600 21.200 C 209.600 20.213,208.178 20.000,201.600 20.000 C 195.022 20.000,193.600 20.213,193.600 21.200 M71.686 42.865 C 71.419 43.561,71.200 48.331,71.200 53.465 L 71.200 62.800 80.000 62.800 C 84.840 62.800,88.800 62.509,88.800 62.153 C 88.800 61.797,89.160 61.728,89.600 62.000 C 91.457 63.148,90.558 44.725,88.678 43.094 C 86.317 41.046,72.455 40.860,71.686 42.865 M314.522 43.094 C 312.642 44.725,311.743 63.148,313.600 62.000 C 314.040 61.728,314.400 61.797,314.400 62.153 C 314.400 62.509,318.360 62.800,323.200 62.800 L 332.000 62.800 332.000 53.465 C 332.000 48.331,331.781 43.561,331.514 42.865 C 330.745 40.860,316.883 41.046,314.522 43.094 " stroke="none" fill="#ffff00" fill-rule="evenodd"></path><path id="path7" d="M123.749 85.318 C 123.447 85.620,123.200 118.387,123.200 158.133 L 123.200 230.400 130.676 230.400 C 140.696 230.400,140.800 230.278,140.800 218.564 L 140.800 209.654 149.400 209.427 L 158.000 209.200 158.225 199.827 L 158.450 190.455 149.825 190.227 L 141.200 190.000 141.200 179.200 L 141.200 168.400 149.800 168.173 L 158.400 167.946 158.400 157.573 L 158.400 147.200 149.586 147.200 L 140.773 147.200 140.986 126.600 L 141.200 106.000 148.880 105.772 C 158.482 105.488,158.554 105.395,158.230 93.596 L 158.000 85.200 141.149 84.985 C 131.881 84.866,124.051 85.016,123.749 85.318 M245.349 85.318 C 244.315 86.352,244.785 102.713,245.890 104.168 C 246.716 105.255,248.479 105.584,254.465 105.768 L 262.000 106.000 262.214 126.600 L 262.427 147.200 253.614 147.200 L 244.800 147.200 244.800 157.573 L 244.800 167.946 253.400 168.173 L 262.000 168.400 262.000 179.200 L 262.000 190.000 253.375 190.227 L 244.750 190.455 244.975 199.827 L 245.200 209.200 253.800 209.427 L 262.400 209.654 262.400 218.703 C 262.400 230.287,262.499 230.400,272.667 230.400 L 280.008 230.400 279.804 157.800 L 279.600 85.200 262.749 84.985 C 253.481 84.866,245.651 85.016,245.349 85.318 M162.000 106.400 C 161.728 106.840,160.807 107.200,159.953 107.200 C 158.510 107.200,158.400 107.823,158.400 116.000 L 158.400 124.800 165.257 124.800 C 170.133 124.800,172.444 124.470,173.257 123.657 C 174.768 122.146,174.890 109.162,173.400 108.467 C 172.600 108.093,172.600 107.907,173.400 107.533 C 173.950 107.277,174.400 106.737,174.400 106.333 C 174.400 105.334,162.620 105.397,162.000 106.400 M228.800 106.333 C 228.800 106.737,229.250 107.277,229.800 107.533 C 230.600 107.907,230.600 108.093,229.800 108.467 C 228.310 109.162,228.432 122.146,229.943 123.657 C 230.756 124.470,233.067 124.800,237.943 124.800 L 244.800 124.800 244.800 116.000 C 244.800 107.823,244.690 107.200,243.247 107.200 C 242.393 107.200,241.472 106.840,241.200 106.400 C 240.580 105.397,228.800 105.334,228.800 106.333 M72.000 219.657 C 72.000 299.413,72.165 313.080,73.143 314.057 C 73.956 314.870,76.267 315.200,81.143 315.200 L 88.000 315.200 88.000 220.800 L 88.000 126.400 80.000 126.400 L 72.000 126.400 72.000 219.657 M176.000 148.000 L 176.000 169.600 168.867 169.600 C 163.942 169.600,161.589 169.910,161.267 170.600 C 160.893 171.400,160.707 171.400,160.333 170.600 C 159.019 167.784,158.400 170.538,158.400 179.200 L 158.400 188.800 166.057 188.800 C 176.942 188.800,176.000 185.659,176.000 221.943 L 176.000 252.800 201.600 252.800 L 227.200 252.800 227.200 221.943 C 227.200 185.659,226.258 188.800,237.143 188.800 L 244.800 188.800 244.800 179.200 C 244.800 170.538,244.181 167.784,242.867 170.600 C 242.493 171.400,242.307 171.400,241.933 170.600 C 241.611 169.910,239.258 169.600,234.333 169.600 L 227.200 169.600 227.200 148.000 L 227.200 126.400 201.600 126.400 L 176.000 126.400 176.000 148.000 M315.200 220.800 L 315.200 315.200 322.057 315.200 C 326.933 315.200,329.244 314.870,330.057 314.057 C 331.035 313.080,331.200 299.413,331.200 219.657 L 331.200 126.400 323.200 126.400 L 315.200 126.400 315.200 220.800 M19.733 147.733 C 19.440 148.027,19.200 157.387,19.200 168.533 L 19.200 188.800 34.676 188.800 C 48.653 188.800,50.280 188.658,51.476 187.337 C 53.059 185.588,53.514 151.736,51.967 150.780 C 51.510 150.497,51.354 149.576,51.621 148.733 C 52.116 147.176,21.258 146.209,19.733 147.733 M351.573 148.716 C 351.844 149.568,351.690 150.497,351.233 150.780 C 350.697 151.111,350.400 157.513,350.400 168.723 C 350.400 190.823,348.558 188.800,368.676 188.800 L 384.027 188.800 383.814 168.200 L 383.600 147.600 367.341 147.383 C 351.573 147.173,351.096 147.213,351.573 148.716 M176.000 283.476 C 176.000 295.253,173.991 294.400,201.739 294.400 C 229.232 294.400,227.200 295.283,227.200 283.337 L 227.200 275.200 201.600 275.200 L 176.000 275.200 176.000 283.476 " stroke="none" fill="#00b111" fill-rule="evenodd"></path><path id="path8" d="M123.724 84.600 C 123.520 84.930,131.204 85.200,140.800 85.200 C 150.396 85.200,158.080 84.930,157.876 84.600 C 157.672 84.270,149.988 84.000,140.800 84.000 C 131.612 84.000,123.928 84.270,123.724 84.600 M245.324 84.600 C 245.120 84.930,252.804 85.200,262.400 85.200 C 271.996 85.200,279.680 84.930,279.476 84.600 C 279.272 84.270,271.588 84.000,262.400 84.000 C 253.212 84.000,245.528 84.270,245.324 84.600 M159.711 106.000 C 160.242 107.384,160.961 107.519,162.041 106.439 C 162.459 106.021,165.501 105.552,168.801 105.398 C 174.537 105.130,174.459 105.111,167.025 104.959 C 160.401 104.824,159.318 104.978,159.711 106.000 M234.399 105.398 C 237.699 105.552,240.741 106.021,241.159 106.439 C 242.239 107.519,242.958 107.384,243.489 106.000 C 243.882 104.978,242.799 104.824,236.175 104.959 C 228.741 105.111,228.663 105.130,234.399 105.398 M174.900 108.900 C 174.113 112.835,174.316 122.254,175.200 122.800 C 175.714 123.118,176.000 120.275,176.000 114.847 C 176.000 106.055,175.745 104.676,174.900 108.900 M227.280 114.647 C 227.228 120.228,227.484 123.119,228.000 122.800 C 228.936 122.222,228.936 110.922,228.000 108.000 C 227.588 106.712,227.331 109.081,227.280 114.647 M71.447 125.800 C 70.287 127.593,69.840 315.449,71.000 313.862 C 71.786 312.786,72.000 292.548,72.000 219.075 L 72.000 125.656 80.200 125.397 L 88.400 125.137 80.247 124.969 C 74.446 124.849,71.908 125.088,71.447 125.800 M189.000 125.398 C 195.930 125.532,207.270 125.532,214.200 125.398 C 221.130 125.265,215.460 125.156,201.600 125.156 C 187.740 125.156,182.070 125.265,189.000 125.398 M323.000 125.397 L 331.200 125.656 331.200 219.075 C 331.200 292.548,331.414 312.786,332.200 313.862 C 333.360 315.449,332.913 127.593,331.753 125.800 C 331.292 125.088,328.754 124.849,322.953 124.969 L 314.800 125.137 323.000 125.397 M51.672 148.500 C 51.384 149.252,51.519 150.239,51.974 150.694 C 53.505 152.225,53.052 185.596,51.476 187.337 C 50.748 188.142,50.547 188.800,51.029 188.800 C 51.511 188.800,52.152 188.402,52.453 187.915 C 52.834 187.297,53.211 187.358,53.696 188.115 C 54.098 188.741,54.309 180.437,54.196 168.466 C 54.009 148.670,53.414 143.962,51.672 148.500 M349.333 147.733 C 349.040 148.027,348.806 157.477,348.812 168.733 C 348.819 180.464,349.118 188.737,349.512 188.115 C 349.992 187.358,350.366 187.297,350.747 187.915 C 351.048 188.402,351.689 188.800,352.171 188.800 C 352.653 188.800,352.452 188.142,351.724 187.337 C 350.148 185.596,349.695 152.225,351.226 150.694 C 351.681 150.239,351.822 149.267,351.541 148.534 C 351.001 147.128,350.221 146.845,349.333 147.733 M149.400 209.397 C 144.670 209.538,140.799 209.912,140.798 210.227 C 140.797 210.542,144.757 210.688,149.598 210.550 C 154.439 210.413,158.400 209.963,158.400 209.550 C 158.400 209.138,158.310 208.876,158.200 208.970 C 158.090 209.063,154.130 209.256,149.400 209.397 M244.798 209.750 C 244.799 210.053,248.761 210.413,253.602 210.550 C 258.443 210.688,262.403 210.552,262.402 210.250 C 262.401 209.947,258.439 209.587,253.598 209.450 C 248.757 209.312,244.797 209.448,244.798 209.750 M174.400 263.758 C 174.400 270.198,174.670 275.198,175.000 274.870 C 176.134 273.743,176.506 252.854,175.400 252.432 C 174.628 252.137,174.400 254.722,174.400 263.758 M227.600 252.461 C 226.677 252.848,227.242 273.917,228.200 274.870 C 228.530 275.198,228.800 270.187,228.800 263.733 C 228.800 257.280,228.710 252.028,228.600 252.063 C 228.490 252.098,228.040 252.277,227.600 252.461 M177.600 294.600 C 177.600 294.930,188.400 295.200,201.600 295.200 C 214.800 295.200,225.600 294.930,225.600 294.600 C 225.600 294.270,214.800 294.000,201.600 294.000 C 188.400 294.000,177.600 294.270,177.600 294.600 M74.800 315.707 C 80.465 316.300,88.003 316.353,88.002 315.800 C 88.001 315.470,84.490 315.258,80.200 315.328 C 75.910 315.398,73.480 315.569,74.800 315.707 M315.198 315.800 C 315.197 316.130,317.627 316.301,320.598 316.179 C 330.090 315.791,331.026 315.460,323.000 315.328 C 318.710 315.258,315.199 315.470,315.198 315.800 M80.400 356.800 L 73.200 357.298 80.153 357.449 C 84.097 357.535,87.319 357.254,87.600 356.800 C 87.872 356.360,87.983 356.068,87.847 356.151 C 87.711 356.234,84.360 356.526,80.400 356.800 M315.911 357.034 C 316.262 357.383,319.575 357.561,323.274 357.428 L 330.000 357.188 322.636 356.794 C 318.586 356.577,315.560 356.685,315.911 357.034 " stroke="none" fill="#00657e" fill-rule="evenodd"></path><path id="path9" d="M141.360 106.107 C 141.052 106.415,140.800 115.787,140.800 126.933 L 140.800 147.200 149.600 147.200 L 158.400 147.200 158.400 157.573 L 158.400 167.946 149.800 168.173 L 141.200 168.400 141.200 179.200 L 141.200 190.000 149.600 190.000 L 158.000 190.000 158.223 179.400 L 158.446 168.800 165.863 168.800 C 175.879 168.800,175.200 170.376,175.200 147.138 C 175.200 124.130,175.893 125.757,165.958 125.433 L 158.800 125.200 158.400 115.600 L 158.000 106.000 149.960 105.774 C 145.537 105.649,141.667 105.799,141.360 106.107 M245.197 106.572 C 244.991 107.137,244.728 111.560,244.611 116.400 L 244.400 125.200 237.242 125.433 C 227.307 125.757,228.000 124.130,228.000 147.138 C 228.000 170.376,227.321 168.800,237.337 168.800 L 244.754 168.800 244.977 179.400 L 245.200 190.000 253.600 190.000 L 262.000 190.000 262.000 179.200 L 262.000 168.400 253.400 168.173 L 244.800 167.946 244.800 157.573 L 244.800 147.200 253.614 147.200 L 262.427 147.200 262.214 126.600 L 262.000 106.000 253.786 105.772 C 247.655 105.602,245.476 105.804,245.197 106.572 M176.545 253.322 C 176.245 253.622,176.000 258.307,176.000 263.733 L 176.000 273.600 201.624 273.600 L 227.248 273.600 227.024 263.400 L 226.800 253.200 201.945 252.989 C 188.274 252.873,176.844 253.023,176.545 253.322 " stroke="none" fill="#00ffcc" fill-rule="evenodd"></path></g></svg>