<svg id="svg" version="1.1" width="500" height="500" xmlns="http://www.w3.org/2000/svg" xmlns:xlink="http://www.w3.org/1999/xlink" style="display: block;"><g id="svgg"><path id="path0" d="M122.550 63.367 C 122.239 63.680,118.568 64.040,114.393 64.167 L 106.800 64.400 106.400 85.200 L 106.000 106.000 88.800 106.000 C 79.340 106.000,67.730 106.090,63.000 106.200 L 54.400 106.400 54.400 115.840 C 54.400 128.331,57.163 127.200,26.640 127.200 L 0.800 127.200 0.800 168.400 L 0.800 209.600 9.800 209.600 L 18.800 209.599 18.519 220.029 L 18.238 230.458 26.519 230.229 L 34.800 230.000 35.024 219.800 L 35.248 209.600 44.818 209.600 L 54.388 209.600 54.594 262.200 L 54.800 314.800 62.400 314.800 L 70.000 314.800 70.400 220.800 C 70.620 169.100,71.091 126.350,71.447 125.800 C 72.388 124.346,87.484 124.414,88.699 125.878 C 89.344 126.656,89.650 153.087,89.797 220.878 L 90.000 314.800 95.600 315.046 C 98.680 315.182,102.382 315.073,103.827 314.805 L 106.454 314.317 106.227 272.358 L 106.000 230.399 114.596 230.400 L 123.192 230.400 123.396 157.400 L 123.600 84.400 140.800 84.400 L 158.000 84.400 158.223 94.546 C 158.481 106.235,157.632 105.322,167.890 104.949 L 174.800 104.698 174.574 84.349 L 174.347 64.000 169.374 63.904 C 166.638 63.851,155.111 63.581,143.758 63.304 C 132.404 63.027,122.861 63.055,122.550 63.367 M259.600 63.288 C 248.600 63.557,237.182 63.827,234.226 63.888 L 228.853 64.000 228.626 84.349 L 228.400 104.698 235.310 104.949 C 245.568 105.322,244.719 106.235,244.977 94.546 L 245.200 84.400 262.400 84.400 L 279.600 84.400 279.804 157.400 L 280.008 230.400 288.604 230.400 L 297.200 230.399 296.973 272.358 L 296.746 314.317 299.373 314.805 C 300.818 315.073,304.520 315.182,307.600 315.046 L 313.200 314.800 313.403 220.878 C 313.550 153.087,313.856 126.656,314.501 125.878 C 315.716 124.414,330.812 124.346,331.753 125.800 C 332.109 126.350,332.580 169.100,332.800 220.800 L 333.200 314.800 340.800 314.800 L 348.400 314.800 348.606 262.200 L 348.812 209.600 358.382 209.600 L 367.952 209.600 368.176 219.800 L 368.400 230.000 376.681 230.229 L 384.962 230.458 384.681 220.029 L 384.400 209.599 392.200 209.600 L 400.000 209.600 400.000 168.400 L 400.000 127.200 375.360 127.200 C 346.206 127.200,348.800 128.309,348.800 115.840 L 348.800 106.400 340.200 106.200 C 335.470 106.090,323.860 106.000,314.400 106.000 L 297.200 106.000 296.800 85.200 L 296.400 64.400 288.843 64.168 C 284.687 64.040,280.907 63.680,280.443 63.368 C 279.979 63.056,270.600 63.020,259.600 63.288 M175.848 114.870 C 175.712 119.968,175.750 124.288,175.933 124.470 C 176.369 124.901,226.831 124.901,227.267 124.470 C 227.450 124.288,227.488 119.968,227.352 114.870 L 227.103 105.600 201.600 105.600 L 176.097 105.600 175.848 114.870 M54.225 167.200 C 54.349 177.980,54.252 187.610,54.010 188.600 C 53.570 190.397,53.542 190.400,36.385 190.400 L 19.200 190.400 19.200 168.784 L 19.200 147.169 36.600 147.384 L 54.000 147.600 54.225 167.200 M384.000 168.800 L 384.000 190.400 366.886 190.400 C 352.017 190.400,349.707 190.234,349.286 189.135 C 348.622 187.405,348.667 148.400,349.333 147.733 C 349.627 147.440,357.547 147.200,366.933 147.200 L 384.000 147.200 384.000 168.800 M158.933 190.933 C 158.640 191.227,158.400 195.714,158.400 200.906 L 158.400 210.346 149.800 210.573 L 141.200 210.800 140.975 220.600 L 140.751 230.400 149.375 230.400 L 158.000 230.399 157.764 261.330 C 157.492 296.950,156.524 293.570,167.000 293.588 L 174.400 293.600 174.400 242.000 L 174.400 190.400 166.933 190.400 C 162.827 190.400,159.227 190.640,158.933 190.933 M228.800 241.971 L 228.800 293.600 236.200 293.588 C 246.676 293.570,245.708 296.950,245.436 261.330 L 245.200 230.399 253.825 230.400 L 262.449 230.400 262.225 220.600 L 262.000 210.800 253.424 210.573 L 244.849 210.346 244.624 200.573 L 244.400 190.800 236.600 190.571 L 228.800 190.342 228.800 241.971 M122.958 232.509 C 122.651 232.816,122.400 242.007,122.400 252.933 L 122.400 272.800 132.014 272.800 L 141.627 272.800 141.414 252.600 L 141.200 232.400 132.358 232.175 C 127.495 232.052,123.265 232.202,122.958 232.509 M262.158 232.509 C 261.851 232.816,261.600 242.007,261.600 252.933 L 261.600 272.800 271.214 272.800 L 280.827 272.800 280.614 252.600 L 280.400 232.400 271.558 232.175 C 266.695 232.052,262.465 232.202,262.158 232.509 M176.332 296.400 C 176.113 297.280,176.038 301.780,176.167 306.400 L 176.400 314.800 184.800 315.200 L 193.200 315.600 193.407 357.800 L 193.614 400.000 201.600 400.000 L 209.586 400.000 209.793 357.800 L 210.000 315.600 218.400 315.200 L 226.800 314.800 227.033 306.400 C 227.395 293.364,230.543 294.800,201.600 294.800 C 177.396 294.800,176.719 294.843,176.332 296.400 M72.000 336.238 C 72.000 347.400,72.148 356.683,72.330 356.867 C 72.511 357.050,76.021 357.020,80.130 356.800 L 87.600 356.400 87.600 336.400 L 87.600 316.400 79.800 316.171 L 72.000 315.942 72.000 336.238 M315.733 316.533 C 314.970 317.296,315.071 355.826,315.837 356.299 C 316.188 356.516,319.698 356.771,323.637 356.866 L 330.800 357.038 331.014 336.519 L 331.227 316.000 323.747 316.000 C 319.633 316.000,316.027 316.240,315.733 316.533 " stroke="none" fill="#000000" fill-rule="evenodd"></path><path id="path1" d="M104.800 83.172 L 104.800 104.744 96.600 105.003 L 88.400 105.263 97.025 105.431 C 103.327 105.555,105.747 105.331,106.008 104.600 C 106.966 101.927,106.770 61.599,105.800 61.599 C 105.025 61.600,104.800 66.448,104.800 83.172 M158.000 62.400 C 157.728 62.840,158.046 63.200,158.706 63.200 C 159.366 63.200,160.128 62.840,160.400 62.400 C 160.672 61.960,160.354 61.600,159.694 61.600 C 159.034 61.600,158.272 61.960,158.000 62.400 M242.800 62.400 C 243.072 62.840,243.834 63.200,244.494 63.200 C 245.154 63.200,245.472 62.840,245.200 62.400 C 244.928 61.960,244.166 61.600,243.506 61.600 C 242.846 61.600,242.528 61.960,242.800 62.400 M296.617 82.599 C 296.883 108.360,295.742 105.635,306.175 105.431 L 314.800 105.263 306.600 105.003 L 298.400 104.744 298.400 84.437 C 298.400 65.327,298.158 61.601,296.914 61.599 C 296.631 61.599,296.498 71.049,296.617 82.599 M52.000 114.400 L 52.000 124.000 26.400 124.000 C 4.178 124.000,0.800 124.158,0.800 125.200 C 0.800 126.986,52.614 127.015,53.299 125.230 C 53.546 124.586,53.805 119.996,53.874 115.030 L 54.000 106.000 62.800 105.558 L 71.600 105.116 61.800 104.958 L 52.000 104.800 52.000 114.400 M174.400 105.933 C 174.400 106.557,173.950 107.277,173.400 107.533 C 172.600 107.907,172.600 108.093,173.400 108.467 C 174.088 108.788,174.400 111.115,174.400 115.931 C 174.400 124.199,174.013 124.601,165.600 125.065 C 161.688 125.280,162.042 125.332,167.029 125.276 C 171.990 125.219,173.849 124.898,174.417 124.000 C 175.183 122.788,175.542 104.800,174.800 104.800 C 174.580 104.800,174.400 105.310,174.400 105.933 M228.075 113.600 C 228.011 125.314,227.919 125.182,236.171 125.276 C 241.158 125.332,241.512 125.280,237.600 125.065 C 229.187 124.601,228.800 124.199,228.800 115.931 C 228.800 111.083,229.107 108.809,229.800 108.528 C 230.512 108.239,230.546 107.931,229.920 107.461 C 229.436 107.097,228.834 106.260,228.583 105.600 C 228.332 104.940,228.103 108.540,228.075 113.600 M340.400 105.558 L 349.200 106.000 349.326 115.030 C 349.395 119.996,349.654 124.586,349.901 125.230 C 350.586 127.015,400.000 126.985,400.000 125.200 C 400.000 124.160,396.756 124.000,375.600 124.000 L 351.200 124.000 351.200 114.400 L 351.200 104.800 341.400 104.958 L 331.600 105.116 340.400 105.558 M80.398 126.183 L 88.000 126.458 88.010 221.829 C 88.016 274.283,88.028 325.660,88.038 336.000 C 88.048 346.340,88.043 355.430,88.028 356.200 C 88.003 357.438,87.075 357.600,80.000 357.600 L 72.000 357.600 72.000 336.467 C 72.000 320.310,72.235 315.238,73.000 314.928 C 73.798 314.604,73.798 314.379,73.003 313.816 C 72.220 313.261,71.963 293.210,71.800 219.955 L 71.593 126.800 71.397 221.027 L 71.200 315.254 62.600 315.027 L 54.000 314.800 53.600 262.400 L 53.200 210.000 44.585 209.773 C 38.121 209.602,35.885 209.802,35.627 210.573 C 34.998 212.453,34.790 232.801,35.400 232.800 C 35.730 232.800,36.000 232.260,36.000 231.600 C 36.000 230.940,36.360 230.400,36.800 230.400 C 37.287 230.400,37.600 226.800,37.600 221.200 L 37.600 212.000 44.447 212.000 C 48.808 212.000,51.115 211.710,50.800 211.200 C 50.528 210.760,50.687 210.400,51.153 210.400 C 51.741 210.400,52.000 226.572,52.000 263.200 C 52.000 309.600,52.145 316.000,53.200 316.000 C 53.860 316.000,54.400 316.360,54.400 316.800 C 54.400 317.277,57.467 317.600,62.000 317.600 L 69.600 317.600 69.600 337.907 L 69.600 358.213 71.400 358.696 C 73.733 359.321,86.267 359.321,88.600 358.696 L 90.400 358.213 90.400 337.936 L 90.400 317.658 98.135 317.429 C 109.858 317.082,109.465 315.200,97.670 315.200 L 88.807 315.200 88.603 220.600 L 88.400 126.000 80.598 125.954 L 72.796 125.908 80.398 126.183 M175.386 147.000 L 175.572 168.400 175.799 147.400 L 176.027 126.400 201.600 126.400 L 227.173 126.400 227.401 147.400 L 227.628 168.400 227.814 147.000 L 228.000 125.600 201.600 125.600 L 175.200 125.600 175.386 147.000 M314.933 126.133 C 314.640 126.427,314.400 169.087,314.400 220.933 L 314.400 315.200 305.533 315.200 C 293.735 315.200,293.340 317.082,305.065 317.429 L 312.800 317.658 312.800 337.936 L 312.800 358.213 314.600 358.696 C 316.933 359.321,329.467 359.321,331.800 358.696 L 333.600 358.213 333.600 337.907 L 333.600 317.600 341.200 317.600 C 345.733 317.600,348.800 317.277,348.800 316.800 C 348.800 316.360,349.340 316.000,350.000 316.000 C 351.055 316.000,351.200 309.600,351.200 263.200 C 351.200 226.572,351.459 210.400,352.047 210.400 C 352.513 210.400,352.672 210.760,352.400 211.200 C 352.085 211.710,354.392 212.000,358.753 212.000 L 365.600 212.000 365.600 221.200 C 365.600 226.800,365.913 230.400,366.400 230.400 C 366.840 230.400,367.200 230.940,367.200 231.600 C 367.200 232.260,367.470 232.800,367.800 232.800 C 368.410 232.801,368.202 212.453,367.573 210.573 C 367.315 209.802,365.079 209.602,358.615 209.773 L 350.000 210.000 349.600 262.400 L 349.200 314.800 340.600 315.027 L 332.000 315.254 331.803 221.027 L 331.607 126.800 331.400 219.955 C 331.237 293.210,330.980 313.261,330.197 313.816 C 329.402 314.379,329.402 314.604,330.200 314.928 C 330.965 315.238,331.200 320.310,331.200 336.467 L 331.200 357.600 323.200 357.600 C 316.125 357.600,315.197 357.438,315.172 356.200 C 315.157 355.430,315.152 346.340,315.162 336.000 C 315.172 325.660,315.184 274.283,315.190 221.829 L 315.200 126.458 323.000 126.196 L 330.800 125.935 323.133 125.767 C 318.917 125.675,315.227 125.840,314.933 126.133 M51.648 148.723 C 51.302 149.282,51.420 150.140,51.910 150.630 C 53.602 152.322,53.098 185.883,51.357 187.458 C 50.147 188.553,47.399 188.803,34.357 189.001 L 18.800 189.237 35.447 189.418 C 44.975 189.522,51.907 189.297,51.656 188.891 C 51.415 188.501,51.754 187.736,52.409 187.193 C 53.401 186.369,53.591 183.252,53.544 168.502 C 53.489 151.355,53.024 146.497,51.648 148.723 M350.118 149.747 C 348.971 154.029,349.549 186.162,350.791 187.193 C 351.446 187.736,351.785 188.501,351.544 188.891 C 351.293 189.297,358.225 189.522,367.753 189.418 L 384.400 189.237 368.843 189.001 C 355.801 188.803,353.053 188.553,351.843 187.458 C 350.042 185.828,349.603 152.317,351.360 150.560 C 352.040 149.880,352.071 149.351,351.467 148.747 C 350.863 148.143,350.469 148.435,350.118 149.747 M158.905 169.431 C 158.219 170.540,160.789 171.405,161.937 170.452 C 162.451 170.026,165.555 169.551,168.836 169.397 L 174.800 169.118 168.760 168.959 C 164.823 168.855,162.374 169.146,161.727 169.793 C 160.936 170.584,160.598 170.567,160.067 169.708 C 159.657 169.044,159.209 168.938,158.905 169.431 M234.364 169.397 C 237.645 169.551,240.749 170.026,241.263 170.452 C 242.411 171.405,244.981 170.540,244.295 169.431 C 243.991 168.938,243.543 169.044,243.133 169.708 C 242.602 170.567,242.264 170.584,241.473 169.793 C 240.826 169.146,238.377 168.855,234.440 168.959 L 228.400 169.118 234.364 169.397 M158.398 189.000 C 158.399 189.330,161.776 189.600,165.902 189.600 C 175.990 189.600,175.146 186.710,175.390 222.070 L 175.600 252.400 201.600 252.400 L 227.600 252.400 227.810 222.070 C 228.054 186.710,227.210 189.600,237.298 189.600 C 241.424 189.600,244.801 189.330,244.802 189.000 C 244.805 187.901,229.455 188.831,228.285 190.000 C 227.410 190.876,227.200 196.968,227.200 221.543 L 227.200 252.000 201.600 252.000 L 176.000 252.000 176.000 221.543 C 176.000 196.968,175.790 190.876,174.915 190.000 C 173.745 188.831,158.395 187.901,158.398 189.000 M1.000 210.600 C 1.239 211.318,3.778 211.600,10.000 211.600 C 16.222 211.600,18.761 211.318,19.000 210.600 C 19.254 209.838,17.111 209.600,10.000 209.600 C 2.889 209.600,0.746 209.838,1.000 210.600 M146.624 210.189 C 148.727 210.354,151.967 210.352,153.824 210.185 C 155.681 210.017,153.960 209.882,150.000 209.884 C 146.040 209.886,144.521 210.024,146.624 210.189 M249.824 210.189 C 251.927 210.354,255.167 210.352,257.024 210.185 C 258.881 210.017,257.160 209.882,253.200 209.884 C 249.240 209.886,247.721 210.024,249.824 210.189 M384.198 210.600 C 384.737 212.224,400.000 212.445,400.000 210.829 C 400.000 209.805,398.655 209.600,391.933 209.600 C 385.837 209.600,383.948 209.844,384.198 210.600 M139.223 229.172 C 138.524 230.015,136.083 230.417,130.525 230.604 L 122.800 230.865 131.307 231.033 C 139.214 231.188,139.843 231.087,140.232 229.600 C 140.730 227.694,140.523 227.606,139.223 229.172 M262.949 229.526 C 263.362 231.106,263.865 231.191,271.893 231.034 L 280.400 230.868 272.827 230.602 C 267.403 230.411,264.866 229.983,263.883 229.094 C 262.624 227.955,262.547 227.991,262.949 229.526 M18.400 232.000 C 18.400 232.474,21.333 232.800,25.600 232.800 C 29.867 232.800,32.800 232.474,32.800 232.000 C 32.800 231.526,29.867 231.200,25.600 231.200 C 21.333 231.200,18.400 231.526,18.400 232.000 M107.200 232.000 C 107.200 232.477,110.267 232.800,114.800 232.800 C 119.333 232.800,122.400 232.477,122.400 232.000 C 122.400 231.523,119.333 231.200,114.800 231.200 C 110.267 231.200,107.200 231.523,107.200 232.000 M141.600 232.000 C 141.600 232.480,144.800 232.800,149.600 232.800 C 154.400 232.800,157.600 232.480,157.600 232.000 C 157.600 231.520,154.400 231.200,149.600 231.200 C 144.800 231.200,141.600 231.520,141.600 232.000 M245.600 232.000 C 245.600 232.480,248.800 232.800,253.600 232.800 C 258.400 232.800,261.600 232.480,261.600 232.000 C 261.600 231.520,258.400 231.200,253.600 231.200 C 248.800 231.200,245.600 231.520,245.600 232.000 M280.800 232.000 C 280.800 232.477,283.867 232.800,288.400 232.800 C 292.933 232.800,296.000 232.477,296.000 232.000 C 296.000 231.523,292.933 231.200,288.400 231.200 C 283.867 231.200,280.800 231.523,280.800 232.000 M370.400 232.000 C 370.400 232.474,373.333 232.800,377.600 232.800 C 381.867 232.800,384.800 232.474,384.800 232.000 C 384.800 231.526,381.867 231.200,377.600 231.200 C 373.333 231.200,370.400 231.526,370.400 232.000 M122.400 274.800 C 122.400 275.800,124.000 276.000,132.000 276.000 C 140.000 276.000,141.600 275.800,141.600 274.800 C 141.600 273.800,140.000 273.600,132.000 273.600 C 124.000 273.600,122.400 273.800,122.400 274.800 M261.600 274.800 C 261.600 275.800,263.200 276.000,271.200 276.000 C 279.200 276.000,280.800 275.800,280.800 274.800 C 280.800 273.800,279.200 273.600,271.200 273.600 C 263.200 273.600,261.600 273.800,261.600 274.800 M175.744 274.922 C 175.445 275.222,175.200 279.337,175.200 284.068 C 175.200 294.321,175.011 294.984,172.169 294.686 C 165.827 294.020,157.600 293.926,157.600 294.520 C 157.600 294.894,161.200 295.200,165.600 295.200 L 173.600 295.200 173.600 305.600 C 173.600 314.311,173.795 316.000,174.800 316.000 C 175.460 316.000,176.000 316.360,176.000 316.800 C 176.000 317.277,179.067 317.600,183.600 317.600 L 191.200 317.600 191.200 358.800 C 191.200 385.974,191.475 400.000,192.007 400.000 C 192.542 400.000,192.744 385.783,192.607 357.800 L 192.400 315.600 184.104 315.200 L 175.807 314.800 175.977 304.800 C 176.071 299.300,176.204 290.480,176.274 285.200 L 176.400 275.600 201.600 275.600 L 226.800 275.600 226.926 285.200 C 226.996 290.480,227.129 299.300,227.223 304.800 L 227.393 314.800 219.096 315.200 L 210.800 315.600 210.593 357.800 C 210.456 385.783,210.658 400.000,211.193 400.000 C 211.725 400.000,212.000 385.974,212.000 358.800 L 212.000 317.600 219.600 317.600 C 224.133 317.600,227.200 317.277,227.200 316.800 C 227.200 316.360,227.740 316.000,228.400 316.000 C 229.405 316.000,229.600 314.311,229.600 305.600 L 229.600 295.200 237.600 295.200 C 242.000 295.200,245.600 294.894,245.600 294.520 C 245.600 293.923,237.322 294.021,230.981 294.693 C 228.230 294.985,228.061 294.375,227.798 283.200 L 227.600 274.800 201.944 274.589 C 187.834 274.473,176.044 274.623,175.744 274.922 " stroke="none" fill="#a1a1a1" fill-rule="evenodd"></path><path id="path2" d="M158.400 19.874 C 158.400 43.101,159.164 61.600,160.124 61.600 C 160.496 61.600,160.800 47.740,160.800 30.800 C 160.800 3.956,160.646 0.000,159.600 0.000 C 158.566 0.000,158.400 2.742,158.400 19.874 M242.400 30.800 C 242.400 61.670,243.294 71.144,244.276 50.674 C 245.324 28.827,244.939 0.000,243.600 0.000 C 242.554 0.000,242.400 3.956,242.400 30.800 M191.200 21.200 C 191.200 21.860,191.740 22.400,192.400 22.400 C 193.060 22.400,193.600 21.860,193.600 21.200 C 193.600 20.540,193.060 20.000,192.400 20.000 C 191.740 20.000,191.200 20.540,191.200 21.200 M209.600 21.200 C 209.600 21.860,210.140 22.400,210.800 22.400 C 211.460 22.400,212.000 21.860,212.000 21.200 C 212.000 20.540,211.460 20.000,210.800 20.000 C 210.140 20.000,209.600 20.540,209.600 21.200 M69.600 52.000 C 69.600 60.000,69.900 64.800,70.400 64.800 C 70.892 64.800,71.200 60.822,71.200 54.465 C 71.200 48.781,71.419 43.561,71.686 42.865 C 72.374 41.072,86.502 41.017,88.286 42.800 C 90.011 44.526,90.400 44.305,90.400 41.600 L 90.400 39.200 80.000 39.200 L 69.600 39.200 69.600 52.000 M173.600 41.600 C 173.600 44.305,173.989 44.526,175.714 42.800 C 176.611 41.903,178.819 41.600,184.457 41.600 C 190.629 41.600,192.000 41.382,192.000 40.400 C 192.000 39.403,190.444 39.200,182.800 39.200 L 173.600 39.200 173.600 41.600 M211.200 40.400 C 211.200 41.382,212.571 41.600,218.743 41.600 C 224.381 41.600,226.589 41.903,227.486 42.800 C 229.211 44.526,229.600 44.305,229.600 41.600 L 229.600 39.200 220.400 39.200 C 212.756 39.200,211.200 39.403,211.200 40.400 M312.800 41.600 C 312.800 44.305,313.189 44.526,314.914 42.800 C 316.698 41.017,330.826 41.072,331.514 42.865 C 331.781 43.561,332.000 48.781,332.000 54.465 C 332.000 60.822,332.308 64.800,332.800 64.800 C 333.300 64.800,333.600 60.000,333.600 52.000 L 333.600 39.200 323.200 39.200 L 312.800 39.200 312.800 41.600 M174.133 45.333 C 173.274 46.192,173.519 61.455,174.400 62.000 C 174.915 62.318,175.200 59.342,175.200 53.647 C 175.200 44.815,175.138 44.329,174.133 45.333 M228.000 53.600 C 228.000 59.326,228.285 62.318,228.800 62.000 C 229.246 61.724,229.600 58.007,229.600 53.600 C 229.600 49.193,229.246 45.476,228.800 45.200 C 228.285 44.882,228.000 47.874,228.000 53.600 M103.200 82.400 L 103.200 103.200 96.847 103.200 C 93.353 103.200,90.272 103.560,90.000 104.000 C 89.684 104.512,92.258 104.800,97.153 104.800 L 104.800 104.800 104.800 83.200 C 104.800 69.333,104.514 61.600,104.000 61.600 C 103.487 61.600,103.200 69.067,103.200 82.400 M297.914 62.865 C 298.181 63.561,298.400 73.281,298.400 84.465 L 298.400 104.800 306.047 104.800 C 310.942 104.800,313.516 104.512,313.200 104.000 C 312.928 103.560,309.847 103.200,306.353 103.200 L 300.000 103.200 300.000 82.400 C 300.000 63.829,299.862 61.600,298.714 61.600 C 297.871 61.600,297.596 62.035,297.914 62.865 M70.397 74.400 C 70.178 78.580,70.090 82.150,70.200 82.333 C 70.943 83.570,71.231 80.779,71.028 74.302 L 70.794 66.800 70.397 74.400 M332.109 74.600 C 332.049 78.890,332.277 82.400,332.616 82.400 C 332.954 82.400,333.119 79.610,332.981 76.200 C 332.596 66.658,332.229 65.985,332.109 74.600 M53.600 104.000 C 53.600 104.483,56.949 104.800,62.047 104.800 C 67.475 104.800,70.318 104.514,70.000 104.000 C 69.724 103.553,65.992 103.200,61.553 103.200 C 56.784 103.200,53.600 103.520,53.600 104.000 M333.200 104.000 C 332.881 104.516,335.992 104.800,341.953 104.800 C 347.584 104.800,351.200 104.487,351.200 104.000 C 351.200 103.515,347.749 103.200,342.447 103.200 C 337.475 103.200,333.481 103.546,333.200 104.000 M36.000 231.600 C 36.000 232.260,36.360 232.800,36.800 232.800 C 37.240 232.800,37.600 232.260,37.600 231.600 C 37.600 230.940,37.240 230.400,36.800 230.400 C 36.360 230.400,36.000 230.940,36.000 231.600 M365.600 231.600 C 365.600 232.260,365.960 232.800,366.400 232.800 C 366.840 232.800,367.200 232.260,367.200 231.600 C 367.200 230.940,366.840 230.400,366.400 230.400 C 365.960 230.400,365.600 230.940,365.600 231.600 M157.600 296.000 C 157.600 296.480,160.800 296.800,165.600 296.800 C 170.400 296.800,173.600 296.480,173.600 296.000 C 173.600 295.520,170.400 295.200,165.600 295.200 C 160.800 295.200,157.600 295.520,157.600 296.000 M229.600 296.000 C 229.600 296.480,232.800 296.800,237.600 296.800 C 242.400 296.800,245.600 296.480,245.600 296.000 C 245.600 295.520,242.400 295.200,237.600 295.200 C 232.800 295.200,229.600 295.520,229.600 296.000 M52.000 316.800 C 52.000 317.240,52.540 317.600,53.200 317.600 C 53.860 317.600,54.400 317.240,54.400 316.800 C 54.400 316.360,53.860 316.000,53.200 316.000 C 52.540 316.000,52.000 316.360,52.000 316.800 M173.600 316.800 C 173.600 317.240,174.140 317.600,174.800 317.600 C 175.460 317.600,176.000 317.240,176.000 316.800 C 176.000 316.360,175.460 316.000,174.800 316.000 C 174.140 316.000,173.600 316.360,173.600 316.800 M227.200 316.800 C 227.200 317.240,227.740 317.600,228.400 317.600 C 229.060 317.600,229.600 317.240,229.600 316.800 C 229.600 316.360,229.060 316.000,228.400 316.000 C 227.740 316.000,227.200 316.360,227.200 316.800 M348.800 316.800 C 348.800 317.240,349.340 317.600,350.000 317.600 C 350.660 317.600,351.200 317.240,351.200 316.800 C 351.200 316.360,350.660 316.000,350.000 316.000 C 349.340 316.000,348.800 316.360,348.800 316.800 M69.600 359.800 C 69.600 360.549,72.213 360.800,80.000 360.800 C 87.787 360.800,90.400 360.549,90.400 359.800 C 90.400 359.051,87.787 358.800,80.000 358.800 C 72.213 358.800,69.600 359.051,69.600 359.800 M312.800 359.800 C 312.800 360.549,315.413 360.800,323.200 360.800 C 330.987 360.800,333.600 360.549,333.600 359.800 C 333.600 359.051,330.987 358.800,323.200 358.800 C 315.413 358.800,312.800 359.051,312.800 359.800 " stroke="none" fill="#e1e1e1" fill-rule="evenodd"></path><path id="path3" d="M122.400 51.985 C 122.400 64.510,120.314 63.334,141.991 63.027 C 157.400 62.808,157.979 62.742,157.913 61.200 C 157.875 60.320,157.789 55.550,157.722 50.600 L 157.600 41.600 140.000 41.600 L 122.400 41.600 122.400 51.985 M245.478 50.600 C 245.411 55.550,245.325 60.320,245.287 61.200 C 245.221 62.742,245.800 62.808,261.209 63.027 C 282.886 63.334,280.800 64.510,280.800 51.985 L 280.800 41.600 263.200 41.600 L 245.600 41.600 245.478 50.600 M71.844 94.773 L 71.600 105.603 80.000 105.603 L 88.400 105.603 88.000 95.002 L 87.600 84.400 79.844 84.172 L 72.087 83.943 71.844 94.773 M174.944 84.523 C 174.270 85.197,174.218 102.596,174.886 104.335 C 175.315 105.453,178.427 105.600,201.670 105.600 L 227.970 105.600 228.417 103.800 C 228.664 102.810,228.761 98.040,228.633 93.200 L 228.400 84.400 201.944 84.189 C 187.393 84.074,175.243 84.224,174.944 84.523 M315.598 85.000 C 315.404 85.550,315.145 90.411,315.023 95.802 L 314.800 105.603 323.200 105.603 L 331.600 105.603 331.357 94.801 L 331.113 84.000 323.532 84.000 C 318.187 84.000,315.846 84.295,315.598 85.000 " stroke="none" fill="#ff3333" fill-rule="evenodd"></path><path id="path4" d="M122.400 21.174 C 122.400 22.205,123.875 22.400,131.667 22.400 C 138.724 22.400,140.854 22.162,140.601 21.400 C 140.061 19.771,122.400 19.551,122.400 21.174 M262.933 20.533 C 261.441 22.025,263.182 22.400,271.600 22.400 C 279.244 22.400,280.800 22.197,280.800 21.200 C 280.800 19.943,264.145 19.322,262.933 20.533 M157.333 22.133 C 157.040 22.427,156.800 26.740,156.800 31.718 L 156.800 40.769 139.400 41.001 L 122.000 41.233 139.800 41.416 L 157.600 41.600 157.726 50.600 C 157.795 55.550,157.835 60.050,157.815 60.600 C 157.794 61.150,158.107 61.600,158.510 61.600 C 159.104 61.600,158.626 22.570,158.023 21.800 C 157.937 21.690,157.627 21.840,157.333 22.133 M244.800 30.626 C 244.800 35.643,244.564 44.664,244.276 50.674 C 243.921 58.066,244.022 61.600,244.587 61.600 C 245.046 61.600,245.406 61.150,245.385 60.600 C 245.365 60.050,245.405 55.550,245.474 50.600 L 245.600 41.600 263.400 41.416 L 281.200 41.233 263.800 41.001 L 246.400 40.769 246.400 31.632 C 246.400 26.403,246.058 22.283,245.600 22.000 C 245.085 21.681,244.800 24.750,244.800 30.626 M70.600 64.447 C 69.918 65.187,69.648 68.024,69.751 73.366 L 69.902 81.200 70.400 74.000 L 70.898 66.800 71.049 74.600 C 71.141 79.367,70.889 82.400,70.400 82.400 C 69.279 82.400,69.330 103.739,70.453 104.433 C 71.931 105.346,71.982 104.717,72.107 84.122 C 72.234 63.026,72.209 62.700,70.600 64.447 M87.481 64.193 C 87.030 64.922,87.956 104.156,88.437 104.680 C 89.986 106.369,90.400 101.937,90.400 83.686 C 90.400 63.514,89.912 60.258,87.481 64.193 M312.800 83.624 C 312.800 101.994,313.205 106.305,314.778 104.680 C 316.024 103.393,315.467 63.746,314.200 63.554 C 312.898 63.356,312.800 64.760,312.800 83.624 M331.141 64.143 C 330.917 68.151,331.291 104.357,331.559 104.625 C 331.743 104.809,332.278 104.723,332.747 104.433 C 333.870 103.739,333.921 82.400,332.800 82.400 C 332.311 82.400,332.059 79.367,332.151 74.600 L 332.302 66.800 332.800 74.000 L 333.298 81.200 333.449 73.343 C 333.566 67.273,333.327 65.213,332.400 64.286 C 331.470 63.356,331.187 63.323,331.141 64.143 " stroke="none" fill="#ff8c8c" fill-rule="evenodd"></path><path id="path5" d="M131.800 22.197 L 122.400 22.451 122.400 31.625 L 122.400 40.800 139.553 40.800 L 156.706 40.800 156.953 31.198 L 157.200 21.597 149.200 21.771 C 144.800 21.866,136.970 22.058,131.800 22.197 M246.247 31.082 L 246.494 40.800 263.647 40.800 L 280.800 40.800 280.800 31.600 L 280.800 22.400 275.800 22.397 C 273.050 22.396,265.220 22.163,258.400 21.879 L 246.000 21.363 246.247 31.082 M174.400 73.600 L 174.400 84.400 201.600 84.400 L 228.800 84.400 228.800 73.600 L 228.800 62.800 201.600 62.800 L 174.400 62.800 174.400 73.600 M72.143 72.472 C 72.122 77.571,72.300 82.251,72.538 82.872 C 73.004 84.086,87.174 84.596,87.226 83.400 C 87.240 83.070,87.330 78.390,87.426 73.000 L 87.600 63.200 79.890 63.200 L 72.180 63.200 72.143 72.472 M315.774 73.000 C 315.870 78.390,315.960 83.070,315.974 83.400 C 316.026 84.596,330.196 84.086,330.662 82.872 C 330.900 82.251,331.078 77.571,331.057 72.472 L 331.020 63.200 323.310 63.200 L 315.600 63.200 315.774 73.000 M123.200 157.600 L 123.200 230.400 130.676 230.400 C 140.699 230.400,140.800 230.281,140.800 218.537 L 140.800 209.600 149.625 209.600 L 158.451 209.600 158.225 200.200 L 158.000 190.800 149.400 190.573 L 140.800 190.346 140.800 179.200 L 140.800 168.054 149.400 167.827 L 158.000 167.600 158.000 157.600 L 158.000 147.600 149.400 147.373 L 140.800 147.146 140.800 126.373 L 140.800 105.600 148.200 105.575 C 158.477 105.539,158.400 105.626,158.400 94.112 L 158.400 84.800 140.800 84.800 L 123.200 84.800 123.200 157.600 M244.800 94.112 C 244.800 105.626,244.723 105.539,255.000 105.575 L 262.400 105.600 262.400 126.373 L 262.400 147.146 253.800 147.373 L 245.200 147.600 245.200 157.600 L 245.200 167.600 253.800 167.827 L 262.400 168.054 262.400 179.200 L 262.400 190.346 253.800 190.573 L 245.200 190.800 244.975 200.200 L 244.749 209.600 253.575 209.600 L 262.400 209.600 262.400 218.676 C 262.400 230.290,262.496 230.400,272.663 230.400 L 280.000 230.400 280.000 157.600 L 280.000 84.800 262.400 84.800 L 244.800 84.800 244.800 94.112 M160.573 106.942 L 158.345 108.114 158.573 116.257 L 158.800 124.400 164.780 124.639 C 173.839 125.000,174.400 124.492,174.400 115.931 C 174.400 111.115,174.088 108.788,173.400 108.467 C 172.600 108.093,172.600 107.907,173.400 107.533 C 173.950 107.277,174.400 106.737,174.400 106.333 C 174.400 105.143,163.042 105.643,160.573 106.942 M228.800 106.333 C 228.800 106.737,229.250 107.277,229.800 107.533 C 230.600 107.907,230.600 108.093,229.800 108.467 C 229.112 108.788,228.800 111.115,228.800 115.931 C 228.800 124.492,229.361 125.000,238.420 124.639 L 244.400 124.400 244.627 116.272 L 244.854 108.144 242.304 106.872 C 239.537 105.491,228.800 105.063,228.800 106.333 M72.000 219.657 C 72.000 299.413,72.165 313.080,73.143 314.057 C 73.956 314.870,76.267 315.200,81.143 315.200 L 88.000 315.200 88.000 220.800 L 88.000 126.400 80.000 126.400 L 72.000 126.400 72.000 219.657 M176.000 148.000 L 176.000 169.600 169.247 169.600 C 165.432 169.600,162.271 169.962,161.980 170.433 C 161.697 170.890,160.764 171.042,159.906 170.770 C 158.414 170.297,158.356 170.667,158.573 179.338 L 158.800 188.400 166.288 188.631 C 176.903 188.959,176.000 185.899,176.000 221.543 L 176.000 252.000 201.600 252.000 L 227.200 252.000 227.200 221.543 C 227.200 185.899,226.297 188.959,236.912 188.631 L 244.400 188.400 244.627 179.338 C 244.844 170.667,244.786 170.297,243.294 170.770 C 242.436 171.042,241.503 170.890,241.220 170.433 C 240.929 169.962,237.768 169.600,233.953 169.600 L 227.200 169.600 227.200 148.000 L 227.200 126.400 201.600 126.400 L 176.000 126.400 176.000 148.000 M315.200 220.800 L 315.200 315.200 322.057 315.200 C 326.933 315.200,329.244 314.870,330.057 314.057 C 331.035 313.080,331.200 299.413,331.200 219.657 L 331.200 126.400 323.200 126.400 L 315.200 126.400 315.200 220.800 M19.200 168.000 L 19.200 188.800 34.676 188.800 C 48.653 188.800,50.280 188.658,51.476 187.337 C 53.138 185.500,53.498 152.218,51.874 150.594 C 51.172 149.892,51.196 149.369,51.972 148.434 C 52.889 147.329,51.234 147.200,36.098 147.200 L 19.200 147.200 19.200 168.000 M351.228 148.434 C 352.004 149.369,352.028 149.892,351.326 150.594 C 349.585 152.335,350.073 185.856,351.863 187.476 C 353.117 188.611,355.514 188.800,368.663 188.800 L 384.000 188.800 384.000 168.000 L 384.000 147.200 367.102 147.200 C 351.966 147.200,350.311 147.329,351.228 148.434 M176.545 275.722 C 175.424 276.842,175.943 292.058,177.143 293.257 C 178.859 294.973,224.367 294.947,226.085 293.229 C 226.995 292.320,227.206 290.218,227.028 283.829 L 226.800 275.600 201.945 275.389 C 188.274 275.273,176.844 275.423,176.545 275.722 " stroke="none" fill="#c9a100" fill-rule="evenodd"></path><path id="path6" d="M140.177 10.600 L 140.400 21.200 149.400 21.426 L 158.400 21.652 158.400 10.826 L 158.400 0.000 149.177 0.000 L 139.954 0.000 140.177 10.600 M244.800 10.826 L 244.800 21.652 253.800 21.426 L 262.800 21.200 263.023 10.600 L 263.246 0.000 254.023 0.000 L 244.800 0.000 244.800 10.826 M193.600 21.200 C 193.600 21.860,193.022 22.400,192.316 22.400 C 191.192 22.400,191.067 23.602,191.316 32.000 L 191.600 41.600 184.322 41.600 C 178.365 41.600,176.732 41.871,175.322 43.094 C 173.583 44.602,172.921 46.114,174.400 45.200 C 174.915 44.882,175.200 47.830,175.200 53.467 C 175.200 64.261,172.322 63.200,201.600 63.200 C 230.878 63.200,228.000 64.261,228.000 53.467 C 228.000 47.830,228.285 44.882,228.800 45.200 C 230.279 46.114,229.617 44.602,227.878 43.094 C 226.468 41.871,224.835 41.600,218.878 41.600 L 211.600 41.600 211.884 32.000 C 212.133 23.602,212.008 22.400,210.884 22.400 C 210.178 22.400,209.600 21.860,209.600 21.200 C 209.600 20.213,208.178 20.000,201.600 20.000 C 195.022 20.000,193.600 20.213,193.600 21.200 M71.686 42.865 C 71.419 43.561,71.200 48.421,71.200 53.665 L 71.200 63.200 80.000 63.200 C 85.660 63.200,88.800 62.898,88.800 62.353 C 88.800 61.887,89.160 61.728,89.600 62.000 C 91.457 63.148,90.558 44.725,88.678 43.094 C 86.317 41.046,72.455 40.860,71.686 42.865 M314.522 43.094 C 312.642 44.725,311.743 63.148,313.600 62.000 C 314.040 61.728,314.400 61.887,314.400 62.353 C 314.400 62.898,317.540 63.200,323.200 63.200 L 332.000 63.200 332.000 53.665 C 332.000 48.421,331.781 43.561,331.514 42.865 C 330.745 40.860,316.883 41.046,314.522 43.094 " stroke="none" fill="#ffff00" fill-rule="evenodd"></path><path id="path7" d="M106.896 62.838 C 106.623 63.549,106.399 64.191,106.398 64.265 C 106.397 64.339,110.087 64.220,114.598 64.000 C 124.919 63.497,125.111 62.082,114.900 61.772 C 108.587 61.581,107.314 61.750,106.896 62.838 M160.000 62.800 C 159.127 63.852,159.947 64.000,166.677 64.000 C 173.169 64.000,174.279 63.815,173.889 62.800 C 173.535 61.876,172.000 61.600,167.212 61.600 C 162.663 61.600,160.729 61.922,160.000 62.800 M229.311 62.800 C 228.921 63.815,230.031 64.000,236.523 64.000 C 243.253 64.000,244.073 63.852,243.200 62.800 C 242.471 61.922,240.537 61.600,235.988 61.600 C 231.200 61.600,229.665 61.876,229.311 62.800 M280.397 62.406 C 279.654 63.607,281.245 63.919,289.411 64.171 C 295.322 64.354,296.739 64.184,296.411 63.335 C 296.185 62.749,296.000 62.119,296.000 61.935 C 296.000 61.196,280.861 61.653,280.397 62.406 M132.200 84.597 C 136.930 84.738,144.670 84.738,149.400 84.597 C 154.130 84.456,150.260 84.340,140.800 84.340 C 131.340 84.340,127.470 84.456,132.200 84.597 M253.800 84.597 C 258.530 84.738,266.270 84.738,271.000 84.597 C 275.730 84.456,271.860 84.340,262.400 84.340 C 252.940 84.340,249.070 84.456,253.800 84.597 M97.200 105.600 L 88.400 106.084 96.953 106.242 C 101.970 106.335,105.710 106.069,106.000 105.600 C 106.272 105.160,106.383 104.871,106.247 104.958 C 106.111 105.045,102.040 105.334,97.200 105.600 M158.445 105.549 C 159.080 105.871,163.020 105.888,167.200 105.587 L 174.800 105.039 166.045 105.001 C 161.230 104.980,157.810 105.226,158.445 105.549 M236.000 105.587 C 240.180 105.888,244.120 105.871,244.755 105.549 C 245.390 105.226,241.970 104.980,237.155 105.001 L 228.400 105.039 236.000 105.587 M297.506 105.829 C 297.854 106.176,301.888 106.354,306.469 106.225 L 314.800 105.991 305.837 105.596 C 300.907 105.378,297.158 105.483,297.506 105.829 M53.944 106.657 C 53.721 107.238,53.657 111.288,53.802 115.657 L 54.065 123.600 54.233 115.027 L 54.400 106.454 63.000 106.197 L 71.600 105.940 62.975 105.770 C 56.442 105.641,54.251 105.856,53.944 106.657 M175.048 115.000 C 174.912 120.170,174.911 124.670,175.047 125.000 C 175.370 125.784,227.826 125.784,228.165 125.000 C 228.308 124.670,228.206 120.080,227.940 114.800 L 227.455 105.200 227.424 114.800 L 227.394 124.400 201.600 124.400 L 175.806 124.400 175.946 115.000 C 176.022 109.830,175.907 105.600,175.691 105.600 C 175.474 105.600,175.185 109.830,175.048 115.000 M340.173 106.182 L 348.746 106.454 349.018 115.027 L 349.289 123.600 349.245 114.800 L 349.200 106.000 340.400 105.955 L 331.600 105.911 340.173 106.182 M53.328 125.155 C 52.922 126.212,49.294 126.408,26.629 126.600 L 0.400 126.823 26.502 127.011 C 52.430 127.199,56.659 126.792,54.213 124.346 C 53.984 124.118,53.586 124.482,53.328 125.155 M348.824 124.502 C 348.757 127.010,351.050 127.223,375.696 127.000 L 400.400 126.776 375.440 126.588 C 352.630 126.416,350.409 126.279,349.664 125.000 C 349.216 124.230,348.838 124.006,348.824 124.502 M71.447 125.800 C 70.629 127.064,69.788 315.200,70.600 315.200 C 70.930 315.200,71.200 272.944,71.200 221.298 C 71.200 141.809,71.372 127.253,72.319 126.467 C 73.042 125.867,76.091 125.620,80.919 125.769 L 88.400 126.000 88.603 220.600 C 88.715 272.630,89.075 315.200,89.403 315.200 C 90.425 315.200,89.722 127.111,88.695 125.874 C 87.484 124.414,72.386 124.349,71.447 125.800 M314.505 125.874 C 313.478 127.111,312.775 315.200,313.797 315.200 C 314.125 315.200,314.485 272.630,314.597 220.600 L 314.800 126.000 322.281 125.769 C 327.109 125.620,330.158 125.867,330.881 126.467 C 331.828 127.253,332.000 141.809,332.000 221.298 C 332.000 272.944,332.270 315.200,332.600 315.200 C 333.412 315.200,332.571 127.064,331.753 125.800 C 330.814 124.349,315.716 124.414,314.505 125.874 M53.464 166.517 C 53.653 180.283,53.465 185.999,52.795 186.806 C 52.282 187.424,52.090 188.298,52.368 188.749 C 52.706 189.295,47.200 189.646,35.837 189.801 L 18.800 190.034 36.114 190.217 C 51.274 190.377,53.489 190.243,53.914 189.135 C 54.620 187.296,54.512 148.164,53.800 147.723 C 53.470 147.518,53.319 155.976,53.464 166.517 M349.333 147.733 C 348.667 148.400,348.622 187.405,349.286 189.135 C 349.711 190.243,351.926 190.377,367.086 190.217 L 384.400 190.034 367.363 189.801 C 356.000 189.646,350.494 189.295,350.832 188.749 C 351.110 188.298,350.918 187.424,350.405 186.806 C 349.735 185.999,349.547 180.264,349.736 166.440 C 349.881 155.857,349.970 147.199,349.933 147.199 C 349.897 147.200,349.627 147.440,349.333 147.733 M158.921 190.200 C 158.716 190.530,160.944 190.701,163.874 190.579 C 173.154 190.195,174.243 189.860,166.647 189.728 C 162.603 189.658,159.126 189.870,158.921 190.200 M231.600 190.107 C 237.256 190.699,244.623 190.753,244.279 190.200 C 244.074 189.870,240.597 189.658,236.553 189.728 C 232.509 189.798,230.280 189.969,231.600 190.107 M174.549 242.200 L 174.400 293.600 167.000 293.751 L 159.600 293.902 166.800 294.351 C 171.235 294.628,174.190 294.493,174.494 294.000 C 175.467 292.425,175.811 262.184,175.259 226.800 L 174.698 190.800 174.549 242.200 M227.994 222.000 C 227.549 257.251,227.884 292.802,228.673 294.000 C 228.997 294.492,231.973 294.627,236.400 294.351 L 243.600 293.902 236.206 293.751 L 228.812 293.600 228.600 242.200 C 228.405 194.899,228.357 193.288,227.994 222.000 M53.412 261.771 C 53.528 290.466,53.888 314.208,54.212 314.532 C 54.535 314.856,54.705 291.378,54.589 262.360 C 54.472 233.342,54.112 209.600,53.789 209.600 C 53.465 209.600,53.295 233.077,53.412 261.771 M348.611 262.360 C 348.495 291.378,348.665 314.856,348.988 314.532 C 349.759 313.760,350.179 209.600,349.411 209.600 C 349.088 209.600,348.728 233.342,348.611 262.360 M140.063 229.889 C 140.003 231.311,139.234 231.351,122.800 230.791 C 107.228 230.260,105.600 230.327,105.600 231.502 C 105.600 232.216,105.960 232.800,106.400 232.800 C 106.840 232.800,107.200 232.440,107.200 232.000 C 107.200 231.523,110.267 231.200,114.800 231.200 C 118.980 231.200,122.400 231.470,122.400 231.800 C 122.400 232.130,126.720 232.400,132.000 232.400 C 137.280 232.400,141.600 232.130,141.600 231.800 C 141.600 230.708,157.425 231.097,157.870 232.200 C 158.111 232.797,158.299 232.636,158.337 231.800 C 158.393 230.548,157.475 230.400,149.667 230.400 C 143.429 230.400,140.818 230.114,140.530 229.400 C 140.301 228.834,140.099 229.046,140.063 229.889 M262.493 229.400 C 262.425 230.134,260.057 230.400,253.600 230.400 C 245.728 230.400,244.807 230.548,244.863 231.800 C 244.901 232.636,245.089 232.797,245.330 232.200 C 245.775 231.097,261.600 230.708,261.600 231.800 C 261.600 232.130,265.920 232.400,271.200 232.400 C 276.480 232.400,280.800 232.130,280.800 231.800 C 280.800 231.470,284.220 231.200,288.400 231.200 C 292.933 231.200,296.000 231.523,296.000 232.000 C 296.000 232.440,296.360 232.800,296.800 232.800 C 297.240 232.800,297.600 232.216,297.600 231.502 C 297.600 230.327,295.977 230.260,280.475 230.788 C 264.192 231.343,263.332 231.299,262.968 229.886 C 262.758 229.069,262.544 228.850,262.493 229.400 M26.400 230.400 L 18.000 230.887 25.400 231.043 C 29.696 231.134,32.800 231.536,32.800 232.000 C 32.800 233.448,34.204 232.834,34.632 231.200 C 34.862 230.320,34.994 229.670,34.925 229.757 C 34.856 229.843,31.020 230.132,26.400 230.400 M368.619 231.400 C 369.004 232.867,370.400 233.360,370.400 232.030 C 370.400 231.607,373.730 231.154,377.800 231.024 L 385.200 230.788 376.725 230.394 C 368.940 230.032,368.281 230.114,368.619 231.400 M127.000 273.392 C 129.750 273.549,134.250 273.549,137.000 273.392 C 139.750 273.236,137.500 273.108,132.000 273.108 C 126.500 273.108,124.250 273.236,127.000 273.392 M266.200 273.392 C 268.950 273.549,273.450 273.549,276.200 273.392 C 278.950 273.236,276.700 273.108,271.200 273.108 C 265.700 273.108,263.450 273.236,266.200 273.392 M189.800 294.998 C 196.290 295.133,206.910 295.133,213.400 294.998 C 219.890 294.864,214.580 294.754,201.600 294.754 C 188.620 294.754,183.310 294.864,189.800 294.998 M74.000 315.709 C 79.602 316.300,88.003 316.354,88.002 315.800 C 88.001 315.470,84.310 315.258,79.800 315.328 C 75.290 315.398,72.680 315.570,74.000 315.709 M192.800 357.840 L 193.199 400.400 193.407 358.447 C 193.521 335.373,193.341 316.221,193.007 315.887 C 192.673 315.553,192.580 334.431,192.800 357.840 M209.967 316.200 C 209.756 316.750,209.678 335.920,209.792 358.800 L 210.001 400.400 210.400 357.800 C 210.620 334.370,210.699 315.200,210.575 315.200 C 210.451 315.200,210.177 315.650,209.967 316.200 M315.198 315.800 C 315.197 316.130,317.807 316.301,320.998 316.181 C 330.962 315.805,331.930 315.461,323.400 315.328 C 318.890 315.258,315.199 315.470,315.198 315.800 M80.400 356.800 L 73.200 357.298 80.600 357.449 C 85.101 357.541,88.000 357.287,88.000 356.800 C 88.000 356.360,87.910 356.068,87.800 356.151 C 87.690 356.234,84.360 356.526,80.400 356.800 M315.199 357.000 C 315.199 357.330,318.530 357.542,322.600 357.472 C 330.124 357.342,329.228 357.025,320.199 356.623 C 317.448 356.500,315.198 356.670,315.199 357.000 " stroke="none" fill="#00657e" fill-rule="evenodd"></path><path id="path8" d="M140.800 126.400 L 140.800 147.200 149.400 147.031 L 158.000 146.863 149.800 146.603 L 141.600 146.344 141.600 126.372 L 141.600 106.400 149.600 106.400 L 157.600 106.400 157.612 115.400 C 157.628 126.745,157.266 126.287,166.427 126.568 L 174.000 126.800 174.214 147.400 L 174.427 168.000 166.837 168.000 L 159.248 168.000 158.998 157.800 L 158.748 147.600 158.574 157.773 L 158.400 167.946 149.800 168.173 L 141.200 168.400 141.200 179.200 L 141.200 190.000 150.000 190.226 L 158.800 190.452 158.551 180.729 C 158.293 170.614,158.694 167.487,159.982 169.571 C 160.544 170.481,160.910 170.504,161.886 169.695 C 162.667 169.047,165.232 168.755,169.143 168.869 C 172.470 168.966,175.194 168.810,175.196 168.523 C 175.198 168.235,175.200 158.314,175.200 146.476 L 175.200 124.951 168.886 125.384 C 165.414 125.622,161.604 125.574,160.420 125.277 L 158.267 124.736 158.534 115.167 L 158.800 105.598 149.800 105.599 L 140.800 105.600 140.800 126.400 M244.666 115.167 L 244.933 124.736 242.780 125.277 C 241.596 125.574,237.786 125.622,234.314 125.384 L 228.000 124.951 228.000 146.476 C 228.000 158.314,228.002 168.235,228.004 168.523 C 228.006 168.810,230.730 168.966,234.057 168.869 C 237.968 168.755,240.533 169.047,241.314 169.695 C 242.290 170.504,242.656 170.481,243.218 169.571 C 244.506 167.487,244.907 170.614,244.649 180.729 L 244.400 190.452 253.200 190.226 L 262.000 190.000 262.000 179.200 L 262.000 168.400 253.424 168.173 L 244.847 167.946 244.598 157.773 L 244.348 147.600 244.174 157.800 L 244.000 168.000 236.386 168.000 L 228.773 168.000 228.986 147.400 L 229.200 126.800 236.773 126.568 C 245.934 126.287,245.572 126.745,245.588 115.400 L 245.600 106.400 253.600 106.400 L 261.600 106.400 261.600 126.372 L 261.600 146.344 253.400 146.603 L 245.200 146.863 253.800 147.031 L 262.400 147.200 262.400 126.400 L 262.400 105.600 253.400 105.599 L 244.400 105.598 244.666 115.167 M156.335 169.286 C 157.390 169.691,157.600 171.346,157.600 179.270 C 157.600 190.342,158.073 189.841,147.991 189.439 L 142.000 189.200 141.773 179.664 C 141.605 172.572,141.810 169.960,142.573 169.476 C 143.768 168.718,154.470 168.570,156.335 169.286 M260.627 169.476 C 261.390 169.960,261.595 172.572,261.427 179.664 L 261.200 189.200 255.209 189.439 C 245.125 189.841,245.600 190.345,245.600 179.251 C 245.600 172.385,245.879 169.621,246.600 169.330 C 248.261 168.660,259.525 168.777,260.627 169.476 M175.711 253.200 C 175.907 253.710,185.283 254.000,201.600 254.000 C 217.917 254.000,227.293 253.710,227.489 253.200 C 227.690 252.677,218.736 252.400,201.600 252.400 C 184.464 252.400,175.510 252.677,175.711 253.200 M175.609 273.465 C 175.384 274.051,175.200 274.591,175.200 274.665 C 175.200 274.739,187.080 274.800,201.600 274.800 C 216.120 274.800,227.994 274.620,227.988 274.400 C 227.934 272.635,224.804 272.400,201.409 272.400 C 181.002 272.400,175.937 272.609,175.609 273.465 " stroke="none" fill="#50b6d5" fill-rule="evenodd"></path><path id="path9" d="M141.600 126.400 L 141.600 146.400 149.440 146.400 C 159.488 146.400,159.200 146.053,159.200 158.160 L 159.200 168.000 166.814 168.000 L 174.427 168.000 174.214 147.400 L 174.000 126.800 166.427 126.568 C 157.266 126.287,157.628 126.745,157.612 115.400 L 157.600 106.400 149.600 106.400 L 141.600 106.400 141.600 126.400 M245.588 115.400 C 245.572 126.745,245.934 126.287,236.773 126.568 L 229.200 126.800 228.986 147.400 L 228.773 168.000 236.386 168.000 L 244.000 168.000 244.000 158.160 C 244.000 146.053,243.712 146.400,253.760 146.400 L 261.600 146.400 261.600 126.400 L 261.600 106.400 253.600 106.400 L 245.600 106.400 245.588 115.400 M142.573 169.476 C 141.810 169.960,141.605 172.572,141.773 179.664 L 142.000 189.200 147.991 189.439 C 158.073 189.841,157.600 190.342,157.600 179.270 C 157.600 171.346,157.390 169.691,156.335 169.286 C 154.470 168.570,143.768 168.718,142.573 169.476 M246.600 169.330 C 245.879 169.621,245.600 172.385,245.600 179.251 C 245.600 190.345,245.125 189.841,255.209 189.439 L 261.200 189.200 261.427 179.664 C 261.595 172.572,261.390 169.960,260.627 169.476 C 259.525 168.777,248.261 168.660,246.600 169.330 M176.350 254.643 C 176.125 255.229,176.044 259.464,176.170 264.054 L 176.400 272.400 201.600 272.400 L 226.800 272.400 226.800 263.200 L 226.800 254.000 201.779 253.789 C 181.532 253.617,176.681 253.780,176.350 254.643 " stroke="none" fill="#00ffcc" fill-rule="evenodd"></path></g></svg>