<svg id="svg" version="1.1" width="500" height="500" xmlns="http://www.w3.org/2000/svg" xmlns:xlink="http://www.w3.org/1999/xlink" style="display: block;"><g id="svgg"><path id="path0" d="M191.200 15.600 L 191.200 31.200 183.200 31.200 L 175.200 31.200 175.200 55.200 L 175.200 79.200 167.200 79.200 L 159.200 79.200 159.200 127.200 L 159.200 175.200 151.200 175.200 L 143.200 175.200 143.200 199.200 L 143.200 223.200 119.200 223.200 L 95.200 223.200 95.200 231.200 L 95.200 239.200 64.000 239.200 L 32.800 239.200 32.800 231.200 L 32.800 223.200 24.800 223.200 L 16.800 223.200 16.800 215.200 L 16.800 207.200 8.400 207.200 L 0.000 207.200 0.000 256.000 L 0.000 304.800 16.400 304.800 L 32.800 304.800 32.800 296.800 L 32.800 288.800 88.000 288.800 L 143.200 288.800 143.200 296.000 L 143.200 303.200 127.200 303.200 L 111.200 303.200 111.200 336.000 L 111.200 368.800 120.000 368.800 L 128.800 368.800 128.800 360.800 L 128.800 352.800 136.000 352.800 L 143.200 352.800 143.200 360.800 L 143.200 368.800 151.200 368.800 L 159.200 368.800 159.200 376.800 L 159.200 384.800 200.000 384.800 L 240.800 384.800 240.800 376.800 L 240.800 368.800 248.800 368.800 L 256.800 368.800 256.800 360.800 L 256.800 352.800 264.000 352.800 L 271.200 352.800 271.200 360.800 L 271.200 368.800 280.000 368.800 L 288.800 368.800 288.800 336.000 L 288.800 303.200 272.800 303.200 L 256.800 303.200 256.800 296.000 L 256.800 288.800 312.000 288.800 L 367.200 288.800 367.200 296.800 L 367.200 304.800 383.600 304.800 L 400.000 304.800 400.000 256.000 L 400.000 207.200 391.600 207.200 L 383.200 207.200 383.200 215.200 L 383.200 223.200 375.200 223.200 L 367.200 223.200 367.200 231.200 L 367.200 239.200 336.000 239.200 L 304.800 239.200 304.800 231.200 L 304.800 223.200 280.800 223.200 L 256.800 223.200 256.800 199.200 L 256.800 175.200 248.800 175.200 L 240.800 175.200 240.800 127.200 L 240.800 79.200 232.800 79.200 L 224.800 79.200 224.800 55.200 L 224.800 31.200 216.800 31.200 L 208.800 31.200 208.800 15.600 L 208.800 0.000 200.000 0.000 L 191.200 0.000 191.200 15.600 M208.612 55.371 L 208.824 79.142 216.612 79.371 L 224.400 79.600 224.606 127.371 L 224.813 175.142 232.606 175.371 L 240.400 175.600 240.612 199.371 L 240.824 223.142 248.612 223.371 L 256.400 223.600 256.629 231.388 L 256.858 239.176 280.629 239.388 L 304.400 239.600 304.629 247.400 L 304.858 255.200 335.829 255.212 C 352.863 255.219,367.264 255.519,367.831 255.878 C 368.585 256.357,368.799 258.658,368.631 264.466 L 368.400 272.400 304.200 272.605 L 240.000 272.810 240.003 276.605 C 240.005 278.692,240.240 285.518,240.526 291.773 L 241.046 303.145 248.723 303.373 L 256.400 303.600 256.400 320.000 L 256.400 336.400 248.617 336.629 L 240.834 336.858 240.617 352.629 L 240.400 368.400 232.466 368.631 C 222.977 368.906,223.229 369.146,223.212 359.800 L 223.200 352.800 216.029 352.800 L 208.858 352.800 208.629 360.600 L 208.400 368.400 200.466 368.631 C 190.977 368.906,191.229 369.146,191.212 359.800 L 191.200 352.800 184.029 352.800 L 176.858 352.800 176.629 360.600 L 176.400 368.400 168.000 368.400 L 159.600 368.400 159.383 352.600 L 159.166 336.800 151.598 336.800 C 142.383 336.800,143.066 338.329,143.373 318.400 L 143.600 303.600 151.277 303.373 L 158.955 303.145 159.477 292.246 C 159.765 286.252,160.000 279.424,160.000 277.074 L 160.000 272.800 96.086 272.800 C 38.542 272.800,32.123 272.674,31.686 271.535 C 30.786 269.192,31.158 257.162,32.160 256.160 C 32.874 255.446,41.078 255.200,64.131 255.200 L 95.142 255.200 95.371 247.400 L 95.600 239.600 119.371 239.388 L 143.142 239.176 143.371 231.388 L 143.600 223.600 151.388 223.371 L 159.176 223.142 159.388 199.371 L 159.600 175.600 167.394 175.371 L 175.187 175.142 175.394 127.371 L 175.600 79.600 183.400 79.371 L 191.200 79.142 191.200 55.704 C 191.200 42.814,191.452 32.015,191.760 31.707 C 192.067 31.399,195.937 31.249,200.360 31.374 L 208.400 31.600 208.612 55.371 " stroke="none" fill="#000000" fill-rule="evenodd"></path><path id="path1" d="M191.760 31.707 C 191.452 32.015,191.200 42.814,191.200 55.704 L 191.200 79.142 183.400 79.371 L 175.600 79.600 175.394 127.371 L 175.187 175.142 167.394 175.371 L 159.600 175.600 159.388 199.371 L 159.176 223.142 151.388 223.371 L 143.600 223.600 143.371 231.388 L 143.142 239.176 119.371 239.388 L 95.600 239.600 95.371 247.400 L 95.142 255.200 64.131 255.200 C 28.134 255.200,31.142 254.359,31.353 264.360 L 31.506 271.600 31.953 264.000 L 32.400 256.400 64.200 256.191 L 96.000 255.982 96.000 247.991 L 96.000 240.000 120.000 240.000 L 144.000 240.000 144.000 232.000 L 144.000 224.000 151.988 224.000 L 159.976 224.000 160.188 200.200 L 160.400 176.400 168.194 176.171 L 175.987 175.942 176.194 128.171 L 176.400 80.400 184.188 80.171 L 191.976 79.942 192.188 56.171 L 192.400 32.400 200.000 32.400 L 207.600 32.400 207.812 56.171 L 208.024 79.942 215.812 80.171 L 223.600 80.400 223.806 128.171 L 224.013 175.942 231.806 176.171 L 239.600 176.400 239.812 200.200 L 240.024 224.000 248.012 224.000 L 256.000 224.000 256.000 232.000 L 256.000 240.000 280.000 240.000 L 304.000 240.000 304.000 248.000 L 304.000 256.000 335.800 255.810 L 367.600 255.619 336.229 255.400 L 304.858 255.181 304.629 247.391 L 304.400 239.600 280.629 239.388 L 256.858 239.176 256.629 231.388 L 256.400 223.600 248.612 223.371 L 240.824 223.142 240.612 199.371 L 240.400 175.600 232.606 175.371 L 224.813 175.142 224.606 127.371 L 224.400 79.600 216.612 79.371 L 208.824 79.142 208.612 55.371 L 208.400 31.600 200.360 31.374 C 195.937 31.249,192.067 31.399,191.760 31.707 M192.273 188.200 C 192.559 194.470,192.795 201.504,192.797 203.830 L 192.800 208.060 200.200 207.830 L 207.600 207.600 207.817 192.200 L 208.035 176.800 199.893 176.800 L 191.751 176.800 192.273 188.200 M368.166 263.800 L 368.000 272.000 307.400 272.003 C 274.070 272.005,241.657 272.241,235.372 272.529 L 223.943 273.051 224.172 280.326 L 224.400 287.600 232.000 288.000 L 239.600 288.400 239.829 296.171 L 240.057 303.943 247.829 304.171 L 255.600 304.400 255.600 320.000 L 255.600 335.600 247.817 335.829 L 240.034 336.058 239.817 351.829 L 239.600 367.600 232.000 367.600 L 224.400 367.600 224.171 359.771 L 223.941 351.943 216.171 352.171 L 208.400 352.400 208.000 360.000 L 207.600 367.600 200.000 367.600 L 192.400 367.600 192.171 359.771 L 191.941 351.943 184.171 352.171 L 176.400 352.400 176.000 360.000 L 175.600 367.600 168.000 367.600 L 160.400 367.600 160.183 351.829 L 159.966 336.058 152.183 335.829 L 144.400 335.600 144.400 320.000 L 144.400 304.400 152.171 304.171 L 159.943 303.943 160.171 296.171 L 160.400 288.400 168.200 288.171 L 176.000 287.942 176.000 280.458 L 176.000 272.975 160.600 272.440 C 152.130 272.145,119.640 272.019,88.400 272.158 L 31.600 272.411 95.800 272.605 L 160.000 272.800 160.000 277.074 C 160.000 279.424,159.765 286.252,159.477 292.246 L 158.955 303.145 151.277 303.373 L 143.600 303.600 143.373 318.400 C 143.066 338.329,142.383 336.800,151.598 336.800 L 159.166 336.800 159.383 352.600 L 159.600 368.400 168.000 368.400 L 176.400 368.400 176.629 360.600 L 176.858 352.800 184.029 352.800 L 191.200 352.800 191.212 359.800 C 191.229 369.146,190.977 368.906,200.466 368.631 L 208.400 368.400 208.629 360.600 L 208.858 352.800 216.029 352.800 L 223.200 352.800 223.212 359.800 C 223.229 369.146,222.977 368.906,232.466 368.631 L 240.400 368.400 240.617 352.629 L 240.834 336.858 248.617 336.629 L 256.400 336.400 256.400 320.000 L 256.400 303.600 248.723 303.373 L 241.046 303.145 240.526 291.773 C 240.240 285.518,240.005 278.690,240.003 276.600 L 240.000 272.800 304.025 272.800 C 356.440 272.800,368.124 272.608,368.457 271.740 C 368.681 271.157,368.744 267.287,368.598 263.140 L 368.332 255.600 368.166 263.800 M176.800 264.400 L 176.800 272.000 184.400 272.000 L 192.000 272.000 192.000 264.400 L 192.000 256.800 184.400 256.800 L 176.800 256.800 176.800 264.400 M208.000 264.429 L 208.000 272.058 215.800 271.829 L 223.600 271.600 223.830 264.200 L 224.060 256.800 216.030 256.800 L 208.000 256.800 208.000 264.429 " stroke="none" fill="#3a3a3a" fill-rule="evenodd"></path><path id="path2" d="M192.800 55.840 C 192.800 82.725,193.491 80.800,183.840 80.800 L 176.800 80.800 176.800 127.840 C 176.800 181.849,177.724 176.800,167.840 176.800 L 160.800 176.800 160.800 196.273 C 160.800 206.983,160.564 221.203,160.275 227.873 L 159.750 240.000 151.875 240.000 L 144.000 240.000 144.000 248.000 L 144.000 256.000 152.000 256.000 L 160.000 256.000 160.000 248.000 L 160.000 240.000 167.988 240.000 L 175.976 240.000 176.188 216.200 L 176.400 192.400 184.194 192.171 L 191.987 191.942 192.194 144.171 L 192.400 96.400 200.200 96.171 L 208.000 95.942 208.000 143.942 L 208.000 191.942 215.800 192.171 L 223.600 192.400 223.812 216.200 L 224.024 240.000 232.012 240.000 L 240.000 240.000 240.000 247.943 L 240.000 255.886 247.218 256.143 C 256.615 256.477,256.000 257.053,256.000 247.933 L 256.000 240.000 248.089 240.000 L 240.177 240.000 239.617 223.000 C 239.309 213.650,239.179 199.430,239.328 191.399 L 239.600 176.798 232.298 176.799 C 222.212 176.800,223.128 181.849,223.381 127.695 L 223.600 80.800 216.298 80.800 C 206.399 80.800,207.086 82.733,207.365 55.675 L 207.600 32.799 200.200 32.799 L 192.800 32.800 192.800 55.840 M192.351 224.879 C 192.033 225.394,191.913 236.297,192.086 249.108 L 192.400 272.400 184.629 272.629 L 176.857 272.857 176.629 280.629 L 176.400 288.400 168.629 288.629 L 160.857 288.857 160.629 296.629 L 160.400 304.400 152.600 304.629 L 144.800 304.858 144.800 320.029 L 144.800 335.200 152.370 335.200 L 159.940 335.200 160.170 327.800 L 160.400 320.400 168.171 320.171 L 175.943 319.943 176.171 312.171 L 176.400 304.400 184.183 304.171 L 191.966 303.942 192.183 288.171 L 192.400 272.400 200.000 272.400 L 207.600 272.400 207.817 288.200 L 208.034 304.000 216.017 304.000 L 224.000 304.000 224.000 312.000 L 224.000 320.000 232.000 320.000 L 240.000 320.000 240.000 327.600 L 240.000 335.200 247.600 335.200 L 255.200 335.200 255.200 320.029 L 255.200 304.858 247.400 304.629 L 239.600 304.400 239.371 296.600 L 239.142 288.800 232.018 288.800 C 223.476 288.800,223.621 288.960,223.910 279.853 L 224.131 272.857 215.986 272.629 L 207.840 272.400 207.720 248.400 L 207.600 224.400 200.265 224.171 C 195.299 224.016,192.743 224.244,192.351 224.879 M96.171 263.640 L 96.400 271.279 120.000 271.281 L 143.600 271.283 144.000 264.425 C 144.220 260.653,144.280 257.214,144.133 256.783 C 143.967 256.296,134.821 256.000,119.904 256.000 L 95.942 256.000 96.171 263.640 M256.171 263.640 L 256.400 271.279 280.000 271.279 L 303.600 271.279 303.829 263.640 L 304.058 256.000 280.000 256.000 L 255.942 256.000 256.171 263.640 " stroke="none" fill="#8e8e8e" fill-rule="evenodd"></path><path id="path3" d="M192.362 33.010 C 192.149 33.566,192.076 44.276,192.200 56.810 L 192.426 79.600 192.613 56.230 L 192.800 32.860 200.200 32.596 L 207.600 32.332 200.175 32.166 C 194.806 32.046,192.642 32.280,192.362 33.010 M207.552 56.800 C 207.552 69.340,207.663 74.470,207.798 68.200 C 207.933 61.930,207.933 51.670,207.798 45.400 C 207.663 39.130,207.552 44.260,207.552 56.800 M176.367 81.000 C 176.157 81.550,176.081 103.060,176.199 128.800 L 176.413 175.600 176.607 128.230 L 176.800 80.860 184.200 80.596 L 191.600 80.332 184.175 80.166 C 178.845 80.047,176.642 80.282,176.367 81.000 M212.200 80.588 C 214.290 80.753,217.710 80.753,219.800 80.588 C 221.890 80.423,220.180 80.288,216.000 80.288 C 211.820 80.288,210.110 80.423,212.200 80.588 M223.575 128.800 C 223.575 154.540,223.676 165.070,223.800 152.200 C 223.923 139.330,223.923 118.270,223.800 105.400 C 223.676 92.530,223.575 103.060,223.575 128.800 M192.400 176.000 C 192.083 176.513,194.807 176.800,200.000 176.800 C 205.193 176.800,207.917 176.513,207.600 176.000 C 207.328 175.560,203.908 175.200,200.000 175.200 C 196.092 175.200,192.672 175.560,192.400 176.000 M160.533 176.533 C 160.240 176.827,160.000 187.627,160.000 200.533 L 160.000 224.000 152.000 224.000 L 144.000 224.000 144.000 232.000 L 144.000 240.000 120.000 240.000 L 96.000 240.000 96.000 247.991 L 96.000 255.982 64.200 256.191 L 32.400 256.400 32.171 264.200 L 31.942 272.000 64.571 271.809 L 97.200 271.619 65.000 271.400 L 32.800 271.182 32.800 264.000 L 32.800 256.818 64.600 256.609 L 96.400 256.400 96.629 248.612 L 96.858 240.824 120.629 240.612 L 144.400 240.400 144.629 232.629 L 144.857 224.857 152.629 224.629 L 160.400 224.400 160.612 200.630 L 160.824 176.860 168.212 176.596 L 175.600 176.332 168.333 176.166 C 164.337 176.075,160.827 176.240,160.533 176.533 M228.200 176.588 C 230.290 176.753,233.710 176.753,235.800 176.588 C 237.890 176.423,236.180 176.288,232.000 176.288 C 227.820 176.288,226.110 176.423,228.200 176.588 M239.552 200.800 C 239.552 213.340,239.663 218.470,239.798 212.200 C 239.933 205.930,239.933 195.670,239.798 189.400 C 239.663 183.130,239.552 188.260,239.552 200.800 M191.200 199.502 C 191.200 208.917,191.214 208.931,200.919 208.631 L 208.400 208.400 208.460 200.000 L 208.520 191.600 208.060 199.600 L 207.600 207.600 200.200 207.830 L 192.800 208.060 192.800 200.030 C 192.800 195.210,192.480 192.000,192.000 192.000 C 191.524 192.000,191.200 195.034,191.200 199.502 M247.371 224.596 L 255.143 224.857 255.371 232.629 L 255.600 240.400 279.371 240.612 L 303.142 240.824 303.371 248.612 L 303.600 256.400 335.400 256.609 L 367.200 256.818 367.200 264.000 L 367.200 271.182 335.000 271.400 L 302.800 271.619 335.400 271.809 L 368.000 272.000 368.000 264.000 L 368.000 256.000 336.000 256.000 L 304.000 256.000 304.000 248.000 L 304.000 240.000 280.000 240.000 L 256.000 240.000 256.000 232.000 L 256.000 224.000 247.800 224.167 L 239.600 224.335 247.371 224.596 M176.187 256.133 C 175.554 256.766,175.200 259.645,175.200 264.160 L 175.200 271.200 159.000 271.335 L 142.800 271.471 153.200 272.044 C 158.920 272.360,166.390 272.659,169.800 272.709 L 176.000 272.800 176.000 280.371 L 176.000 287.942 168.200 288.171 L 160.400 288.400 160.171 296.171 L 159.943 303.943 152.171 304.171 L 144.400 304.400 144.400 320.000 L 144.400 335.600 152.183 335.829 L 159.966 336.058 160.183 351.829 L 160.400 367.600 168.000 367.600 L 175.600 367.600 176.000 360.000 L 176.400 352.400 184.171 352.171 L 191.941 351.943 192.171 359.771 L 192.400 367.600 200.000 367.600 L 207.600 367.600 208.000 360.000 L 208.400 352.400 216.171 352.171 L 223.941 351.943 224.171 359.771 L 224.400 367.600 232.000 367.600 L 239.600 367.600 239.817 351.829 L 240.034 336.058 247.817 335.829 L 255.600 335.600 255.600 320.000 L 255.600 304.400 247.829 304.171 L 240.057 303.943 239.829 296.171 L 239.600 288.400 232.400 288.179 C 226.799 288.006,224.978 287.661,224.200 286.626 C 223.650 285.893,223.200 285.651,223.200 286.087 C 223.200 288.126,225.418 288.800,232.131 288.800 L 239.142 288.800 239.371 296.600 L 239.600 304.400 247.400 304.629 L 255.200 304.858 255.200 320.000 L 255.200 335.142 247.400 335.371 L 239.600 335.600 239.383 351.400 L 239.166 367.200 232.012 367.200 L 224.858 367.200 224.629 359.400 L 224.400 351.600 216.000 351.600 L 207.600 351.600 207.371 359.400 L 207.142 367.200 200.000 367.200 L 192.858 367.200 192.629 359.400 L 192.400 351.600 184.000 351.600 L 175.600 351.600 175.371 359.400 L 175.142 367.200 167.988 367.200 L 160.834 367.200 160.617 351.400 L 160.400 335.600 152.600 335.371 L 144.800 335.142 144.800 320.000 L 144.800 304.858 152.600 304.629 L 160.400 304.400 160.629 296.629 L 160.857 288.857 168.629 288.629 L 176.400 288.400 176.629 280.629 L 176.857 272.857 184.629 272.629 L 192.400 272.400 192.400 264.000 L 192.400 255.600 184.787 255.373 C 179.549 255.217,176.866 255.454,176.187 256.133 M208.000 256.000 C 208.000 256.480,211.210 256.800,216.030 256.800 L 224.060 256.800 223.830 264.200 L 223.600 271.600 215.864 271.828 C 209.431 272.018,208.064 271.847,207.746 270.813 C 207.463 269.894,207.397 269.939,207.492 270.984 C 207.650 272.731,223.686 273.224,244.400 272.120 L 257.200 271.438 241.000 271.319 L 224.800 271.200 224.800 264.160 C 224.800 259.751,224.441 256.761,223.840 256.160 C 222.645 254.965,208.000 254.817,208.000 256.000 M144.153 256.860 C 144.311 257.333,144.782 257.720,145.200 257.720 C 145.618 257.720,146.089 257.333,146.247 256.860 C 146.404 256.387,145.933 256.000,145.200 256.000 C 144.467 256.000,143.996 256.387,144.153 256.860 M254.155 256.512 C 253.516 257.151,254.238 258.400,255.247 258.400 C 255.661 258.400,256.000 257.860,256.000 257.200 C 256.000 255.963,255.056 255.611,254.155 256.512 M192.000 264.400 L 192.000 272.000 184.400 272.000 L 176.800 272.000 176.800 264.400 L 176.800 256.800 184.400 256.800 L 192.000 256.800 192.000 264.400 M109.000 271.798 C 115.050 271.934,124.950 271.934,131.000 271.798 C 137.050 271.662,132.100 271.551,120.000 271.551 C 107.900 271.551,102.950 271.662,109.000 271.798 M269.000 271.798 C 275.050 271.934,284.950 271.934,291.000 271.798 C 297.050 271.662,292.100 271.551,280.000 271.551 C 267.900 271.551,262.950 271.662,269.000 271.798 " stroke="none" fill="#835c00" fill-rule="evenodd"></path><path id="path4" d="M192.533 96.533 C 192.240 96.827,192.000 114.737,192.000 136.333 L 192.000 175.600 200.000 175.600 L 208.000 175.600 208.000 135.800 L 208.000 96.000 200.533 96.000 C 196.427 96.000,192.827 96.240,192.533 96.533 M176.533 192.533 C 176.240 192.827,176.000 203.627,176.000 216.533 L 176.000 240.000 168.000 240.000 L 160.000 240.000 160.000 232.400 L 160.000 224.800 152.400 224.800 L 144.800 224.800 144.800 232.400 L 144.800 240.000 152.400 240.000 L 160.000 240.000 160.000 248.000 L 160.000 256.000 153.600 256.000 C 144.969 256.000,144.000 256.928,144.000 265.200 L 144.000 271.200 159.600 271.200 L 175.200 271.200 175.200 264.160 C 175.200 255.263,175.265 255.200,184.543 255.200 L 191.965 255.200 192.183 239.800 L 192.400 224.400 200.000 224.400 L 207.600 224.400 207.817 239.800 L 208.035 255.200 215.457 255.200 C 224.735 255.200,224.800 255.263,224.800 264.160 L 224.800 271.200 240.400 271.200 L 256.000 271.200 256.000 265.200 C 256.000 256.928,255.031 256.000,246.400 256.000 L 240.000 256.000 240.000 248.000 L 240.000 240.000 247.600 240.000 L 255.200 240.000 255.200 232.400 L 255.200 224.800 247.600 224.800 L 240.000 224.800 240.000 232.400 L 240.000 240.000 232.012 240.000 L 224.024 240.000 223.812 216.200 L 223.600 192.400 216.228 192.170 L 208.857 191.941 208.628 200.170 L 208.400 208.400 200.919 208.631 C 191.214 208.931,191.200 208.917,191.200 199.502 L 191.200 192.000 184.133 192.000 C 180.247 192.000,176.827 192.240,176.533 192.533 M96.800 248.400 L 96.800 256.000 120.400 256.000 L 144.000 256.000 144.000 248.400 L 144.000 240.800 120.400 240.800 L 96.800 240.800 96.800 248.400 M256.000 248.400 L 256.000 256.000 279.600 256.000 L 303.200 256.000 303.200 248.400 L 303.200 240.800 279.600 240.800 L 256.000 240.800 256.000 248.400 M32.800 264.000 L 32.800 271.200 64.400 271.200 L 96.000 271.200 96.000 264.000 L 96.000 256.800 64.400 256.800 L 32.800 256.800 32.800 264.000 M304.000 264.000 L 304.000 271.200 335.600 271.200 L 367.200 271.200 367.200 264.000 L 367.200 256.800 335.600 256.800 L 304.000 256.800 304.000 264.000 M192.561 272.505 C 192.253 272.814,192.000 280.014,192.000 288.504 L 192.000 303.942 184.200 304.171 L 176.400 304.400 176.171 312.200 L 175.942 320.000 168.346 320.000 C 159.030 320.000,159.877 317.332,160.601 344.400 L 161.200 366.800 168.000 366.800 L 174.800 366.800 175.200 359.200 L 175.600 351.600 184.000 351.600 L 192.400 351.600 192.800 359.200 L 193.200 366.800 200.000 366.800 L 206.800 366.800 207.200 359.200 L 207.600 351.600 216.000 351.600 L 224.400 351.600 224.800 359.200 L 225.200 366.800 231.813 367.033 C 239.862 367.316,238.961 370.163,239.548 342.600 L 240.030 320.000 232.015 320.000 L 224.000 320.000 224.000 312.000 L 224.000 304.000 216.017 304.000 L 208.034 304.000 207.817 288.200 L 207.600 272.400 200.361 272.172 C 196.380 272.047,192.870 272.197,192.561 272.505 " stroke="none" fill="#bf8700" fill-rule="evenodd"></path></g></svg>