<svg id="svg" version="1.1" width="500" height="500" xmlns="http://www.w3.org/2000/svg" xmlns:xlink="http://www.w3.org/1999/xlink" style="display: block;"><g id="svgg"><path id="path0" d="M114.800 63.955 L 106.800 64.400 106.400 85.200 L 106.000 106.000 89.200 106.000 C 79.960 106.000,68.350 106.090,63.400 106.200 L 54.400 106.400 54.400 115.840 C 54.400 128.331,57.163 127.200,26.640 127.200 L 0.800 127.200 0.800 168.400 L 0.800 209.600 9.800 209.600 L 18.800 209.599 18.519 220.029 L 18.238 230.458 26.519 230.229 L 34.800 230.000 35.024 219.800 L 35.248 209.600 44.818 209.600 L 54.388 209.600 54.594 262.200 L 54.800 314.800 62.400 314.800 L 70.000 314.800 70.400 220.800 C 70.620 169.100,71.091 126.350,71.447 125.800 C 72.388 124.346,87.484 124.414,88.699 125.878 C 89.344 126.656,89.650 153.087,89.797 220.878 L 90.000 314.800 95.600 315.046 C 98.680 315.182,102.382 315.073,103.827 314.805 L 106.454 314.317 106.227 272.358 L 106.000 230.399 114.596 230.400 L 123.192 230.400 123.396 157.400 L 123.600 84.400 140.800 84.400 L 158.000 84.400 158.223 94.513 C 158.483 106.262,157.860 105.571,168.200 105.589 L 174.400 105.600 174.400 84.924 L 174.400 64.249 163.000 63.727 C 150.444 63.153,127.247 63.262,114.800 63.955 M236.600 63.796 L 228.800 64.058 228.800 84.829 L 228.800 105.600 235.000 105.589 C 245.340 105.571,244.717 106.262,244.977 94.513 L 245.200 84.400 262.400 84.400 L 279.600 84.400 279.804 157.400 L 280.008 230.400 288.604 230.400 L 297.200 230.399 296.973 272.358 L 296.746 314.317 299.373 314.805 C 300.818 315.073,304.520 315.182,307.600 315.046 L 313.200 314.800 313.403 220.878 C 313.550 153.087,313.856 126.656,314.501 125.878 C 315.716 124.414,330.812 124.346,331.753 125.800 C 332.109 126.350,332.580 169.100,332.800 220.800 L 333.200 314.800 340.800 314.800 L 348.400 314.800 348.606 262.200 L 348.812 209.600 358.382 209.600 L 367.952 209.600 368.176 219.800 L 368.400 230.000 376.681 230.229 L 384.962 230.458 384.681 220.029 L 384.400 209.599 392.200 209.600 L 400.000 209.600 400.000 168.400 L 400.000 127.200 375.360 127.200 C 346.206 127.200,348.800 128.309,348.800 115.840 L 348.800 106.400 339.800 106.200 C 334.850 106.090,323.240 106.000,314.000 106.000 L 297.200 106.000 296.800 85.200 L 296.400 64.400 287.600 63.902 C 278.558 63.390,250.456 63.332,236.600 63.796 M176.494 106.247 C 176.274 106.603,176.027 110.833,175.944 115.647 L 175.794 124.400 201.600 124.400 L 227.406 124.400 227.256 115.647 C 227.173 110.833,226.926 106.603,226.706 106.247 C 226.183 105.401,177.017 105.401,176.494 106.247 M54.225 167.200 C 54.349 177.980,54.252 187.610,54.010 188.600 C 53.570 190.397,53.542 190.400,36.385 190.400 L 19.200 190.400 19.200 168.784 L 19.200 147.169 36.600 147.384 L 54.000 147.600 54.225 167.200 M384.000 168.800 L 384.000 190.400 366.886 190.400 C 352.017 190.400,349.707 190.234,349.286 189.135 C 348.622 187.405,348.667 148.400,349.333 147.733 C 349.627 147.440,357.547 147.200,366.933 147.200 L 384.000 147.200 384.000 168.800 M158.933 190.933 C 158.640 191.227,158.400 195.714,158.400 200.906 L 158.400 210.346 149.800 210.573 L 141.200 210.800 140.975 220.600 L 140.751 230.400 149.375 230.400 L 158.000 230.399 157.764 261.330 C 157.492 296.950,156.524 293.570,167.000 293.588 L 174.400 293.600 174.400 242.000 L 174.400 190.400 166.933 190.400 C 162.827 190.400,159.227 190.640,158.933 190.933 M228.800 241.971 L 228.800 293.600 236.200 293.588 C 246.676 293.570,245.708 296.950,245.436 261.330 L 245.200 230.399 253.825 230.400 L 262.449 230.400 262.225 220.600 L 262.000 210.800 253.424 210.573 L 244.849 210.346 244.624 200.573 L 244.400 190.800 236.600 190.571 L 228.800 190.342 228.800 241.971 M122.958 232.509 C 122.651 232.816,122.400 242.007,122.400 252.933 L 122.400 272.800 132.014 272.800 L 141.627 272.800 141.414 252.600 L 141.200 232.400 132.358 232.175 C 127.495 232.052,123.265 232.202,122.958 232.509 M262.158 232.509 C 261.851 232.816,261.600 242.007,261.600 252.933 L 261.600 272.800 271.214 272.800 L 280.827 272.800 280.614 252.600 L 280.400 232.400 271.558 232.175 C 266.695 232.052,262.465 232.202,262.158 232.509 M176.382 296.200 C 176.135 297.190,176.038 301.780,176.167 306.400 L 176.400 314.800 184.800 315.200 L 193.200 315.600 193.407 357.800 L 193.614 400.000 201.600 400.000 L 209.586 400.000 209.793 357.800 L 210.000 315.600 218.400 315.200 L 226.800 314.800 227.033 306.400 C 227.162 301.780,227.065 297.190,226.818 296.200 L 226.370 294.400 201.600 294.400 L 176.830 294.400 176.382 296.200 M72.000 336.238 C 72.000 347.400,72.148 356.683,72.330 356.867 C 72.511 357.050,76.021 357.020,80.130 356.800 L 87.600 356.400 87.600 336.400 L 87.600 316.400 79.800 316.171 L 72.000 315.942 72.000 336.238 M315.733 316.533 C 314.970 317.296,315.071 355.826,315.837 356.299 C 316.188 356.516,319.698 356.771,323.637 356.866 L 330.800 357.038 331.014 336.519 L 331.227 316.000 323.747 316.000 C 319.633 316.000,316.027 316.240,315.733 316.533 " stroke="none" fill="#000000" fill-rule="evenodd"></path><path id="path1" d="M105.413 83.373 L 105.200 105.200 96.946 105.321 C 92.406 105.387,88.464 105.669,88.185 105.948 C 87.906 106.227,91.800 106.353,96.839 106.228 L 106.000 106.000 106.213 85.000 C 106.376 69.027,106.663 63.990,107.413 63.959 C 107.956 63.936,111.460 63.846,115.200 63.759 C 125.270 63.524,124.536 62.046,114.213 61.773 L 105.626 61.546 105.413 83.373 M158.600 62.600 C 158.831 63.293,160.978 63.600,165.600 63.600 C 170.222 63.600,172.369 63.293,172.600 62.600 C 172.851 61.848,171.111 61.600,165.600 61.600 C 160.089 61.600,158.349 61.848,158.600 62.600 M173.600 62.706 C 173.600 63.366,173.960 64.128,174.400 64.400 C 174.840 64.672,175.200 64.354,175.200 63.694 C 175.200 63.034,174.840 62.272,174.400 62.000 C 173.960 61.728,173.600 62.046,173.600 62.706 M228.583 62.083 C 228.263 62.404,228.000 63.219,228.000 63.893 C 228.000 64.794,228.237 64.883,228.890 64.230 C 229.380 63.740,229.642 62.926,229.473 62.420 C 229.305 61.914,228.904 61.763,228.583 62.083 M230.600 62.600 C 230.831 63.293,232.978 63.600,237.600 63.600 C 242.222 63.600,244.369 63.293,244.600 62.600 C 244.851 61.848,243.111 61.600,237.600 61.600 C 232.089 61.600,230.349 61.848,230.600 62.600 M280.434 62.345 C 279.601 63.693,281.519 64.100,288.204 63.995 C 291.832 63.938,295.244 63.915,295.787 63.945 C 296.537 63.987,296.825 69.036,296.987 85.000 L 297.200 106.000 306.361 106.228 C 311.400 106.353,315.294 106.227,315.015 105.948 C 314.736 105.669,310.794 105.387,306.254 105.321 L 298.000 105.200 297.787 83.400 L 297.574 61.600 289.234 61.600 C 284.647 61.600,280.687 61.935,280.434 62.345 M132.200 84.597 C 136.930 84.738,144.670 84.738,149.400 84.597 C 154.130 84.456,150.260 84.340,140.800 84.340 C 131.340 84.340,127.470 84.456,132.200 84.597 M253.800 84.597 C 258.530 84.738,266.270 84.738,271.000 84.597 C 275.730 84.456,271.860 84.340,262.400 84.340 C 252.940 84.340,249.070 84.456,253.800 84.597 M51.999 114.600 L 52.000 124.000 26.400 124.000 C 1.333 124.000,0.800 124.033,0.800 125.600 C 0.800 127.553,51.510 128.170,53.440 126.240 C 54.078 125.602,54.400 122.116,54.400 115.840 L 54.400 106.400 63.333 106.400 C 75.259 106.400,73.993 105.602,61.710 105.378 L 51.999 105.200 51.999 114.600 M157.886 106.000 C 159.322 107.436,160.500 107.532,161.276 106.276 C 161.617 105.725,161.497 105.569,160.979 105.889 C 160.501 106.185,159.884 106.060,159.608 105.613 C 159.332 105.166,158.561 104.800,157.896 104.800 C 156.820 104.800,156.819 104.933,157.886 106.000 M243.592 105.613 C 243.316 106.060,242.699 106.185,242.221 105.889 C 241.703 105.569,241.583 105.725,241.924 106.276 C 242.700 107.532,243.878 107.436,245.314 106.000 C 246.381 104.933,246.380 104.800,245.304 104.800 C 244.639 104.800,243.868 105.166,243.592 105.613 M331.478 105.800 C 331.273 106.130,335.087 106.400,339.953 106.400 L 348.800 106.400 348.800 115.840 C 348.800 122.116,349.122 125.602,349.760 126.240 C 351.688 128.168,400.000 127.553,400.000 125.600 C 400.000 124.035,399.467 124.000,375.600 124.000 L 351.200 124.000 351.201 114.600 L 351.201 105.200 341.526 105.200 C 336.204 105.200,331.683 105.470,331.478 105.800 M174.700 106.561 C 174.374 107.090,174.199 110.984,174.313 115.214 C 174.563 124.537,174.485 124.629,165.960 125.029 C 159.918 125.312,159.980 125.326,167.200 125.301 L 174.800 125.275 175.013 147.038 L 175.226 168.800 166.613 168.824 C 161.876 168.838,158.540 169.122,159.200 169.456 C 159.860 169.790,163.820 169.869,168.000 169.632 L 175.600 169.200 175.813 147.800 L 176.026 126.400 201.600 126.400 L 227.174 126.400 227.387 147.800 L 227.600 169.200 235.200 169.632 C 239.380 169.869,243.340 169.790,244.000 169.456 C 244.660 169.122,241.324 168.838,236.587 168.824 L 227.974 168.800 228.187 147.038 L 228.400 125.275 236.000 125.301 C 243.220 125.326,243.282 125.312,237.240 125.029 C 228.715 124.629,228.637 124.537,228.887 115.214 C 229.095 107.471,228.706 105.547,226.953 105.663 C 226.266 105.709,226.279 105.839,227.000 106.130 C 228.640 106.791,228.392 124.478,226.735 125.114 C 226.039 125.381,214.728 125.600,201.600 125.600 C 188.472 125.600,177.161 125.381,176.465 125.114 C 174.808 124.478,174.560 106.791,176.200 106.130 C 176.921 105.839,176.934 105.709,176.247 105.663 C 175.723 105.628,175.027 106.033,174.700 106.561 M71.003 220.174 L 70.800 314.800 62.606 315.028 L 54.412 315.256 54.206 262.628 L 54.000 210.000 44.600 209.775 L 35.200 209.549 35.200 219.975 L 35.200 230.400 26.800 230.400 C 19.867 230.400,18.400 230.610,18.400 231.600 C 18.400 232.590,19.867 232.800,26.800 232.800 C 31.436 232.800,35.200 232.467,35.200 232.057 C 35.200 231.649,35.766 230.749,36.457 230.057 C 37.149 229.366,37.329 228.800,36.857 228.800 C 35.934 228.800,35.612 213.941,36.486 211.665 C 36.881 210.636,38.371 210.400,44.486 210.400 L 52.000 210.400 52.000 262.714 C 52.000 309.680,52.129 315.078,53.265 315.514 C 53.961 315.781,57.921 316.000,62.065 316.000 L 69.600 316.000 69.600 336.714 C 69.600 360.924,68.297 358.526,81.357 358.345 L 90.400 358.220 90.400 337.110 L 90.400 316.000 98.400 316.000 C 102.800 316.000,106.400 315.721,106.400 315.380 C 106.400 315.039,102.621 314.899,98.003 315.070 L 89.607 315.381 89.403 220.691 L 89.200 126.000 80.203 125.774 L 71.207 125.548 71.003 220.174 M314.133 126.133 C 313.840 126.427,313.600 169.127,313.600 221.024 L 313.600 315.381 305.200 315.071 C 300.580 314.900,296.800 315.039,296.800 315.380 C 296.800 315.721,300.400 316.000,304.800 316.000 L 312.800 316.000 312.800 337.110 L 312.800 358.220 321.843 358.345 C 334.903 358.526,333.600 360.924,333.600 336.714 L 333.600 316.000 341.135 316.000 C 345.279 316.000,349.239 315.781,349.935 315.514 C 351.071 315.078,351.200 309.680,351.200 262.714 L 351.200 210.400 358.714 210.400 C 364.829 210.400,366.319 210.636,366.714 211.665 C 367.588 213.941,367.266 228.800,366.343 228.800 C 365.871 228.800,366.051 229.366,366.743 230.057 C 367.434 230.749,368.000 231.649,368.000 232.057 C 368.000 232.467,371.764 232.800,376.400 232.800 C 383.333 232.800,384.800 232.590,384.800 231.600 C 384.800 230.610,383.333 230.400,376.400 230.400 L 368.000 230.400 368.000 219.975 L 368.000 209.549 358.600 209.775 L 349.200 210.000 348.994 262.628 L 348.788 315.256 340.594 315.028 L 332.400 314.800 332.197 220.200 L 331.993 125.600 323.330 125.600 C 318.565 125.600,314.427 125.840,314.133 126.133 M88.000 220.800 L 88.000 315.200 80.960 315.200 C 76.551 315.200,73.561 314.841,72.960 314.240 C 72.224 313.504,72.000 291.449,72.000 219.840 L 72.000 126.400 80.000 126.400 L 88.000 126.400 88.000 220.800 M331.200 219.840 C 331.200 291.449,330.976 313.504,330.240 314.240 C 329.639 314.841,326.649 315.200,322.240 315.200 L 315.200 315.200 315.200 220.800 L 315.200 126.400 323.200 126.400 L 331.200 126.400 331.200 219.840 M52.946 148.000 C 52.821 148.660,52.755 157.602,52.798 167.872 C 52.854 181.062,52.602 186.874,51.941 187.672 C 51.192 188.574,47.813 188.800,35.102 188.800 C 25.034 188.800,19.200 189.093,19.200 189.600 C 19.200 190.880,52.747 190.669,53.239 189.387 C 53.453 188.830,53.525 179.020,53.400 167.587 C 53.274 156.154,53.070 147.340,52.946 148.000 M349.787 168.453 L 350.000 190.000 367.000 190.216 C 378.162 190.358,384.000 190.152,384.000 189.616 C 384.000 189.089,378.373 188.800,368.098 188.800 C 355.410 188.800,352.007 188.573,351.262 187.675 C 350.600 186.877,350.362 180.927,350.443 167.220 C 350.506 156.589,350.336 147.669,350.065 147.399 C 349.795 147.128,349.669 156.603,349.787 168.453 M145.029 168.592 C 147.575 168.751,151.535 168.750,153.829 168.589 C 156.123 168.428,154.040 168.297,149.200 168.299 C 144.360 168.301,142.483 168.433,145.029 168.592 M249.829 168.592 C 252.375 168.751,256.335 168.750,258.629 168.589 C 260.923 168.428,258.840 168.297,254.000 168.299 C 249.160 168.301,247.283 168.433,249.829 168.592 M157.200 189.600 L 155.600 190.288 157.200 190.393 C 158.080 190.452,162.310 190.456,166.600 190.404 L 174.400 190.309 174.400 221.107 C 174.400 240.776,174.689 252.084,175.200 252.400 C 176.884 253.441,176.226 191.653,174.537 190.124 C 172.922 188.662,160.272 188.280,157.200 189.600 M228.524 190.263 C 226.957 191.994,226.440 253.364,228.000 252.400 C 228.511 252.084,228.800 240.776,228.800 221.107 L 228.800 190.309 236.600 190.404 C 240.890 190.456,245.120 190.452,246.000 190.393 L 247.600 190.288 246.000 189.600 C 242.698 188.181,229.971 188.664,228.524 190.263 M144.200 190.188 C 146.290 190.353,149.710 190.353,151.800 190.188 C 153.890 190.023,152.180 189.888,148.000 189.888 C 143.820 189.888,142.110 190.023,144.200 190.188 M251.400 190.188 C 253.490 190.353,256.910 190.353,259.000 190.188 C 261.090 190.023,259.380 189.888,255.200 189.888 C 251.020 189.888,249.310 190.023,251.400 190.188 M9.171 210.199 C 14.922 210.368,18.154 210.792,18.558 211.429 C 18.984 212.098,19.179 211.965,19.188 211.000 C 19.199 209.736,18.288 209.616,9.800 209.770 L 0.400 209.940 9.171 210.199 M141.321 210.200 C 141.115 210.530,143.704 210.702,147.074 210.583 C 157.822 210.202,159.054 209.873,150.247 209.734 C 145.543 209.661,141.526 209.870,141.321 210.200 M247.200 210.118 C 253.824 210.706,262.223 210.753,261.879 210.200 C 261.674 209.870,257.657 209.661,252.953 209.734 C 248.249 209.808,245.660 209.981,247.200 210.118 M384.012 211.000 C 384.021 211.960,384.218 212.096,384.639 211.432 C 385.028 210.821,388.042 210.367,392.827 210.198 L 400.400 209.932 392.200 209.766 C 384.857 209.617,384.001 209.746,384.012 211.000 M139.537 229.583 C 139.093 230.027,131.676 230.460,122.377 230.583 C 111.966 230.721,106.073 231.091,106.200 231.600 C 106.328 232.113,115.600 232.400,132.000 232.400 C 148.400 232.400,157.672 232.113,157.800 231.600 C 157.922 231.112,154.480 230.712,148.969 230.574 C 143.414 230.434,140.122 230.049,140.416 229.574 C 141.034 228.574,140.541 228.579,139.537 229.583 M262.677 229.374 C 263.120 230.110,261.066 230.402,254.231 230.574 C 248.720 230.712,245.278 231.112,245.400 231.600 C 245.528 232.113,254.800 232.400,271.200 232.400 C 287.600 232.400,296.872 232.113,297.000 231.600 C 297.127 231.091,291.247 230.721,280.861 230.583 C 269.422 230.431,264.159 230.071,263.308 229.383 C 262.370 228.624,262.226 228.622,262.677 229.374 M122.400 274.400 C 122.400 275.911,122.933 276.000,132.000 276.000 C 141.327 276.000,144.616 274.929,140.335 273.286 C 136.691 271.888,122.400 272.776,122.400 274.400 M262.600 273.330 C 258.615 274.938,262.035 276.000,271.200 276.000 C 280.267 276.000,280.800 275.911,280.800 274.400 C 280.800 272.835,265.984 271.964,262.600 273.330 M174.944 274.923 C 174.645 275.222,174.400 279.637,174.401 284.733 L 174.402 294.000 166.201 293.931 C 161.091 293.888,160.262 293.964,164.000 294.133 C 174.387 294.601,173.600 293.699,173.600 305.122 C 173.600 316.702,172.888 315.971,184.200 315.989 L 191.200 316.000 191.200 358.000 C 191.200 394.909,191.346 400.000,192.407 400.000 C 193.471 400.000,193.590 394.979,193.407 357.800 L 193.200 315.600 184.800 315.200 L 176.400 314.800 176.254 304.400 C 176.174 298.680,176.039 289.860,175.954 284.800 L 175.800 275.600 201.600 275.600 L 227.400 275.600 227.246 284.800 C 227.161 289.860,227.026 298.680,226.946 304.400 L 226.800 314.800 218.400 315.200 L 210.000 315.600 209.793 357.800 C 209.610 394.979,209.729 400.000,210.793 400.000 C 211.854 400.000,212.000 394.909,212.000 358.000 L 212.000 316.000 219.000 315.989 C 230.312 315.971,229.600 316.702,229.600 305.122 C 229.600 293.699,228.813 294.601,239.200 294.133 C 242.965 293.963,242.153 293.888,237.022 293.931 L 228.844 294.000 228.622 284.400 L 228.400 274.800 201.944 274.589 C 187.393 274.474,175.243 274.624,174.944 274.923 M87.814 336.600 L 87.600 357.200 80.000 357.200 L 72.400 357.200 72.186 336.600 L 71.973 316.000 80.000 316.000 L 88.027 316.000 87.814 336.600 M331.014 336.600 L 330.800 357.200 323.200 357.200 L 315.600 357.200 315.386 336.600 L 315.173 316.000 323.200 316.000 L 331.227 316.000 331.014 336.600 " stroke="none" fill="#777777" fill-rule="evenodd"></path><path id="path2" d="M158.400 30.800 C 158.400 57.644,158.554 61.600,159.600 61.600 C 160.646 61.600,160.800 57.644,160.800 30.800 C 160.800 3.956,160.646 0.000,159.600 0.000 C 158.554 0.000,158.400 3.956,158.400 30.800 M242.400 30.800 C 242.400 57.644,242.554 61.600,243.600 61.600 C 244.646 61.600,244.800 57.644,244.800 30.800 C 244.800 3.956,244.646 0.000,243.600 0.000 C 242.554 0.000,242.400 3.956,242.400 30.800 M131.600 20.800 L 124.400 21.298 132.200 21.449 C 136.967 21.541,140.000 21.289,140.000 20.800 C 140.000 20.360,139.730 20.068,139.400 20.151 C 139.070 20.234,135.560 20.526,131.600 20.800 M191.200 21.200 C 191.200 21.860,191.740 22.400,192.400 22.400 C 193.060 22.400,193.600 21.860,193.600 21.200 C 193.600 20.540,193.060 20.000,192.400 20.000 C 191.740 20.000,191.200 20.540,191.200 21.200 M209.600 21.200 C 209.600 21.860,210.140 22.400,210.800 22.400 C 211.460 22.400,212.000 21.860,212.000 21.200 C 212.000 20.540,211.460 20.000,210.800 20.000 C 210.140 20.000,209.600 20.540,209.600 21.200 M263.200 20.984 C 263.200 21.323,266.710 21.551,271.000 21.491 C 279.615 21.371,278.942 21.004,269.400 20.619 C 265.990 20.481,263.200 20.646,263.200 20.984 M69.600 61.600 C 69.600 76.000,69.886 84.000,70.400 84.000 C 70.912 84.000,71.200 76.822,71.200 64.065 C 71.200 53.101,71.419 43.561,71.686 42.865 C 72.374 41.072,86.502 41.017,88.286 42.800 C 90.011 44.526,90.400 44.305,90.400 41.600 L 90.400 39.200 80.000 39.200 L 69.600 39.200 69.600 61.600 M173.600 41.600 C 173.600 44.305,173.989 44.526,175.714 42.800 C 176.611 41.903,178.819 41.600,184.457 41.600 C 190.629 41.600,192.000 41.382,192.000 40.400 C 192.000 39.403,190.444 39.200,182.800 39.200 L 173.600 39.200 173.600 41.600 M211.200 40.400 C 211.200 41.382,212.571 41.600,218.743 41.600 C 224.381 41.600,226.589 41.903,227.486 42.800 C 229.211 44.526,229.600 44.305,229.600 41.600 L 229.600 39.200 220.400 39.200 C 212.756 39.200,211.200 39.403,211.200 40.400 M312.800 41.600 C 312.800 44.305,313.189 44.526,314.914 42.800 C 316.698 41.017,330.826 41.072,331.514 42.865 C 331.781 43.561,332.000 53.101,332.000 64.065 C 332.000 76.822,332.288 84.000,332.800 84.000 C 333.314 84.000,333.600 76.000,333.600 61.600 L 333.600 39.200 323.200 39.200 L 312.800 39.200 312.800 41.600 M174.133 45.333 C 173.274 46.192,173.519 61.455,174.400 62.000 C 174.915 62.318,175.200 59.342,175.200 53.647 C 175.200 44.815,175.138 44.329,174.133 45.333 M228.000 53.600 C 228.000 59.326,228.285 62.318,228.800 62.000 C 229.246 61.724,229.600 58.007,229.600 53.600 C 229.600 49.193,229.246 45.476,228.800 45.200 C 228.285 44.882,228.000 47.874,228.000 53.600 M88.800 72.753 C 88.800 79.718,89.105 84.000,89.600 84.000 C 90.094 84.000,90.400 79.882,90.400 73.247 C 90.400 66.942,90.069 62.290,89.600 62.000 C 89.081 61.679,88.800 65.458,88.800 72.753 M103.200 82.369 L 103.200 103.138 96.200 103.369 C 86.495 103.689,87.485 105.200,97.400 105.200 L 105.200 105.200 105.413 83.400 C 105.599 64.359,105.472 61.600,104.413 61.600 C 103.360 61.600,103.200 64.343,103.200 82.369 M297.787 83.400 L 298.000 105.200 305.800 105.200 C 315.715 105.200,316.705 103.689,307.000 103.369 L 300.000 103.138 300.000 82.369 C 300.000 64.343,299.840 61.600,298.787 61.600 C 297.728 61.600,297.601 64.359,297.787 83.400 M313.333 62.133 C 312.450 63.017,312.706 84.000,313.600 84.000 C 314.095 84.000,314.400 79.733,314.400 72.800 C 314.400 66.640,314.280 61.600,314.133 61.600 C 313.987 61.600,313.627 61.840,313.333 62.133 M53.791 104.172 C 54.040 104.919,56.354 105.200,62.267 105.200 C 73.462 105.200,73.342 103.667,62.124 103.372 C 55.337 103.194,53.523 103.368,53.791 104.172 M332.555 103.712 C 331.206 105.061,333.556 105.600,340.782 105.600 C 348.773 105.600,351.200 105.207,351.200 103.914 C 351.200 103.110,333.351 102.916,332.555 103.712 M0.800 211.200 C 0.800 211.685,4.267 212.000,9.600 212.000 C 14.933 212.000,18.400 211.685,18.400 211.200 C 18.400 210.715,14.933 210.400,9.600 210.400 C 4.267 210.400,0.800 210.715,0.800 211.200 M36.486 211.665 C 35.657 213.825,35.932 228.800,36.800 228.800 C 37.283 228.800,37.600 225.467,37.600 220.400 L 37.600 212.000 44.800 212.000 C 49.067 212.000,52.000 211.674,52.000 211.200 C 52.000 209.738,37.053 210.187,36.486 211.665 M351.200 211.200 C 351.200 211.674,354.133 212.000,358.400 212.000 L 365.600 212.000 365.600 220.400 C 365.600 225.467,365.917 228.800,366.400 228.800 C 367.268 228.800,367.543 213.825,366.714 211.665 C 366.147 210.187,351.200 209.738,351.200 211.200 M384.800 211.200 C 384.800 211.677,387.867 212.000,392.400 212.000 C 396.933 212.000,400.000 211.677,400.000 211.200 C 400.000 210.723,396.933 210.400,392.400 210.400 C 387.867 210.400,384.800 210.723,384.800 211.200 M35.686 230.865 C 34.999 232.653,35.054 232.800,36.400 232.800 C 37.067 232.800,37.600 232.089,37.600 231.200 C 37.600 229.293,36.372 229.078,35.686 230.865 M365.600 231.200 C 365.600 232.089,366.133 232.800,366.800 232.800 C 368.146 232.800,368.201 232.653,367.514 230.865 C 366.828 229.078,365.600 229.293,365.600 231.200 M157.600 295.600 C 157.600 296.587,159.022 296.800,165.600 296.800 C 172.971 296.800,175.471 296.089,172.335 294.886 C 169.446 293.777,157.600 294.351,157.600 295.600 M230.600 294.930 C 227.751 296.080,230.447 296.800,237.600 296.800 C 244.178 296.800,245.600 296.587,245.600 295.600 C 245.600 294.409,233.257 293.858,230.600 294.930 M52.000 316.314 C 52.000 317.417,53.251 317.600,60.800 317.600 C 66.133 317.600,69.600 317.285,69.600 316.800 C 69.600 316.323,66.555 316.000,62.065 316.000 C 57.921 316.000,53.961 315.781,53.265 315.514 C 52.435 315.196,52.000 315.471,52.000 316.314 M173.600 316.307 C 173.600 317.419,174.829 317.600,182.400 317.600 C 187.733 317.600,191.200 317.285,191.200 316.800 C 191.200 316.328,188.326 315.996,184.200 315.989 C 180.350 315.983,176.390 315.761,175.400 315.496 C 174.077 315.141,173.600 315.356,173.600 316.307 M219.800 315.796 C 209.023 316.158,209.823 317.600,220.800 317.600 C 228.089 317.600,229.600 317.394,229.600 316.400 C 229.600 315.740,229.150 315.275,228.600 315.367 C 228.050 315.460,224.090 315.653,219.800 315.796 M341.800 315.797 C 330.699 316.148,331.182 317.600,342.400 317.600 C 349.689 317.600,351.200 317.394,351.200 316.400 C 351.200 315.740,350.930 315.276,350.600 315.369 C 350.270 315.462,346.310 315.654,341.800 315.797 M90.400 316.800 C 90.400 317.280,93.600 317.600,98.400 317.600 C 103.200 317.600,106.400 317.280,106.400 316.800 C 106.400 316.320,103.200 316.000,98.400 316.000 C 93.600 316.000,90.400 316.320,90.400 316.800 M296.800 316.800 C 296.800 317.280,300.000 317.600,304.800 317.600 C 309.600 317.600,312.800 317.280,312.800 316.800 C 312.800 316.320,309.600 316.000,304.800 316.000 C 300.000 316.000,296.800 316.320,296.800 316.800 M69.599 359.400 C 69.600 360.662,70.632 360.800,80.059 360.800 C 89.076 360.800,90.482 360.629,90.259 359.562 C 89.841 357.565,69.598 357.406,69.599 359.400 M313.135 358.333 C 311.180 360.277,313.315 360.800,323.200 360.800 C 332.571 360.800,333.600 360.662,333.601 359.400 C 333.601 358.093,314.385 357.091,313.135 358.333 " stroke="none" fill="#e1e1e1" fill-rule="evenodd"></path><path id="path3" d="M139.400 42.999 L 156.800 43.231 156.800 52.416 L 156.800 61.600 139.553 61.600 C 128.258 61.600,122.476 61.876,122.800 62.400 C 123.105 62.894,130.042 63.200,140.947 63.200 L 158.600 63.200 158.100 60.700 C 157.825 59.325,157.600 54.645,157.600 50.300 L 157.600 42.400 139.800 42.584 L 122.000 42.767 139.400 42.999 M245.600 50.300 C 245.600 54.645,245.375 59.325,245.100 60.700 L 244.600 63.200 262.253 63.200 C 273.158 63.200,280.095 62.894,280.400 62.400 C 280.724 61.876,274.942 61.600,263.647 61.600 L 246.400 61.600 246.400 52.416 L 246.400 43.231 263.800 42.999 L 281.200 42.767 263.400 42.584 L 245.600 42.400 245.600 50.300 M175.000 64.462 C 174.670 64.794,174.400 74.187,174.400 85.333 C 174.400 104.097,174.296 105.601,173.000 105.612 C 172.134 105.620,171.937 105.849,172.483 106.212 C 173.042 106.585,173.335 109.875,173.283 115.200 L 173.200 123.600 166.200 123.831 L 159.200 124.062 159.200 116.359 C 159.200 109.352,159.362 108.520,161.000 107.147 L 162.800 105.638 160.606 106.619 L 158.412 107.600 158.406 116.200 L 158.400 124.800 165.502 124.800 C 174.509 124.800,174.597 124.702,174.315 115.007 C 174.014 104.669,171.314 105.600,201.600 105.600 C 231.886 105.600,229.186 104.669,228.885 115.007 C 228.603 124.702,228.691 124.800,237.698 124.800 L 244.800 124.800 244.794 116.200 L 244.788 107.600 242.594 106.619 L 240.400 105.638 242.200 107.147 C 243.838 108.520,244.000 109.352,244.000 116.359 L 244.000 124.062 237.000 123.831 L 230.000 123.600 229.917 115.200 C 229.865 109.875,230.158 106.585,230.717 106.212 C 231.263 105.849,231.066 105.620,230.200 105.612 C 228.904 105.601,228.800 104.093,228.800 85.247 C 228.800 58.916,227.561 58.150,226.800 84.011 L 226.212 104.000 201.611 104.000 L 177.010 104.000 176.305 83.928 C 175.917 72.889,175.330 64.129,175.000 64.462 M87.328 94.200 L 87.200 104.000 80.600 104.127 C 76.970 104.196,73.370 104.201,72.600 104.136 C 71.830 104.072,71.200 104.375,71.200 104.809 C 71.200 105.281,74.669 105.600,79.800 105.601 L 88.400 105.602 88.177 97.401 C 87.834 84.755,87.469 83.383,87.328 94.200 M131.800 85.397 C 136.750 85.538,144.850 85.538,149.800 85.397 C 154.750 85.257,150.700 85.142,140.800 85.142 C 130.900 85.142,126.850 85.257,131.800 85.397 M253.400 85.397 C 258.350 85.538,266.450 85.538,271.400 85.397 C 276.350 85.257,272.300 85.142,262.400 85.142 C 252.500 85.142,248.450 85.257,253.400 85.397 M315.373 93.735 C 315.278 98.869,314.981 103.639,314.714 104.335 C 314.290 105.442,315.341 105.600,323.114 105.600 C 328.434 105.600,332.000 105.283,332.000 104.809 C 332.000 104.375,331.370 104.072,330.600 104.136 C 329.830 104.201,326.241 104.196,322.625 104.127 L 316.049 104.000 315.798 94.200 L 315.546 84.400 315.373 93.735 M157.138 103.982 C 156.722 104.398,152.786 104.842,148.391 104.969 L 140.400 105.200 140.400 126.400 L 140.400 147.600 149.000 147.827 L 157.600 148.054 157.600 157.600 L 157.600 167.146 149.000 167.373 L 140.400 167.600 140.400 179.200 L 140.400 190.800 149.401 190.841 L 158.403 190.882 149.601 190.615 L 140.800 190.348 140.800 179.174 L 140.800 168.000 149.624 168.000 L 158.448 168.000 158.224 157.800 L 158.000 147.600 149.400 147.373 L 140.800 147.146 140.800 126.373 L 140.800 105.600 148.600 105.588 C 155.646 105.577,159.482 104.815,158.323 103.657 C 158.087 103.420,157.553 103.567,157.138 103.982 M244.800 103.816 C 244.800 105.201,247.054 105.600,254.865 105.600 L 262.400 105.600 262.400 126.373 L 262.400 147.146 253.800 147.373 L 245.200 147.600 244.976 157.800 L 244.752 168.000 253.576 168.000 L 262.400 168.000 262.400 179.174 L 262.400 190.348 253.599 190.615 L 244.797 190.882 253.799 190.841 L 262.800 190.800 262.800 179.200 L 262.800 167.600 254.200 167.373 L 245.600 167.146 245.600 157.600 L 245.600 148.054 254.200 147.827 L 262.800 147.600 262.800 126.400 L 262.800 105.200 254.845 104.969 C 250.469 104.842,246.419 104.348,245.845 103.871 C 245.174 103.314,244.800 103.295,244.800 103.816 M72.000 219.840 C 72.000 291.449,72.224 313.504,72.960 314.240 C 73.566 314.846,76.144 315.146,79.960 315.053 L 86.000 314.907 79.600 314.453 L 73.200 314.000 72.997 220.600 L 72.793 127.200 80.003 127.200 L 87.213 127.200 87.007 221.200 C 86.893 272.900,87.070 315.200,87.400 315.200 C 87.730 315.200,88.000 272.720,88.000 220.800 L 88.000 126.400 80.000 126.400 L 72.000 126.400 72.000 219.840 M176.000 147.553 C 176.000 159.187,175.708 168.886,175.351 169.107 C 174.993 169.328,171.033 169.590,166.551 169.690 L 158.400 169.872 158.400 179.336 L 158.400 188.800 165.876 188.800 C 176.890 188.800,176.000 185.857,176.000 222.263 L 176.000 252.800 201.600 252.800 L 227.200 252.800 227.200 222.124 C 227.200 185.778,226.269 188.800,237.463 188.800 L 244.800 188.800 244.800 179.336 L 244.800 169.872 236.649 169.690 C 232.167 169.590,228.207 169.328,227.849 169.107 C 227.492 168.886,227.200 159.187,227.200 147.553 L 227.200 126.400 201.600 126.400 L 176.000 126.400 176.000 147.553 M315.200 220.800 C 315.200 272.720,315.470 315.200,315.800 315.200 C 316.130 315.200,316.307 272.900,316.193 221.200 L 315.987 127.200 323.197 127.200 L 330.407 127.200 330.203 220.600 L 330.000 314.000 323.600 314.453 L 317.200 314.907 323.240 315.053 C 327.056 315.146,329.634 314.846,330.240 314.240 C 330.976 313.504,331.200 291.449,331.200 219.840 L 331.200 126.400 323.200 126.400 L 315.200 126.400 315.200 220.800 M226.400 147.902 C 226.400 172.072,225.590 170.206,236.211 170.490 L 244.000 170.697 244.000 179.349 L 244.000 188.000 237.052 188.000 C 231.018 188.000,229.859 188.229,228.252 189.739 L 226.400 191.479 226.400 221.739 L 226.400 252.000 201.600 252.000 L 176.800 252.000 176.800 221.852 C 176.800 185.521,177.572 188.000,166.261 188.000 L 159.200 188.000 159.200 179.349 L 159.200 170.697 166.989 170.490 C 177.610 170.206,176.800 172.072,176.800 147.902 L 176.800 127.200 201.600 127.200 L 226.400 127.200 226.400 147.902 M51.967 148.200 C 51.949 148.750,51.859 157.840,51.767 168.400 L 51.600 187.600 35.200 188.025 L 18.800 188.450 34.902 188.625 C 47.899 188.766,51.184 188.584,51.935 187.678 C 52.810 186.624,53.190 147.200,52.325 147.200 C 52.146 147.200,51.985 147.650,51.967 148.200 M350.442 166.820 C 350.366 180.796,350.606 186.884,351.265 187.678 C 352.016 188.584,355.301 188.766,368.298 188.625 L 384.400 188.450 368.000 188.025 L 351.600 187.600 351.464 167.730 C 351.389 156.802,351.153 147.686,350.939 147.472 C 350.725 147.259,350.502 155.965,350.442 166.820 M139.551 228.769 C 139.128 229.192,135.186 229.656,130.791 229.801 L 122.800 230.065 130.902 230.233 C 137.278 230.364,139.216 230.144,140.000 229.200 C 141.100 227.874,140.766 227.554,139.551 228.769 M263.098 229.000 C 264.032 230.191,265.406 230.375,272.298 230.233 L 280.400 230.065 272.445 229.802 C 267.834 229.649,263.966 229.131,263.245 228.569 C 262.150 227.717,262.132 227.769,263.098 229.000 M175.933 275.530 C 175.750 275.712,175.712 280.032,175.848 285.130 L 176.097 294.400 178.248 294.349 C 180.288 294.301,180.309 294.262,178.652 293.594 C 177.035 292.943,176.886 292.261,176.652 284.443 L 176.400 275.997 201.600 275.997 L 226.800 275.997 226.548 284.443 C 226.314 292.261,226.165 292.943,224.548 293.594 C 222.891 294.262,222.912 294.301,224.952 294.349 L 227.103 294.400 227.352 285.130 C 227.488 280.032,227.450 275.712,227.267 275.530 C 226.831 275.099,176.369 275.099,175.933 275.530 " stroke="none" fill="#c03f33" fill-rule="evenodd"></path><path id="path4" d="M122.400 52.400 L 122.400 61.600 139.600 61.600 L 156.800 61.600 156.800 52.400 L 156.800 43.200 139.600 43.200 L 122.400 43.200 122.400 52.400 M246.400 52.400 L 246.400 61.600 263.600 61.600 L 280.800 61.600 280.800 52.400 L 280.800 43.200 263.600 43.200 L 246.400 43.200 246.400 52.400 M72.000 94.353 C 72.000 99.607,72.270 104.024,72.600 104.170 C 72.930 104.315,76.350 104.310,80.200 104.158 L 87.200 103.882 87.200 94.341 L 87.200 84.800 79.600 84.800 L 72.000 84.800 72.000 94.353 M176.800 94.400 L 176.800 104.000 201.600 104.000 L 226.400 104.000 226.400 94.400 L 226.400 84.800 201.600 84.800 L 176.800 84.800 176.800 94.400 M316.000 94.341 L 316.000 103.882 323.000 104.158 C 326.850 104.310,330.270 104.315,330.600 104.170 C 330.930 104.024,331.200 99.607,331.200 94.353 L 331.200 84.800 323.600 84.800 L 316.000 84.800 316.000 94.341 M123.200 157.600 L 123.200 229.600 131.102 229.600 C 141.073 229.600,140.933 229.756,140.745 218.830 C 140.570 208.626,139.952 209.356,148.610 209.532 C 158.860 209.739,158.400 210.189,158.400 199.941 L 158.400 191.252 149.400 191.026 L 140.400 190.800 140.400 179.200 L 140.400 167.600 149.000 167.373 L 157.600 167.146 157.600 157.600 L 157.600 148.054 149.000 147.827 L 140.400 147.600 140.400 126.400 L 140.400 105.200 148.355 104.969 C 158.618 104.671,158.400 104.903,158.400 94.302 L 158.400 85.600 140.800 85.600 L 123.200 85.600 123.200 157.600 M244.800 94.302 C 244.800 104.903,244.582 104.671,254.845 104.969 L 262.800 105.200 262.800 126.400 L 262.800 147.600 254.200 147.827 L 245.600 148.054 245.600 157.600 L 245.600 167.146 254.200 167.373 L 262.800 167.600 262.800 179.200 L 262.800 190.800 253.800 191.026 L 244.800 191.252 244.800 199.941 C 244.800 210.189,244.340 209.739,254.590 209.532 C 263.248 209.356,262.630 208.626,262.455 218.830 C 262.267 229.756,262.127 229.600,272.098 229.600 L 280.000 229.600 280.000 157.600 L 280.000 85.600 262.400 85.600 L 244.800 85.600 244.800 94.302 M161.000 107.155 C 159.362 108.521,159.200 109.349,159.200 116.359 L 159.200 124.062 166.200 123.831 L 173.200 123.600 173.283 115.200 C 173.335 109.875,173.042 106.585,172.483 106.212 C 170.620 104.972,162.852 105.610,161.000 107.155 M230.717 106.212 C 230.158 106.585,229.865 109.875,229.917 115.200 L 230.000 123.600 237.000 123.831 L 244.000 124.062 244.000 116.359 C 244.000 109.349,243.838 108.521,242.200 107.155 C 240.348 105.610,232.580 104.972,230.717 106.212 M72.800 220.353 C 72.800 271.587,73.084 313.681,73.431 313.896 C 73.778 314.110,76.928 314.369,80.431 314.472 L 86.800 314.658 87.003 220.929 L 87.207 127.200 80.003 127.200 L 72.800 127.200 72.800 220.353 M176.800 147.902 C 176.800 172.072,177.610 170.206,166.989 170.490 L 159.200 170.697 159.200 179.349 L 159.200 188.000 166.261 188.000 C 177.572 188.000,176.800 185.521,176.800 221.852 L 176.800 252.000 201.600 252.000 L 226.400 252.000 226.400 221.739 L 226.400 191.479 228.252 189.739 C 229.859 188.229,231.018 188.000,237.052 188.000 L 244.000 188.000 244.000 179.349 L 244.000 170.697 236.211 170.490 C 225.590 170.206,226.400 172.072,226.400 147.902 L 226.400 127.200 201.600 127.200 L 176.800 127.200 176.800 147.902 M316.197 220.929 L 316.400 314.658 322.769 314.472 C 326.272 314.369,329.422 314.110,329.769 313.896 C 330.116 313.681,330.400 271.587,330.400 220.353 L 330.400 127.200 323.197 127.200 L 315.993 127.200 316.197 220.929 M19.733 147.733 C 19.440 148.027,19.200 157.214,19.200 168.150 L 19.200 188.033 35.400 187.817 L 51.600 187.600 51.739 167.400 L 51.879 147.200 36.073 147.200 C 27.379 147.200,20.027 147.440,19.733 147.733 M351.461 167.384 L 351.600 187.600 367.814 187.817 L 384.028 188.033 383.814 167.817 L 383.600 147.600 367.461 147.384 L 351.321 147.167 351.461 167.384 M176.652 284.438 C 176.970 295.084,175.258 294.400,201.600 294.400 C 227.942 294.400,226.230 295.084,226.548 284.438 L 226.800 275.997 201.600 275.997 L 176.400 275.997 176.652 284.438 " stroke="none" fill="#ff0000" fill-rule="evenodd"></path><path id="path5" d="M122.400 31.200 L 122.400 42.400 139.974 42.400 L 157.548 42.400 157.803 51.400 C 157.943 56.350,158.135 51.670,158.229 41.000 L 158.400 21.600 149.400 21.550 C 144.450 21.523,136.800 21.466,132.400 21.424 L 124.400 21.347 131.600 20.825 L 138.800 20.302 130.600 20.151 L 122.400 20.000 122.400 31.200 M271.600 20.825 L 278.800 21.347 270.800 21.424 C 266.400 21.466,258.750 21.523,253.800 21.550 L 244.800 21.600 244.971 41.000 C 245.065 51.670,245.257 56.350,245.397 51.400 L 245.652 42.400 263.226 42.400 L 280.800 42.400 280.800 31.200 L 280.800 20.000 272.600 20.151 L 264.400 20.302 271.600 20.825 M71.760 62.907 C 71.452 63.215,71.200 68.087,71.200 73.733 C 71.200 80.249,70.899 84.000,70.375 84.000 C 69.108 84.000,69.719 103.376,71.000 103.801 C 71.763 104.055,72.000 101.844,72.000 94.467 L 72.000 84.800 80.000 84.800 L 88.000 84.800 88.000 94.467 C 88.000 101.844,88.237 104.055,89.000 103.801 C 90.260 103.383,90.894 84.000,89.648 84.000 C 89.164 84.000,88.758 79.797,88.623 73.400 L 88.400 62.800 80.360 62.574 C 75.937 62.449,72.067 62.599,71.760 62.907 M175.833 72.599 C 175.961 78.209,176.220 83.250,176.408 83.800 C 176.905 85.255,226.295 85.255,226.792 83.800 C 226.980 83.250,227.239 78.209,227.367 72.599 L 227.600 62.398 201.600 62.398 L 175.600 62.398 175.833 72.599 M314.960 62.907 C 314.652 63.215,314.400 68.087,314.400 73.733 C 314.400 80.249,314.099 84.000,313.575 84.000 C 312.308 84.000,312.919 103.376,314.200 103.801 C 314.963 104.055,315.200 101.844,315.200 94.467 L 315.200 84.800 323.200 84.800 L 331.200 84.800 331.200 94.467 C 331.200 101.844,331.437 104.055,332.200 103.801 C 333.460 103.383,334.094 84.000,332.848 84.000 C 332.364 84.000,331.958 79.797,331.823 73.400 L 331.600 62.800 323.560 62.574 C 319.137 62.449,315.267 62.599,314.960 62.907 " stroke="none" fill="#ff9900" fill-rule="evenodd"></path><path id="path6" d="M140.177 10.600 L 140.400 21.200 149.400 21.426 L 158.400 21.652 158.400 10.826 L 158.400 0.000 149.177 0.000 L 139.954 0.000 140.177 10.600 M244.800 10.826 L 244.800 21.652 253.800 21.426 L 262.800 21.200 263.023 10.600 L 263.246 0.000 254.023 0.000 L 244.800 0.000 244.800 10.826 M193.600 21.200 C 193.600 21.860,193.022 22.400,192.316 22.400 C 191.192 22.400,191.067 23.602,191.316 32.000 L 191.600 41.600 184.322 41.600 C 178.365 41.600,176.732 41.871,175.322 43.094 C 173.583 44.602,172.921 46.114,174.400 45.200 C 174.915 44.882,175.200 47.858,175.200 53.553 L 175.200 62.400 201.600 62.400 L 228.000 62.400 228.000 53.553 C 228.000 47.858,228.285 44.882,228.800 45.200 C 230.279 46.114,229.617 44.602,227.878 43.094 C 226.468 41.871,224.835 41.600,218.878 41.600 L 211.600 41.600 211.884 32.000 C 212.133 23.602,212.008 22.400,210.884 22.400 C 210.178 22.400,209.600 21.860,209.600 21.200 C 209.600 20.213,208.178 20.000,201.600 20.000 C 195.022 20.000,193.600 20.213,193.600 21.200 M71.686 42.865 C 71.419 43.561,71.200 48.331,71.200 53.465 L 71.200 62.800 80.000 62.800 C 84.840 62.800,88.800 62.509,88.800 62.153 C 88.800 61.797,89.160 61.728,89.600 62.000 C 91.457 63.148,90.558 44.725,88.678 43.094 C 86.317 41.046,72.455 40.860,71.686 42.865 M314.522 43.094 C 312.642 44.725,311.743 63.148,313.600 62.000 C 314.040 61.728,314.400 61.797,314.400 62.153 C 314.400 62.509,318.360 62.800,323.200 62.800 L 332.000 62.800 332.000 53.465 C 332.000 48.331,331.781 43.561,331.514 42.865 C 330.745 40.860,316.883 41.046,314.522 43.094 " stroke="none" fill="#ffff00" fill-rule="evenodd"></path><path id="path7" d="M175.499 114.800 C 175.501 119.640,175.633 121.517,175.792 118.971 C 175.951 116.425,175.950 112.465,175.789 110.171 C 175.628 107.877,175.497 109.960,175.499 114.800 M227.499 114.800 C 227.501 119.640,227.633 121.517,227.792 118.971 C 227.951 116.425,227.950 112.465,227.789 110.171 C 227.628 107.877,227.497 109.960,227.499 114.800 M75.800 125.390 C 78.110 125.551,81.890 125.551,84.200 125.390 C 86.510 125.228,84.620 125.096,80.000 125.096 C 75.380 125.096,73.490 125.228,75.800 125.390 M189.000 125.398 C 195.930 125.532,207.270 125.532,214.200 125.398 C 221.130 125.265,215.460 125.156,201.600 125.156 C 187.740 125.156,182.070 125.265,189.000 125.398 M319.000 125.390 C 321.310 125.551,325.090 125.551,327.400 125.390 C 329.710 125.228,327.820 125.096,323.200 125.096 C 318.580 125.096,316.690 125.228,319.000 125.390 M70.400 220.960 C 70.180 272.748,70.272 314.849,70.603 314.517 C 70.935 314.185,71.115 271.813,71.003 220.357 L 70.800 126.800 70.400 220.960 M332.191 220.553 C 332.086 272.117,332.270 314.472,332.600 314.677 C 333.143 315.012,333.139 248.924,332.590 160.400 C 332.476 141.920,332.296 168.989,332.191 220.553 M53.949 168.400 C 53.949 179.840,54.061 184.409,54.198 178.553 C 54.335 172.697,54.335 163.337,54.197 157.753 C 54.060 152.169,53.948 156.960,53.949 168.400 M349.149 168.400 C 349.149 179.840,349.261 184.409,349.398 178.553 C 349.535 172.697,349.535 163.337,349.397 157.753 C 349.260 152.169,349.148 156.960,349.149 168.400 M174.456 263.753 C 174.491 271.116,174.773 274.994,175.200 274.000 C 176.179 271.722,176.179 253.005,175.200 252.400 C 174.679 252.078,174.420 256.045,174.456 263.753 M227.733 252.533 C 226.956 253.311,227.190 272.114,228.000 274.000 C 228.428 274.995,228.709 271.137,228.744 263.800 C 228.775 257.310,228.680 252.000,228.533 252.000 C 228.387 252.000,228.027 252.240,227.733 252.533 M80.400 356.800 L 73.200 357.298 80.153 357.449 C 84.097 357.535,87.319 357.254,87.600 356.800 C 87.872 356.360,87.983 356.068,87.847 356.151 C 87.711 356.234,84.360 356.526,80.400 356.800 M315.911 357.034 C 316.262 357.383,319.575 357.561,323.274 357.428 L 330.000 357.188 322.636 356.794 C 318.586 356.577,315.560 356.685,315.911 357.034 " stroke="none" fill="#00657e" fill-rule="evenodd"></path><path id="path8" d="M141.160 106.615 C 140.946 107.173,140.867 116.443,140.985 127.215 L 141.200 146.800 149.823 147.027 L 158.446 147.255 158.223 157.827 L 158.000 168.400 149.400 168.627 L 140.800 168.854 140.800 179.172 L 140.800 189.490 148.308 189.745 C 159.352 190.120,158.400 191.120,158.400 179.141 L 158.400 168.800 166.813 168.800 L 175.226 168.800 175.013 147.067 L 174.800 125.333 166.800 125.267 L 158.800 125.200 158.575 115.400 L 158.351 105.600 149.950 105.600 C 143.901 105.600,141.441 105.884,141.160 106.615 M244.625 115.373 L 244.400 125.200 236.400 125.267 L 228.400 125.333 228.187 147.067 L 227.974 168.800 236.387 168.800 L 244.800 168.800 244.800 179.141 C 244.800 191.120,243.848 190.120,254.892 189.745 L 262.400 189.490 262.400 179.172 L 262.400 168.854 253.800 168.627 L 245.200 168.400 244.977 157.827 L 244.754 147.255 253.377 147.027 L 262.000 146.800 262.000 126.400 L 262.000 106.000 253.425 105.773 L 244.850 105.546 244.625 115.373 M157.775 116.200 L 158.000 126.000 166.000 126.400 L 174.000 126.800 174.000 147.200 L 174.000 167.600 166.623 167.830 L 159.247 168.059 159.023 157.430 L 158.800 146.800 150.200 146.573 L 141.600 146.346 141.600 126.373 L 141.600 106.400 149.575 106.400 L 157.551 106.400 157.775 116.200 M261.600 126.373 L 261.600 146.346 253.000 146.573 L 244.400 146.800 244.177 157.430 L 243.953 168.059 236.577 167.830 L 229.200 167.600 229.200 147.200 L 229.200 126.800 237.200 126.400 L 245.200 126.000 245.425 116.200 L 245.649 106.400 253.625 106.400 L 261.600 106.400 261.600 126.373 M157.600 179.200 L 157.600 188.800 149.600 188.800 L 141.600 188.800 141.600 179.200 L 141.600 169.600 149.600 169.600 L 157.600 169.600 157.600 179.200 M261.600 179.200 L 261.600 188.800 253.600 188.800 L 245.600 188.800 245.600 179.200 L 245.600 169.600 253.600 169.600 L 261.600 169.600 261.600 179.200 M176.000 253.400 C 176.000 253.730,187.520 254.000,201.600 254.000 C 215.680 254.000,227.200 253.730,227.200 253.400 C 227.200 253.070,215.680 252.800,201.600 252.800 C 187.520 252.800,176.000 253.070,176.000 253.400 M175.533 272.733 C 174.135 274.131,178.346 274.400,201.667 274.400 C 219.440 274.400,228.043 274.130,227.859 273.577 C 227.596 272.787,176.307 271.960,175.533 272.733 " stroke="none" fill="#42bd99" fill-rule="evenodd"></path><path id="path9" d="M141.600 126.373 L 141.600 146.346 150.200 146.573 L 158.800 146.800 159.023 157.430 L 159.247 168.059 166.623 167.830 L 174.000 167.600 174.000 147.200 L 174.000 126.800 166.000 126.400 L 158.000 126.000 157.775 116.200 L 157.551 106.400 149.575 106.400 L 141.600 106.400 141.600 126.373 M245.425 116.200 L 245.200 126.000 237.200 126.400 L 229.200 126.800 229.200 147.200 L 229.200 167.600 236.577 167.830 L 243.953 168.059 244.177 157.430 L 244.400 146.800 253.000 146.573 L 261.600 146.346 261.600 126.373 L 261.600 106.400 253.625 106.400 L 245.649 106.400 245.425 116.200 M141.600 179.200 L 141.600 188.800 149.600 188.800 L 157.600 188.800 157.600 179.200 L 157.600 169.600 149.600 169.600 L 141.600 169.600 141.600 179.200 M245.600 179.200 L 245.600 188.800 253.600 188.800 L 261.600 188.800 261.600 179.200 L 261.600 169.600 253.600 169.600 L 245.600 169.600 245.600 179.200 M176.350 254.643 C 176.125 255.229,176.044 259.464,176.170 264.054 L 176.400 272.400 201.600 272.400 L 226.800 272.400 226.800 263.200 L 226.800 254.000 201.779 253.789 C 181.532 253.617,176.681 253.780,176.350 254.643 " stroke="none" fill="#00ffcc" fill-rule="evenodd"></path></g></svg>