<svg id="svg" version="1.1" width="500" height="500" xmlns="http://www.w3.org/2000/svg" xmlns:xlink="http://www.w3.org/1999/xlink" style="display: block;"><g id="svgg"><path id="path0" d="M191.200 15.600 L 191.200 31.200 183.200 31.200 L 175.200 31.200 175.200 55.200 L 175.200 79.200 167.200 79.200 L 159.200 79.200 159.200 127.200 L 159.200 175.200 151.200 175.200 L 143.200 175.200 143.200 199.200 L 143.200 223.200 119.200 223.200 L 95.200 223.200 95.200 231.200 L 95.200 239.200 64.000 239.200 L 32.800 239.200 32.800 231.200 L 32.800 223.200 24.800 223.200 L 16.800 223.200 16.800 215.200 L 16.800 207.200 8.400 207.200 L 0.000 207.200 0.000 256.000 L 0.000 304.800 16.400 304.800 L 32.800 304.800 32.800 296.800 L 32.800 288.800 88.000 288.800 L 143.200 288.800 143.200 296.000 L 143.200 303.200 127.200 303.200 L 111.200 303.200 111.200 336.000 L 111.200 368.800 120.000 368.800 L 128.800 368.800 128.800 360.800 L 128.800 352.800 136.000 352.800 L 143.200 352.800 143.200 360.800 L 143.200 368.800 151.200 368.800 L 159.200 368.800 159.200 376.800 L 159.200 384.800 200.000 384.800 L 240.800 384.800 240.800 376.800 L 240.800 368.800 248.800 368.800 L 256.800 368.800 256.800 360.800 L 256.800 352.800 264.000 352.800 L 271.200 352.800 271.200 360.800 L 271.200 368.800 280.000 368.800 L 288.800 368.800 288.800 336.000 L 288.800 303.200 272.800 303.200 L 256.800 303.200 256.800 296.000 L 256.800 288.800 312.000 288.800 L 367.200 288.800 367.200 296.800 L 367.200 304.800 383.600 304.800 L 400.000 304.800 400.000 256.000 L 400.000 207.200 391.600 207.200 L 383.200 207.200 383.200 215.200 L 383.200 223.200 375.200 223.200 L 367.200 223.200 367.200 231.200 L 367.200 239.200 336.000 239.200 L 304.800 239.200 304.800 231.200 L 304.800 223.200 280.800 223.200 L 256.800 223.200 256.800 199.200 L 256.800 175.200 248.800 175.200 L 240.800 175.200 240.800 127.200 L 240.800 79.200 232.800 79.200 L 224.800 79.200 224.800 55.200 L 224.800 31.200 216.800 31.200 L 208.800 31.200 208.800 15.600 L 208.800 0.000 200.000 0.000 L 191.200 0.000 191.200 15.600 M208.612 55.371 L 208.824 79.142 216.612 79.371 L 224.400 79.600 224.606 127.371 L 224.813 175.142 232.606 175.371 L 240.400 175.600 240.612 199.800 L 240.823 224.000 248.412 224.000 L 256.000 224.000 256.000 232.000 L 256.000 240.000 280.000 240.000 L 304.000 240.000 304.000 248.000 L 304.000 256.000 336.000 256.000 L 368.000 256.000 368.000 263.871 L 368.000 271.742 316.892 272.299 C 288.783 272.606,259.983 272.609,252.892 272.306 L 240.000 271.755 240.003 276.077 C 240.005 278.455,240.240 285.518,240.526 291.773 L 241.046 303.145 248.723 303.373 L 256.400 303.600 256.400 320.000 L 256.400 336.400 248.145 336.629 L 239.889 336.857 240.069 352.504 L 240.250 368.151 232.125 368.275 C 227.186 368.351,223.979 368.086,223.948 367.600 C 223.920 367.160,223.942 363.457,223.996 359.370 L 224.095 351.941 216.247 352.170 L 208.400 352.400 208.377 360.275 L 208.354 368.150 200.176 368.275 C 195.203 368.351,191.979 368.087,191.948 367.600 C 191.920 367.160,191.942 363.457,191.996 359.370 L 192.095 351.941 184.247 352.170 L 176.400 352.400 176.377 360.284 L 176.354 368.168 168.081 368.224 L 159.809 368.280 159.948 352.540 L 160.087 336.800 152.059 336.800 C 142.307 336.800,143.065 338.406,143.373 318.400 L 143.600 303.600 151.277 303.373 L 158.955 303.145 159.477 292.246 C 159.765 286.252,160.000 279.189,160.000 276.551 L 160.000 271.755 147.108 272.306 C 140.017 272.609,111.205 272.606,83.080 272.299 L 31.945 271.741 32.173 264.071 L 32.400 256.400 64.200 256.191 L 96.000 255.982 96.000 247.991 L 96.000 240.000 120.000 240.000 L 144.000 240.000 144.000 232.000 L 144.000 224.000 151.588 224.000 L 159.177 224.000 159.388 199.800 L 159.600 175.600 167.394 175.371 L 175.187 175.142 175.394 127.371 L 175.600 79.600 183.400 79.371 L 191.200 79.142 191.200 55.704 C 191.200 42.814,191.452 32.015,191.760 31.707 C 192.067 31.399,195.937 31.249,200.360 31.374 L 208.400 31.600 208.612 55.371 " stroke="none" fill="#000000" fill-rule="evenodd"></path><path id="path1" d="M191.760 31.707 C 191.452 32.015,191.200 42.814,191.200 55.704 L 191.200 79.142 183.400 79.371 L 175.600 79.600 175.394 127.371 L 175.187 175.142 167.394 175.371 L 159.600 175.600 159.576 200.400 L 159.553 225.200 159.976 200.800 L 160.400 176.400 168.194 176.171 L 175.987 175.942 176.194 128.171 L 176.400 80.400 184.188 80.171 L 191.976 79.942 192.188 56.171 L 192.400 32.400 200.000 32.400 L 207.600 32.400 207.812 56.171 L 208.024 79.942 215.812 80.171 L 223.600 80.400 223.806 128.171 L 224.013 175.942 231.806 176.171 L 239.600 176.400 240.024 200.800 L 240.447 225.200 240.424 200.400 L 240.400 175.600 232.606 175.371 L 224.813 175.142 224.606 127.371 L 224.400 79.600 216.612 79.371 L 208.824 79.142 208.612 55.371 L 208.400 31.600 200.360 31.374 C 195.937 31.249,192.067 31.399,191.760 31.707 M192.000 192.000 L 192.000 208.000 200.000 208.000 L 208.000 208.000 208.000 192.000 L 208.000 176.000 200.000 176.000 L 192.000 176.000 192.000 192.000 M176.533 256.533 C 176.240 256.827,176.000 260.427,176.000 264.533 L 176.000 272.000 168.000 272.000 L 160.000 272.000 160.000 276.674 C 160.000 279.244,159.765 286.252,159.477 292.246 L 158.955 303.145 151.277 303.373 L 143.600 303.600 143.373 318.400 C 143.065 338.400,142.314 336.800,152.015 336.800 C 156.407 336.800,160.000 336.530,160.001 336.200 C 160.002 335.870,156.492 335.600,152.201 335.600 L 144.400 335.600 144.400 320.000 L 144.400 304.400 152.171 304.171 L 159.943 303.943 160.171 296.171 L 160.400 288.400 168.200 288.171 L 176.000 287.942 176.000 279.971 L 176.000 272.000 184.000 272.000 L 192.000 272.000 192.000 264.000 L 192.000 256.000 184.533 256.000 C 180.427 256.000,176.827 256.240,176.533 256.533 M208.000 264.000 L 208.000 272.000 216.000 272.000 L 224.000 272.000 224.000 279.971 L 224.000 287.942 231.800 288.171 L 239.600 288.400 239.829 296.171 L 240.057 303.943 247.829 304.171 L 255.600 304.400 255.600 320.000 L 255.600 335.600 247.799 335.600 C 243.508 335.600,239.998 335.883,239.999 336.228 C 240.000 336.573,243.690 336.753,248.200 336.628 L 256.400 336.400 256.400 320.000 L 256.400 303.600 248.686 303.372 L 240.973 303.144 240.389 287.572 L 239.805 272.000 231.902 272.000 L 224.000 272.000 224.000 264.000 L 224.000 256.000 216.000 256.000 L 208.000 256.000 208.000 264.000 M120.000 272.000 L 95.600 272.435 119.753 272.618 C 135.191 272.734,144.084 272.511,144.400 272.000 C 144.672 271.560,144.783 271.282,144.647 271.382 C 144.511 271.483,133.420 271.761,120.000 272.000 M280.000 272.000 L 255.600 272.435 279.753 272.618 C 295.191 272.734,304.084 272.511,304.400 272.000 C 304.672 271.560,304.783 271.282,304.647 271.382 C 304.511 271.483,293.420 271.761,280.000 272.000 M159.734 366.200 C 159.388 366.750,159.328 367.560,159.600 368.000 C 160.257 369.064,162.400 369.027,162.400 367.953 C 162.400 367.487,162.067 367.311,161.661 367.563 C 161.254 367.814,160.795 367.385,160.642 366.610 C 160.438 365.580,160.193 365.470,159.734 366.200 M175.400 366.600 C 175.510 367.150,175.060 367.484,174.400 367.343 C 173.484 367.147,173.420 367.310,174.130 368.033 C 174.642 368.554,175.452 368.739,175.930 368.443 C 177.022 367.768,177.075 365.600,176.000 365.600 C 175.560 365.600,175.290 366.050,175.400 366.600 M191.855 366.006 C 191.025 366.845,192.026 368.800,193.286 368.800 C 193.899 368.800,194.400 368.419,194.400 367.953 C 194.400 367.487,194.067 367.311,193.661 367.563 C 193.254 367.814,192.804 367.443,192.661 366.738 C 192.517 366.033,192.155 365.704,191.855 366.006 M207.400 366.600 C 207.510 367.150,207.060 367.484,206.400 367.343 C 205.484 367.147,205.420 367.310,206.130 368.033 C 206.642 368.554,207.452 368.739,207.930 368.443 C 209.022 367.768,209.075 365.600,208.000 365.600 C 207.560 365.600,207.290 366.050,207.400 366.600 M223.855 366.006 C 223.025 366.845,224.026 368.800,225.286 368.800 C 225.899 368.800,226.400 368.419,226.400 367.953 C 226.400 367.487,226.067 367.311,225.661 367.563 C 225.254 367.814,224.804 367.443,224.661 366.738 C 224.517 366.033,224.155 365.704,223.855 366.006 M239.400 366.600 C 239.510 367.150,239.060 367.484,238.400 367.343 C 237.484 367.147,237.420 367.310,238.130 368.033 C 238.642 368.554,239.452 368.739,239.930 368.443 C 241.022 367.768,241.075 365.600,240.000 365.600 C 239.560 365.600,239.290 366.050,239.400 366.600 " stroke="none" fill="#3a3a3a" fill-rule="evenodd"></path><path id="path2" d="M192.612 56.600 L 192.400 80.400 184.606 80.629 L 176.813 80.858 176.606 128.629 L 176.400 176.400 168.600 176.629 L 160.800 176.858 160.800 208.029 L 160.800 239.200 167.988 239.200 L 175.176 239.200 175.388 215.400 L 175.600 191.600 183.620 191.374 L 191.639 191.148 191.620 143.374 L 191.600 95.600 200.000 95.600 L 208.400 95.600 208.390 143.374 L 208.380 191.148 216.390 191.374 L 224.400 191.600 224.612 215.400 L 224.824 239.200 232.012 239.200 L 239.200 239.200 239.200 209.265 C 239.200 192.801,239.419 178.761,239.686 178.065 C 240.107 176.966,239.174 176.800,232.584 176.800 C 222.163 176.800,223.128 181.951,223.381 127.695 L 223.600 80.800 216.298 80.800 C 206.399 80.800,207.086 82.733,207.365 55.675 L 207.600 32.799 200.212 32.799 L 192.824 32.800 192.612 56.600 M192.800 248.000 L 192.800 271.200 200.000 271.200 L 207.200 271.200 207.200 248.000 L 207.200 224.800 200.000 224.800 L 192.800 224.800 192.800 248.000 M144.798 248.200 L 144.796 255.600 151.998 255.343 L 159.200 255.086 159.200 247.943 L 159.200 240.800 152.000 240.800 L 144.800 240.800 144.798 248.200 M240.800 247.943 L 240.800 255.086 248.002 255.343 L 255.204 255.600 255.202 248.200 L 255.200 240.800 248.000 240.800 L 240.800 240.800 240.800 247.943 M96.800 264.200 L 96.800 271.600 119.950 271.600 L 143.100 271.600 143.350 264.198 L 143.600 256.796 120.200 256.798 L 96.800 256.800 96.800 264.200 M256.650 264.198 L 256.900 271.600 280.050 271.600 L 303.200 271.600 303.200 264.200 L 303.200 256.800 279.800 256.798 L 256.400 256.796 256.650 264.198 M176.629 280.600 L 176.400 288.400 168.629 288.629 L 160.857 288.857 160.629 296.629 L 160.400 304.400 152.600 304.629 L 144.800 304.858 144.800 320.029 L 144.800 335.200 151.971 335.200 L 159.142 335.200 159.371 327.400 L 159.600 319.600 167.371 319.371 L 175.143 319.143 175.371 311.371 L 175.600 303.600 183.400 303.371 L 191.200 303.142 191.200 287.971 L 191.200 272.800 184.029 272.800 L 176.858 272.800 176.629 280.600 M208.800 287.971 L 208.800 303.142 216.600 303.371 L 224.400 303.600 224.629 311.371 L 224.857 319.143 232.629 319.371 L 240.400 319.600 240.629 327.400 L 240.858 335.200 248.029 335.200 L 255.200 335.200 255.200 320.029 L 255.200 304.858 247.400 304.629 L 239.600 304.400 239.371 296.600 L 239.142 288.800 231.657 288.800 C 222.858 288.800,223.200 289.174,223.200 279.535 L 223.200 272.800 216.000 272.800 L 208.800 272.800 208.800 287.971 " stroke="none" fill="#8e8e8e" fill-rule="evenodd"></path><path id="path3" d="M192.533 32.533 C 192.240 32.827,192.000 43.614,192.000 56.504 L 192.000 79.942 184.200 80.171 L 176.400 80.400 176.194 128.171 L 175.987 175.942 168.194 176.171 L 160.400 176.400 160.000 208.000 L 159.600 239.600 151.829 239.829 L 144.057 240.057 143.829 247.829 L 143.600 255.600 119.800 255.812 L 96.000 256.024 96.167 264.212 L 96.335 272.400 96.596 264.600 L 96.858 256.800 120.829 256.800 L 144.800 256.800 144.800 248.800 L 144.800 240.800 152.000 240.800 L 159.200 240.800 159.200 248.000 L 159.200 255.200 152.400 255.200 C 148.660 255.200,145.599 255.470,145.598 255.800 C 145.597 256.130,148.824 256.285,152.770 256.144 L 159.943 255.888 160.172 248.144 L 160.400 240.400 168.188 240.171 L 175.976 239.942 176.188 216.171 L 176.400 192.400 184.201 192.400 C 188.492 192.400,192.002 192.117,192.001 191.772 C 192.000 191.427,188.310 191.247,183.800 191.372 L 175.600 191.600 175.388 215.400 L 175.176 239.200 167.988 239.200 L 160.800 239.200 160.800 208.029 L 160.800 176.858 168.600 176.629 L 176.400 176.400 176.606 128.629 L 176.813 80.858 184.606 80.629 L 192.400 80.400 192.612 56.630 L 192.824 32.860 200.212 32.596 L 207.600 32.332 200.333 32.166 C 196.337 32.075,192.827 32.240,192.533 32.533 M207.552 56.800 C 207.552 69.340,207.663 74.470,207.798 68.200 C 207.933 61.930,207.933 51.670,207.798 45.400 C 207.663 39.130,207.552 44.260,207.552 56.800 M212.200 80.588 C 214.290 80.753,217.710 80.753,219.800 80.588 C 221.890 80.423,220.180 80.288,216.000 80.288 C 211.820 80.288,210.110 80.423,212.200 80.588 M223.575 128.800 C 223.575 154.540,223.676 165.070,223.800 152.200 C 223.923 139.330,223.923 118.270,223.800 105.400 C 223.676 92.530,223.575 103.060,223.575 128.800 M191.760 95.707 C 191.002 96.465,191.042 176.000,191.800 176.000 C 192.130 176.000,192.400 158.090,192.400 136.200 L 192.400 96.400 200.000 96.400 L 207.600 96.400 207.778 136.311 C 207.876 158.263,208.149 176.416,208.386 176.652 C 208.622 176.888,208.721 158.748,208.607 136.341 L 208.400 95.600 200.360 95.374 C 195.937 95.249,192.067 95.399,191.760 95.707 M228.200 176.588 C 230.290 176.753,233.710 176.753,235.800 176.588 C 237.890 176.423,236.180 176.288,232.000 176.288 C 227.820 176.288,226.110 176.423,228.200 176.588 M239.386 208.600 L 239.200 239.200 232.012 239.200 L 224.824 239.200 224.612 215.400 L 224.400 191.600 216.200 191.372 C 211.690 191.247,208.000 191.427,207.999 191.772 C 207.998 192.117,211.508 192.400,215.799 192.400 L 223.600 192.400 223.812 216.171 L 224.024 239.942 231.812 240.171 L 239.600 240.400 239.828 248.144 L 240.057 255.888 247.230 256.144 C 251.176 256.285,254.403 256.130,254.402 255.800 C 254.401 255.470,251.340 255.200,247.600 255.200 L 240.800 255.200 240.800 248.000 L 240.800 240.800 248.000 240.800 L 255.200 240.800 255.200 248.800 L 255.200 256.800 279.171 256.800 L 303.142 256.800 303.404 264.600 L 303.665 272.400 303.833 264.212 L 304.000 256.024 280.200 255.812 L 256.400 255.600 256.171 247.829 L 255.943 240.057 248.171 239.829 L 240.400 239.600 239.986 208.800 L 239.571 178.000 239.386 208.600 M191.952 239.800 C 191.925 248.490,191.945 259.290,191.996 263.800 L 192.089 272.000 184.044 272.000 L 176.000 272.000 176.000 279.971 L 176.000 287.942 168.200 288.171 L 160.400 288.400 160.171 296.171 L 159.943 303.943 152.171 304.171 L 144.400 304.400 144.400 320.000 L 144.400 335.600 152.000 335.600 L 159.600 335.600 160.000 328.000 L 160.400 320.400 168.171 320.171 L 175.943 319.943 176.171 312.171 L 176.400 304.400 184.183 304.171 L 191.966 303.942 192.183 288.171 L 192.400 272.400 200.000 272.400 L 207.600 272.400 207.817 288.171 L 208.034 303.942 215.817 304.171 L 223.600 304.400 223.829 312.171 L 224.057 319.943 231.829 320.171 L 239.600 320.400 240.000 328.000 L 240.400 335.600 248.000 335.600 L 255.600 335.600 255.600 320.000 L 255.600 304.400 247.829 304.171 L 240.057 303.943 239.829 296.171 L 239.600 288.400 231.798 288.354 L 223.996 288.308 231.570 288.583 L 239.143 288.857 239.371 296.629 L 239.600 304.400 247.400 304.629 L 255.200 304.858 255.200 320.029 L 255.200 335.200 248.029 335.200 L 240.858 335.200 240.629 327.400 L 240.400 319.600 232.629 319.371 L 224.857 319.143 224.629 311.371 L 224.400 303.600 216.600 303.371 L 208.800 303.142 208.800 287.971 L 208.800 272.800 215.970 272.800 L 223.140 272.800 223.404 280.200 L 223.668 287.600 223.834 279.800 L 224.000 272.000 215.956 272.000 L 207.911 272.000 208.004 263.800 C 208.055 259.290,208.075 248.490,208.048 239.800 L 208.000 224.000 200.000 224.000 L 192.000 224.000 191.952 239.800 M207.200 248.000 L 207.200 271.200 200.000 271.200 L 192.800 271.200 192.800 248.000 L 192.800 224.800 200.000 224.800 L 207.200 224.800 207.200 248.000 M143.328 265.000 C 143.458 272.524,143.775 271.628,144.177 262.599 C 144.300 259.848,144.130 257.598,143.800 257.599 C 143.470 257.599,143.258 260.930,143.328 265.000 M255.823 262.599 C 256.225 271.628,256.542 272.524,256.672 265.000 C 256.742 260.930,256.530 257.599,256.200 257.599 C 255.870 257.598,255.700 259.848,255.823 262.599 M109.000 271.798 C 115.050 271.934,124.950 271.934,131.000 271.798 C 137.050 271.662,132.100 271.551,120.000 271.551 C 107.900 271.551,102.950 271.662,109.000 271.798 M269.000 271.798 C 275.050 271.934,284.950 271.934,291.000 271.798 C 297.050 271.662,292.100 271.551,280.000 271.551 C 267.900 271.551,262.950 271.662,269.000 271.798 M191.200 287.971 L 191.200 303.142 183.400 303.371 L 175.600 303.600 175.371 311.371 L 175.143 319.143 167.371 319.371 L 159.600 319.600 159.371 327.400 L 159.142 335.200 151.971 335.200 L 144.800 335.200 144.800 320.029 L 144.800 304.858 152.600 304.629 L 160.400 304.400 160.629 296.629 L 160.857 288.857 168.629 288.629 L 176.400 288.400 176.629 280.600 L 176.858 272.800 184.029 272.800 L 191.200 272.800 191.200 287.971 " stroke="none" fill="#b46464" fill-rule="evenodd"></path><path id="path4" d="M192.378 96.970 C 192.161 97.536,192.077 115.460,192.192 136.800 L 192.400 175.600 200.000 175.600 L 207.600 175.600 207.600 136.000 L 207.600 96.400 200.186 96.170 C 194.706 96.000,192.670 96.208,192.378 96.970 M176.561 192.505 C 176.253 192.814,176.000 203.614,176.000 216.504 L 176.000 239.942 168.200 240.171 L 160.400 240.400 160.171 248.200 L 159.942 256.000 153.295 256.000 C 144.491 256.000,143.842 256.662,144.165 265.302 L 144.400 271.600 160.171 271.817 L 175.942 272.034 176.171 264.217 L 176.400 256.400 184.000 256.000 L 191.600 255.600 191.817 239.800 L 192.034 224.000 200.000 224.000 L 207.966 224.000 208.183 239.800 L 208.400 255.600 216.200 255.829 L 224.000 256.058 224.000 264.029 L 224.000 272.000 240.000 272.000 L 256.000 272.000 256.000 265.324 C 256.000 256.577,255.416 256.000,246.566 256.000 L 240.058 256.000 239.829 248.200 L 239.600 240.400 231.812 240.171 L 224.024 239.942 223.812 216.171 L 223.600 192.400 216.000 192.400 L 208.400 192.400 208.171 200.200 L 207.942 208.000 200.000 208.000 L 192.058 208.000 191.829 200.200 L 191.600 192.400 184.361 192.172 C 180.380 192.047,176.870 192.197,176.561 192.505 M144.000 231.971 L 144.000 240.000 120.000 240.000 L 96.000 240.000 96.000 247.991 L 96.000 255.982 64.200 256.191 L 32.400 256.400 32.171 264.200 L 31.942 272.000 63.971 272.000 L 96.000 272.000 96.000 264.012 L 96.000 256.024 119.800 255.812 L 143.600 255.600 143.829 247.829 L 144.057 240.057 151.829 239.829 L 159.600 239.600 159.600 232.000 L 159.600 224.400 151.800 224.171 L 144.000 223.942 144.000 231.971 M240.340 225.067 C 240.115 225.654,240.037 229.164,240.165 232.867 L 240.400 239.600 248.171 239.829 L 255.943 240.057 256.171 247.829 L 256.400 255.600 280.171 255.812 L 303.942 256.024 304.171 263.812 L 304.400 271.600 336.200 271.809 L 368.000 272.018 368.000 264.009 L 368.000 256.000 336.000 256.000 L 304.000 256.000 304.000 248.000 L 304.000 240.000 280.000 240.000 L 256.000 240.000 256.000 232.000 L 256.000 224.000 248.375 224.000 C 242.758 224.000,240.642 224.281,240.340 225.067 M192.561 272.505 C 192.253 272.814,192.000 280.014,192.000 288.504 L 192.000 303.942 184.200 304.171 L 176.400 304.400 176.171 312.171 L 175.943 319.943 168.171 320.171 L 160.400 320.400 160.187 342.587 C 159.936 368.867,159.660 368.000,168.276 368.000 C 175.069 368.000,175.855 367.081,176.163 358.778 L 176.400 352.400 184.200 352.171 L 192.000 351.942 192.000 358.371 C 192.000 366.796,193.035 368.000,200.276 368.000 C 207.069 368.000,207.855 367.081,208.163 358.778 L 208.400 352.400 216.200 352.171 L 224.000 351.942 224.000 358.371 C 224.000 366.796,225.035 368.000,232.276 368.000 C 240.372 368.000,240.064 369.033,239.813 342.723 L 239.600 320.400 231.829 320.171 L 224.057 319.943 223.829 312.171 L 223.600 304.400 215.817 304.171 L 208.034 303.942 207.817 288.171 L 207.600 272.400 200.361 272.172 C 196.380 272.047,192.870 272.197,192.561 272.505 " stroke="none" fill="#ff0000" fill-rule="evenodd"></path></g></svg>