<svg id="svg" version="1.1" width="500" height="500" xmlns="http://www.w3.org/2000/svg" xmlns:xlink="http://www.w3.org/1999/xlink" style="display: block;"><g id="svgg"><path id="path0" d="M192.800 16.000 L 192.800 32.000 200.000 32.000 L 207.200 32.000 207.200 16.000 L 207.200 0.000 200.000 0.000 L 192.800 0.000 192.800 16.000 M176.800 56.430 L 176.800 80.060 184.200 79.830 L 191.600 79.600 191.812 56.200 L 192.024 32.800 184.412 32.800 L 176.800 32.800 176.800 56.430 M208.800 56.400 L 208.800 80.000 216.000 80.000 L 223.200 80.000 223.200 56.400 L 223.200 32.800 216.000 32.800 L 208.800 32.800 208.800 56.400 M160.800 128.430 L 160.800 176.060 168.200 175.830 L 175.600 175.600 175.806 128.200 L 176.013 80.800 168.406 80.800 L 160.800 80.800 160.800 128.430 M224.800 128.400 L 224.800 176.000 232.000 176.000 L 239.200 176.000 239.200 128.400 L 239.200 80.800 232.000 80.800 L 224.800 80.800 224.800 128.400 M144.800 200.430 L 144.800 224.060 152.200 223.830 L 159.600 223.600 159.812 200.200 L 160.024 176.800 152.412 176.800 L 144.800 176.800 144.800 200.430 M240.800 200.400 L 240.800 224.000 248.000 224.000 L 255.200 224.000 255.200 200.400 L 255.200 176.800 248.000 176.800 L 240.800 176.800 240.800 200.400 M0.000 256.000 L 0.000 303.200 15.571 303.200 L 31.142 303.200 31.371 295.400 L 31.600 287.600 88.000 287.600 L 144.400 287.600 144.628 295.830 L 144.857 304.059 152.228 303.830 L 159.600 303.600 160.000 295.200 C 160.220 290.580,160.284 283.416,160.142 279.280 L 159.885 271.760 147.050 272.308 C 139.991 272.610,111.217 272.606,83.108 272.299 L 32.000 271.742 32.000 263.880 L 32.000 256.018 63.800 255.809 L 95.600 255.600 95.830 248.209 L 96.060 240.818 63.830 240.609 L 31.600 240.400 31.371 232.629 L 31.143 224.857 23.371 224.629 L 15.600 224.400 15.371 216.600 L 15.142 208.800 7.571 208.800 L 0.000 208.800 0.000 256.000 M384.629 216.600 L 384.400 224.400 376.629 224.629 L 368.857 224.857 368.629 232.629 L 368.400 240.400 336.170 240.609 L 303.940 240.818 304.170 248.209 L 304.400 255.600 336.200 255.809 L 368.000 256.018 368.000 263.880 L 368.000 271.742 316.892 272.299 C 288.783 272.606,259.983 272.609,252.892 272.306 L 240.000 271.755 240.003 276.477 C 240.005 279.075,240.241 286.330,240.527 292.600 L 241.049 304.000 248.096 304.000 L 255.144 304.000 255.372 295.800 L 255.600 287.600 312.000 287.600 L 368.400 287.600 368.629 295.400 L 368.858 303.200 384.429 303.200 L 400.000 303.200 400.000 256.000 L 400.000 208.800 392.429 208.800 L 384.858 208.800 384.629 216.600 M96.800 232.412 L 96.800 240.024 120.200 239.812 L 143.600 239.600 143.830 232.200 L 144.060 224.800 120.430 224.800 L 96.800 224.800 96.800 232.412 M256.170 232.200 L 256.400 239.600 279.800 239.812 L 303.200 240.024 303.200 232.412 L 303.200 224.800 279.570 224.800 L 255.940 224.800 256.170 232.200 M112.800 336.000 L 112.800 367.200 119.971 367.200 L 127.142 367.200 127.371 359.400 L 127.600 351.600 136.000 351.600 L 144.400 351.600 144.629 359.400 L 144.858 367.200 152.029 367.200 L 159.200 367.200 159.200 352.030 L 159.200 336.860 151.800 336.630 L 144.400 336.400 144.183 320.600 L 143.966 304.800 128.383 304.800 L 112.800 304.800 112.800 336.000 M256.800 319.840 C 256.800 337.694,257.272 336.800,247.840 336.800 L 240.800 336.800 240.800 352.000 L 240.800 367.200 247.971 367.200 L 255.142 367.200 255.371 359.400 L 255.600 351.600 264.000 351.600 L 272.400 351.600 272.629 359.400 L 272.858 367.200 280.029 367.200 L 287.200 367.200 287.200 336.000 L 287.200 304.800 272.000 304.800 L 256.800 304.800 256.800 319.840 M176.629 360.600 L 176.400 368.400 168.600 368.629 L 160.800 368.858 160.800 376.029 L 160.800 383.200 200.000 383.200 L 239.200 383.200 239.200 376.029 L 239.200 368.858 231.400 368.629 L 223.600 368.400 223.371 360.600 L 223.142 352.800 216.000 352.800 L 208.858 352.800 208.629 360.600 L 208.400 368.400 200.000 368.400 L 191.600 368.400 191.371 360.600 L 191.142 352.800 184.000 352.800 L 176.858 352.800 176.629 360.600 " stroke="none" fill="#000000" fill-rule="evenodd"></path><path id="path1" d="M192.182 15.771 L 192.000 31.942 184.200 32.171 L 176.400 32.400 176.188 56.171 L 175.976 79.942 168.188 80.171 L 160.400 80.400 160.194 128.171 L 159.987 175.942 152.194 176.171 L 144.400 176.400 144.188 200.188 L 143.976 223.976 120.188 224.188 L 96.400 224.400 96.171 232.191 L 95.942 239.982 63.771 240.200 L 31.600 240.419 63.800 240.609 L 96.000 240.800 96.000 248.391 L 96.000 255.982 64.200 256.191 L 32.400 256.400 32.400 264.000 L 32.400 271.600 64.400 271.810 L 96.400 272.020 96.400 264.210 L 96.400 256.400 120.253 256.188 L 144.107 255.976 143.853 263.990 L 143.600 272.003 152.200 272.002 L 160.800 272.000 160.800 279.200 L 160.800 286.400 167.569 286.400 L 174.338 286.400 174.604 279.400 L 174.871 272.400 175.035 279.770 L 175.200 287.140 167.800 287.370 L 160.400 287.600 160.000 295.600 L 159.600 303.600 152.228 303.830 L 144.857 304.059 144.597 295.830 L 144.337 287.600 144.169 295.783 L 144.000 303.966 128.200 304.183 L 112.400 304.400 112.400 336.000 L 112.400 367.600 120.200 367.829 L 128.000 368.058 127.834 360.229 L 127.668 352.400 127.404 359.800 L 127.140 367.200 119.970 367.200 L 112.800 367.200 112.800 336.000 L 112.800 304.800 128.400 304.800 L 144.000 304.800 144.000 320.400 L 144.000 336.000 151.600 336.000 L 159.200 336.000 159.200 351.600 L 159.200 367.200 152.029 367.200 L 144.858 367.200 144.581 359.400 L 144.304 351.600 144.352 359.600 L 144.400 367.600 152.171 367.829 L 159.943 368.057 160.171 375.829 L 160.400 383.600 200.200 383.807 L 240.000 384.015 240.000 376.007 L 240.000 368.000 248.000 368.000 L 256.000 368.000 255.834 360.200 L 255.668 352.400 255.404 359.800 L 255.140 367.200 247.970 367.200 L 240.800 367.200 240.800 351.600 L 240.800 336.000 248.400 336.000 L 256.000 336.000 256.000 320.400 L 256.000 304.800 271.600 304.800 L 287.200 304.800 287.200 336.000 L 287.200 367.200 280.029 367.200 L 272.858 367.200 272.583 359.598 L 272.308 351.996 272.354 359.798 L 272.400 367.600 280.209 367.829 L 288.018 368.058 287.809 336.229 L 287.600 304.400 271.829 304.183 L 256.058 303.966 255.796 296.183 L 255.535 288.400 255.367 296.230 L 255.200 304.060 247.800 303.830 L 240.400 303.600 240.172 295.400 L 239.944 287.200 232.372 287.200 L 224.800 287.200 224.949 279.800 L 225.098 272.400 225.549 279.200 L 226.000 286.000 232.568 286.232 L 239.137 286.464 239.368 279.432 L 239.600 272.400 248.000 272.177 L 256.400 271.953 256.147 263.965 L 255.893 255.976 279.747 256.188 L 303.600 256.400 303.600 264.210 L 303.600 272.020 335.600 271.810 L 367.600 271.600 367.600 264.000 L 367.600 256.400 335.800 256.191 L 304.000 255.982 304.000 248.400 L 304.000 240.818 336.200 240.609 L 368.400 240.400 368.629 232.629 L 368.857 224.857 376.629 224.629 L 384.400 224.400 384.629 216.629 L 384.857 208.857 392.629 208.580 L 400.400 208.304 392.400 208.352 L 384.400 208.400 384.171 216.171 L 383.943 223.943 376.171 224.171 L 368.400 224.400 368.171 232.200 L 367.942 240.000 336.000 240.000 L 304.058 240.000 303.829 232.200 L 303.600 224.400 279.812 224.188 L 256.024 223.976 255.812 200.188 L 255.600 176.400 247.806 176.171 L 240.013 175.942 239.806 128.171 L 239.600 80.400 231.812 80.171 L 224.024 79.942 223.812 56.171 L 223.600 32.400 215.816 32.171 L 208.033 31.942 207.799 15.771 L 207.565 -0.400 207.382 15.800 L 207.200 32.000 200.017 32.000 L 192.833 32.000 192.599 15.800 L 192.365 -0.400 192.182 15.771 M191.812 56.200 L 191.600 79.600 184.200 79.830 L 176.800 80.060 176.800 56.430 L 176.800 32.800 184.412 32.800 L 192.024 32.800 191.812 56.200 M223.200 56.430 L 223.200 80.060 215.800 79.830 L 208.400 79.600 207.982 56.400 L 207.563 33.200 207.382 56.040 C 207.247 72.946,207.449 79.129,208.160 79.840 C 208.839 80.519,213.529 80.800,224.160 80.800 L 239.200 80.800 239.200 128.430 L 239.200 176.060 231.800 175.830 L 224.400 175.600 223.990 128.400 L 223.581 81.200 223.390 128.040 C 223.246 163.619,223.431 175.111,224.160 175.840 C 224.839 176.519,229.529 176.800,240.160 176.800 L 255.200 176.800 255.200 200.430 L 255.200 224.060 247.800 223.830 L 240.400 223.600 239.982 200.400 L 239.563 177.200 239.384 196.000 C 239.286 206.340,239.440 220.458,239.727 227.373 L 240.248 239.945 247.924 240.173 L 255.600 240.400 255.829 248.229 L 256.059 256.059 248.229 255.829 L 240.400 255.600 240.171 247.800 L 239.942 240.000 231.971 240.000 L 224.000 240.000 224.000 216.029 L 224.000 192.058 216.200 191.829 L 208.400 191.600 207.955 183.600 L 207.510 175.600 207.189 183.600 L 206.868 191.600 206.604 184.200 L 206.340 176.800 200.000 176.800 L 193.660 176.800 193.396 184.200 L 193.132 191.600 192.809 183.200 L 192.487 174.800 192.043 183.200 L 191.600 191.600 183.800 191.829 L 176.000 192.058 176.000 216.029 L 176.000 240.000 168.000 240.000 L 160.000 240.000 160.000 248.000 L 160.000 256.000 151.971 256.000 L 143.942 256.000 144.171 248.200 L 144.400 240.400 152.076 240.173 L 159.753 239.945 160.276 227.845 C 160.564 221.190,160.800 206.996,160.800 196.302 L 160.800 176.858 168.600 176.629 L 176.400 176.400 176.606 128.629 L 176.813 80.858 184.606 80.629 L 192.400 80.400 192.612 56.600 L 192.824 32.800 208.012 32.800 L 223.200 32.800 223.200 56.430 M175.806 128.200 L 175.600 175.600 168.200 175.830 L 160.800 176.060 160.800 128.430 L 160.800 80.800 168.406 80.800 L 176.013 80.800 175.806 128.200 M159.812 200.200 L 159.600 223.600 152.200 223.830 L 144.800 224.060 144.800 200.430 L 144.800 176.800 152.412 176.800 L 160.024 176.800 159.812 200.200 M7.568 208.583 L 15.141 208.857 15.421 216.229 L 15.701 223.600 15.650 216.000 L 15.600 208.400 7.798 208.354 L -0.004 208.308 7.568 208.583 M23.568 224.583 L 31.141 224.857 31.421 232.229 L 31.701 239.600 31.650 232.000 L 31.600 224.400 23.798 224.354 L 15.996 224.308 23.568 224.583 M144.000 232.400 L 144.000 240.000 120.400 240.000 L 96.800 240.000 96.800 232.400 L 96.800 224.800 120.400 224.800 L 144.000 224.800 144.000 232.400 M207.376 247.688 C 207.111 274.686,206.456 272.800,216.098 272.800 L 223.200 272.800 223.200 279.535 C 223.200 289.174,222.858 288.800,231.657 288.800 L 239.142 288.800 239.371 296.600 L 239.600 304.400 247.400 304.629 L 255.200 304.858 255.200 319.999 L 255.200 335.140 247.800 335.370 L 240.400 335.600 240.183 351.800 L 239.967 368.000 232.183 368.166 L 224.400 368.332 231.800 368.596 L 239.200 368.860 239.200 376.030 L 239.200 383.200 200.000 383.200 L 160.800 383.200 160.800 376.029 L 160.800 368.858 168.600 368.629 L 176.400 368.400 176.629 360.600 L 176.858 352.800 183.999 352.800 L 191.140 352.800 191.404 360.200 L 191.668 367.600 191.834 359.800 L 192.000 352.000 184.000 352.000 L 176.000 352.000 176.000 360.000 L 176.000 368.000 168.017 368.000 L 160.033 368.000 159.817 351.800 L 159.600 335.600 152.200 335.370 L 144.800 335.140 144.800 319.999 L 144.800 304.858 152.600 304.629 L 160.400 304.400 160.629 296.629 L 160.857 288.857 168.629 288.629 L 176.400 288.400 176.629 280.600 L 176.858 272.800 183.869 272.800 C 193.486 272.800,192.800 274.718,192.800 247.840 L 192.800 224.800 200.200 224.800 L 207.600 224.799 207.376 247.688 M303.200 232.400 L 303.200 240.000 279.600 240.000 L 256.000 240.000 256.000 232.400 L 256.000 224.800 279.600 224.800 L 303.200 224.800 303.200 232.400 M191.200 264.000 L 191.200 271.200 183.800 271.035 L 176.400 270.871 183.400 270.604 L 190.400 270.338 190.400 263.569 C 190.400 259.846,190.580 256.800,190.800 256.800 C 191.020 256.800,191.200 260.040,191.200 264.000 M216.800 270.451 L 223.600 270.902 216.200 271.051 L 208.800 271.200 208.949 263.800 L 209.098 256.400 209.549 263.200 L 210.000 270.000 216.800 270.451 M108.600 271.798 C 114.870 271.933,125.130 271.933,131.400 271.798 C 137.670 271.663,132.540 271.552,120.000 271.552 C 107.460 271.552,102.330 271.663,108.600 271.798 M268.600 271.798 C 274.870 271.933,285.130 271.933,291.400 271.798 C 297.670 271.663,292.540 271.552,280.000 271.552 C 267.460 271.552,262.330 271.663,268.600 271.798 M60.200 287.800 C 75.490 287.921,100.510 287.921,115.800 287.800 C 131.090 287.678,118.580 287.579,88.000 287.579 C 57.420 287.579,44.910 287.678,60.200 287.800 M284.200 287.800 C 299.490 287.921,324.510 287.921,339.800 287.800 C 355.090 287.678,342.580 287.579,312.000 287.579 C 281.420 287.579,268.910 287.678,284.200 287.800 M368.354 295.798 L 368.400 303.600 384.400 303.627 L 400.400 303.653 384.629 303.410 L 368.858 303.166 368.583 295.581 L 368.308 287.996 368.354 295.798 M31.200 295.983 L 31.200 303.166 15.400 303.401 L -0.400 303.636 15.800 303.818 L 32.000 304.000 32.000 296.400 C 32.000 292.220,31.820 288.800,31.600 288.800 C 31.380 288.800,31.200 292.032,31.200 295.983 M132.200 351.788 C 134.290 351.953,137.710 351.953,139.800 351.788 C 141.890 351.623,140.180 351.488,136.000 351.488 C 131.820 351.488,130.110 351.623,132.200 351.788 M260.200 351.788 C 262.290 351.953,265.710 351.953,267.800 351.788 C 269.890 351.623,268.180 351.488,264.000 351.488 C 259.820 351.488,258.110 351.623,260.200 351.788 M208.000 359.971 L 208.000 367.942 200.398 368.217 L 192.796 368.492 200.598 368.446 L 208.400 368.400 208.629 360.600 L 208.858 352.800 215.999 352.800 L 223.140 352.800 223.404 360.200 L 223.668 367.600 223.834 359.800 L 224.000 352.000 216.000 352.000 L 208.000 352.000 208.000 359.971 " stroke="none" fill="#555555" fill-rule="evenodd"></path><path id="path2" d="M191.200 15.600 L 191.200 31.200 184.160 31.200 C 174.509 31.200,175.200 29.275,175.200 56.160 L 175.200 79.200 168.160 79.200 C 158.276 79.200,159.200 74.151,159.200 128.160 L 159.200 175.200 152.160 175.200 C 142.509 175.200,143.200 173.275,143.200 200.160 L 143.200 223.200 120.160 223.200 C 93.275 223.200,95.200 222.509,95.200 232.160 L 95.200 239.200 64.000 239.200 L 32.800 239.200 32.800 232.160 C 32.800 223.312,32.688 223.200,23.840 223.200 L 16.800 223.200 16.800 216.160 C 16.800 207.187,16.772 207.162,7.240 207.355 L -0.400 207.510 7.600 207.955 L 15.600 208.400 15.829 216.171 L 16.057 223.943 23.829 224.171 L 31.600 224.400 31.829 232.200 L 32.058 240.000 64.000 240.000 L 95.942 240.000 96.171 232.200 L 96.400 224.400 120.188 224.188 L 143.976 223.976 144.188 200.188 L 144.400 176.400 152.194 176.171 L 159.987 175.942 160.194 128.171 L 160.400 80.400 168.188 80.171 L 175.976 79.942 176.188 56.171 L 176.400 32.400 184.200 32.171 L 192.000 31.942 192.000 15.971 C 192.000 7.187,191.820 0.000,191.600 0.000 C 191.380 0.000,191.200 7.020,191.200 15.600 M208.182 15.771 L 208.000 31.942 215.800 32.171 L 223.600 32.400 223.812 56.171 L 224.024 79.942 231.812 80.171 L 239.600 80.400 239.806 128.171 L 240.013 175.942 247.806 176.171 L 255.600 176.400 255.812 200.188 L 256.024 223.976 279.812 224.188 L 303.600 224.400 303.829 232.200 L 304.058 240.000 336.000 240.000 L 367.942 240.000 368.171 232.200 L 368.400 224.400 376.171 224.171 L 383.943 223.943 384.171 216.171 L 384.400 208.400 392.400 207.955 L 400.400 207.510 392.760 207.355 C 383.228 207.162,383.200 207.187,383.200 216.160 L 383.200 223.200 376.160 223.200 C 367.312 223.200,367.200 223.312,367.200 232.160 L 367.200 239.200 336.000 239.200 L 304.800 239.200 304.800 232.160 C 304.800 222.509,306.725 223.200,279.840 223.200 L 256.800 223.200 256.800 200.160 C 256.800 173.275,257.491 175.200,247.840 175.200 L 240.800 175.200 240.800 128.160 C 240.800 74.151,241.724 79.200,231.840 79.200 L 224.800 79.200 224.800 56.160 C 224.800 29.279,225.488 31.200,215.857 31.200 L 208.834 31.200 208.599 15.400 L 208.364 -0.400 208.182 15.771 M192.612 56.600 L 192.400 80.400 184.606 80.629 L 176.813 80.858 176.606 128.629 L 176.400 176.400 168.600 176.629 L 160.800 176.858 160.800 196.302 C 160.800 206.996,160.564 221.190,160.276 227.845 L 159.753 239.945 152.076 240.173 L 144.400 240.400 144.171 248.188 L 143.942 255.976 120.171 256.188 L 96.400 256.400 96.400 263.825 L 96.400 271.251 120.000 271.252 L 143.600 271.254 143.829 263.627 L 144.058 256.000 152.029 256.000 L 160.000 256.000 160.000 248.000 L 160.000 240.000 168.000 240.000 L 176.000 240.000 176.000 216.029 L 176.000 192.058 183.800 191.829 L 191.600 191.600 191.806 143.772 L 192.013 95.944 200.027 96.172 L 208.040 96.400 208.220 144.000 L 208.400 191.600 216.200 191.829 L 224.000 192.058 224.000 216.029 L 224.000 240.000 231.971 240.000 L 239.942 240.000 240.171 247.800 L 240.400 255.600 248.171 255.829 L 255.943 256.057 256.171 263.656 L 256.400 271.254 280.000 271.252 L 303.600 271.251 303.600 263.825 L 303.600 256.400 279.829 256.188 L 256.058 255.976 255.829 248.188 L 255.600 240.400 247.888 240.172 L 240.175 239.944 239.624 222.972 C 239.321 213.637,239.191 199.430,239.336 191.399 L 239.600 176.798 232.298 176.799 C 222.227 176.800,223.142 181.842,223.387 127.703 L 223.600 80.800 216.298 80.800 C 206.424 80.800,207.111 82.733,207.376 55.688 L 207.600 32.799 200.212 32.800 L 192.824 32.800 192.612 56.600 M192.800 247.840 C 192.800 274.718,193.486 272.800,183.869 272.800 L 176.858 272.800 176.629 280.600 L 176.400 288.400 168.629 288.629 L 160.857 288.857 160.629 296.629 L 160.400 304.400 152.600 304.629 L 144.800 304.858 144.800 319.999 L 144.800 335.140 152.200 335.370 L 159.600 335.600 159.817 351.829 L 160.033 368.058 152.217 367.829 L 144.400 367.600 144.171 359.800 L 143.942 352.000 135.971 352.000 L 128.000 352.000 128.000 360.029 L 128.000 368.058 120.200 367.829 L 112.400 367.600 112.400 336.000 L 112.400 304.400 128.200 304.183 L 144.000 303.966 144.000 295.983 L 144.000 288.000 88.000 288.000 L 32.000 288.000 32.000 295.983 L 32.000 303.967 15.800 304.210 L -0.400 304.452 16.000 304.426 L 32.400 304.400 32.629 296.600 L 32.858 288.800 88.029 288.800 L 143.200 288.800 143.200 296.000 L 143.200 303.200 128.160 303.200 C 117.529 303.200,112.839 303.481,112.160 304.160 C 110.643 305.677,110.796 366.668,112.319 367.933 C 113.042 368.533,116.091 368.780,120.919 368.631 L 128.400 368.400 128.629 360.600 L 128.858 352.800 136.029 352.800 L 143.200 352.800 143.200 359.840 C 143.200 368.688,143.312 368.800,152.160 368.800 L 159.200 368.800 159.200 375.902 C 159.200 385.685,155.190 384.848,200.891 384.608 L 240.400 384.400 240.629 376.629 L 240.857 368.857 248.629 368.629 L 256.400 368.400 256.629 360.600 L 256.858 352.800 264.029 352.800 L 271.200 352.800 271.200 359.902 C 271.200 368.865,271.271 368.929,280.919 368.631 L 288.400 368.400 288.609 336.893 C 288.760 314.301,288.562 305.077,287.911 304.293 C 287.203 303.440,283.695 303.200,271.902 303.200 L 256.800 303.200 256.800 296.000 L 256.800 288.800 312.000 288.800 L 367.200 288.800 367.200 295.840 C 367.200 305.327,366.212 304.832,384.760 304.626 L 400.400 304.451 384.400 304.026 L 368.400 303.600 368.171 295.800 L 367.942 288.000 311.971 288.000 L 256.000 288.000 256.000 295.983 L 256.000 303.966 271.800 304.183 L 287.600 304.400 287.809 336.229 L 288.018 368.058 280.209 367.829 L 272.400 367.600 272.171 359.800 L 271.942 352.000 263.971 352.000 L 256.000 352.000 256.000 360.000 L 256.000 368.000 247.983 368.000 L 239.967 368.000 240.183 351.800 L 240.400 335.600 247.800 335.370 L 255.200 335.140 255.200 319.999 L 255.200 304.858 247.400 304.629 L 239.600 304.400 239.371 296.600 L 239.142 288.800 231.657 288.800 C 222.858 288.800,223.200 289.174,223.200 279.535 L 223.200 272.800 216.098 272.800 C 206.456 272.800,207.111 274.686,207.376 247.688 L 207.600 224.799 200.200 224.800 L 192.800 224.800 192.800 247.840 M207.383 288.600 L 207.600 304.400 215.371 304.629 L 223.143 304.857 223.371 312.629 L 223.600 320.400 231.400 320.629 L 239.200 320.858 239.200 344.029 L 239.200 367.200 232.000 367.200 L 224.800 367.200 224.800 359.200 L 224.800 351.200 216.000 351.200 L 207.200 351.200 207.200 359.200 L 207.200 367.200 200.000 367.200 L 192.800 367.200 192.800 359.200 L 192.800 351.200 184.000 351.200 L 175.200 351.200 175.200 359.200 L 175.200 367.200 168.000 367.200 L 160.800 367.200 160.800 344.029 L 160.800 320.858 168.600 320.629 L 176.400 320.400 176.629 312.629 L 176.857 304.857 184.629 304.629 L 192.400 304.400 192.617 288.600 L 192.834 272.800 200.000 272.800 L 207.166 272.800 207.383 288.600 M192.000 360.000 L 192.000 368.000 200.000 368.000 L 208.000 368.000 208.000 360.000 L 208.000 352.000 216.000 352.000 L 224.000 352.000 224.000 360.000 L 224.000 368.000 232.000 368.000 L 240.000 368.000 240.000 376.007 L 240.000 384.015 200.200 383.807 L 160.400 383.600 160.171 375.800 L 159.942 368.000 167.971 368.000 L 176.000 368.000 176.000 360.000 L 176.000 352.000 184.000 352.000 L 192.000 352.000 192.000 360.000 " stroke="none" fill="#8e8e8e" fill-rule="evenodd"></path><path id="path3" d="M0.000 103.600 L 0.000 207.200 7.440 207.200 C 16.737 207.200,16.800 207.261,16.800 216.160 L 16.800 223.200 23.840 223.200 C 32.688 223.200,32.800 223.312,32.800 232.160 L 32.800 239.200 64.000 239.200 L 95.200 239.200 95.200 232.160 C 95.200 222.509,93.275 223.200,120.160 223.200 L 143.200 223.200 143.200 200.160 C 143.200 173.275,142.509 175.200,152.160 175.200 L 159.200 175.200 159.200 128.160 C 159.200 74.151,158.276 79.200,168.160 79.200 L 175.200 79.200 175.200 56.160 C 175.200 29.275,174.509 31.200,184.160 31.200 L 191.200 31.200 191.200 15.600 L 191.200 0.000 95.600 0.000 L 0.000 0.000 0.000 103.600 M208.800 15.600 L 208.800 31.200 215.840 31.200 C 225.491 31.200,224.800 29.275,224.800 56.160 L 224.800 79.200 231.840 79.200 C 241.724 79.200,240.800 74.151,240.800 128.160 L 240.800 175.200 247.840 175.200 C 257.491 175.200,256.800 173.275,256.800 200.160 L 256.800 223.200 279.840 223.200 C 306.725 223.200,304.800 222.509,304.800 232.160 L 304.800 239.200 336.000 239.200 L 367.200 239.200 367.200 232.160 C 367.200 227.751,367.559 224.761,368.160 224.160 C 368.761 223.559,371.751 223.200,376.160 223.200 L 383.200 223.200 383.200 216.160 C 383.200 207.261,383.263 207.200,392.560 207.200 L 400.000 207.200 400.000 103.600 L 400.000 0.000 304.400 0.000 L 208.800 0.000 208.800 15.600 M192.617 288.600 L 192.400 304.400 184.629 304.629 L 176.857 304.857 176.629 312.629 L 176.400 320.400 168.600 320.629 L 160.800 320.858 160.800 344.029 L 160.800 367.200 168.000 367.200 L 175.200 367.200 175.200 359.200 L 175.200 351.200 184.000 351.200 L 192.800 351.200 192.800 359.200 L 192.800 367.200 200.000 367.200 L 207.200 367.200 207.200 359.200 L 207.200 351.200 216.000 351.200 L 224.800 351.200 224.800 359.200 L 224.800 367.200 232.000 367.200 L 239.200 367.200 239.200 344.029 L 239.200 320.858 231.400 320.629 L 223.600 320.400 223.371 312.629 L 223.143 304.857 215.371 304.629 L 207.600 304.400 207.383 288.600 L 207.166 272.800 200.000 272.800 L 192.834 272.800 192.617 288.600 M32.629 296.600 L 32.400 304.400 16.200 304.617 L 0.000 304.833 0.000 352.417 L 0.000 400.000 200.000 400.000 L 400.000 400.000 400.000 352.400 L 400.000 304.800 384.560 304.800 C 366.255 304.800,367.200 305.288,367.200 295.840 L 367.200 288.800 312.000 288.800 L 256.800 288.800 256.800 296.000 L 256.800 303.200 271.902 303.200 C 283.695 303.200,287.203 303.440,287.911 304.293 C 288.562 305.077,288.760 314.301,288.609 336.893 L 288.400 368.400 280.919 368.631 C 271.271 368.929,271.200 368.865,271.200 359.902 L 271.200 352.800 264.029 352.800 L 256.858 352.800 256.629 360.600 L 256.400 368.400 248.629 368.629 L 240.857 368.857 240.629 376.629 L 240.400 384.400 200.891 384.608 C 155.190 384.848,159.200 385.685,159.200 375.902 L 159.200 368.800 152.160 368.800 C 143.312 368.800,143.200 368.688,143.200 359.840 L 143.200 352.800 136.029 352.800 L 128.858 352.800 128.629 360.600 L 128.400 368.400 120.919 368.631 C 116.091 368.780,113.042 368.533,112.319 367.933 C 110.796 366.668,110.643 305.677,112.160 304.160 C 112.839 303.481,117.529 303.200,128.160 303.200 L 143.200 303.200 143.200 296.000 L 143.200 288.800 88.029 288.800 L 32.858 288.800 32.629 296.600 " stroke="none" fill="#ffffff" fill-rule="evenodd"></path><path id="path4" d="M208.354 56.000 C 208.354 68.980,208.464 74.290,208.598 67.800 C 208.733 61.310,208.733 50.690,208.598 44.200 C 208.464 37.710,208.354 43.020,208.354 56.000 M224.375 128.000 C 224.375 154.180,224.476 164.890,224.600 151.800 C 224.723 138.710,224.723 117.290,224.600 104.200 C 224.476 91.110,224.375 101.820,224.375 128.000 M192.561 96.505 C 191.849 97.218,192.023 170.107,192.767 182.400 L 193.323 191.600 193.462 184.200 L 193.600 176.800 200.000 176.800 L 206.400 176.800 206.517 184.200 C 206.627 191.211,206.669 191.012,207.316 180.400 C 207.691 174.240,207.909 152.820,207.799 132.800 L 207.600 96.400 200.361 96.172 C 196.380 96.047,192.870 96.197,192.561 96.505 M240.354 200.000 C 240.354 212.980,240.464 218.290,240.598 211.800 C 240.733 205.310,240.733 194.690,240.598 188.200 C 240.464 181.710,240.354 187.020,240.354 200.000 M190.400 263.569 L 190.400 270.338 183.400 270.604 L 176.400 270.871 183.800 271.035 L 191.200 271.200 191.200 264.000 C 191.200 260.040,191.020 256.800,190.800 256.800 C 190.580 256.800,190.400 259.846,190.400 263.569 M208.949 263.800 L 208.800 271.200 216.200 271.051 L 223.600 270.902 216.800 270.451 L 210.000 270.000 209.549 263.200 L 209.098 256.400 208.949 263.800 M107.800 272.598 C 114.510 272.732,125.490 272.732,132.200 272.598 C 138.910 272.465,133.420 272.355,120.000 272.355 C 106.580 272.355,101.090 272.465,107.800 272.598 M160.244 280.000 L 160.187 287.600 167.693 287.345 L 175.200 287.090 175.035 279.745 L 174.871 272.400 174.604 279.400 L 174.338 286.400 167.599 286.400 L 160.860 286.400 160.581 279.400 L 160.302 272.400 160.244 280.000 M267.800 272.598 C 274.510 272.732,285.490 272.732,292.200 272.598 C 298.910 272.465,293.420 272.355,280.000 272.355 C 266.580 272.355,261.090 272.465,267.800 272.598 M224.949 279.800 L 224.800 287.200 232.400 287.200 L 240.000 287.200 239.835 279.800 L 239.671 272.400 239.404 279.432 L 239.137 286.464 232.568 286.232 L 226.000 286.000 225.549 279.200 L 225.098 272.400 224.949 279.800 M240.288 296.000 C 240.288 300.180,240.423 301.890,240.588 299.800 C 240.753 297.710,240.753 294.290,240.588 292.200 C 240.423 290.110,240.288 291.820,240.288 296.000 M256.335 320.000 C 256.335 328.580,256.453 332.090,256.596 327.800 C 256.740 323.510,256.740 316.490,256.596 312.200 C 256.453 307.910,256.335 311.420,256.335 320.000 M148.200 336.588 C 150.290 336.753,153.710 336.753,155.800 336.588 C 157.890 336.423,156.180 336.288,152.000 336.288 C 147.820 336.288,146.110 336.423,148.200 336.588 M244.200 336.588 C 246.290 336.753,249.710 336.753,251.800 336.588 C 253.890 336.423,252.180 336.288,248.000 336.288 C 243.820 336.288,242.110 336.423,244.200 336.588 " stroke="none" fill="#173dd6" fill-rule="evenodd"></path></g></svg>